<svg xmlns="http://www.w3.org/2000/svg" width="1259.218" height="937.315" viewBox="0 0 1259.218 937.315">
  <g id="Group_9" data-name="Group 9" opacity="0.17">
    <path id="Path_38" data-name="Path 38" d="M1389.307,564.883a117.291,117.291,0,0,0-.8-18.027c-6.993-57.237-55.35-105.147-136.211-134.906-57.219-21.049-129.048-32.7-208.443-33.872-21.121-26.066-54.537-47.356-101.186-64.578-61.886-22.865-142.962-35.455-228.276-35.455-6.322,0-12.653.063-18.876.2-92.306,1.778-179.525,17.874-245.587,45.335L199.674,427.589c-59.133,24.59-69.1,61.592-69.451,82.739l-.027-.018v232.55A137.888,137.888,0,0,0,212.2,868.915l642.114,284.717a137.909,137.909,0,0,0,130.194-9.9L1325.82,925.426a137.867,137.867,0,0,0,63.558-114.921l.036.01V564.766Z" transform="translate(-130.196 -278.046)" fill="#b0bec5"/>
    <path id="Path_39" data-name="Path 39" d="M975.648,381.734c-11.732-27-42.17-49.287-91.538-67.521-63.3-23.392-146.083-34.122-229.805-32.324-83.544,1.609-166.282,15.943-228.285,41.7L175.763,427.615c-27.308,11.346-41.775,26.5-40.139,42.161,1.761,16.229,18.34,31.967,48.161,44.172L780.7,758.257c29.82,12.205,67.555,17.705,104.011,16.676,36.366-1.1,71.365-9.273,96.16-23.078l238.747-132.85c57.362-31.914,84.679-71.758,79.689-110.038-4.542-37.842-41.195-72.608-105.514-96.277-59.678-21.962-136.4-32.146-218.145-30.957" transform="translate(-88.08 -249.055)" fill="#fff"/>
    <path id="Path_40" data-name="Path 40" d="M543.292,355.4c10.2-5.15,17.91-16.213,15.416-25.342-1.672-11.437-10.372-19.305-24.608-23.768s-33.317-5.275-58.837-2.324c-21.621,2.9-42.491,7.958-52.98,13.054l-217.6,105.765,127.626,39.255Z" transform="translate(461.368 -86.011)" fill="#b0bec5"/>
    <path id="Path_41" data-name="Path 41" d="M487.015,338.511c10.265-5.212,15.085-14.065,13.332-22.389-2.423-9.193-9.156-15.836-21.9-19.806-13.538-4.24-30.823-4.436-52.685-.885-17.687,2.924-32.209,6.832-45.255,12.5L171.761,398.646l107.481,33.048Z" transform="translate(199.907 -159.782)" fill="#b0bec5"/>
    <path id="Path_42" data-name="Path 42" d="M265.214,373.784a6.291,6.291,0,0,1-3.47-11.544c10.775-7.082,10.775-7.082,20.522-13.681a6.287,6.287,0,1,1,7.055,10.408c-9.8,6.661-9.8,6.661-20.655,13.788a6.37,6.37,0,0,1-3.451,1.029" transform="translate(892.085 273.338)" fill="#fff"/>
    <path id="Path_43" data-name="Path 43" d="M309.045,334.177c-.233,30.769,2.807,62.548.42,94.755-1.216,16.079-3.746,32.353-9.273,48.019-5.463,15.613-14.36,30.555-26.772,42.02l-.036.025A6.253,6.253,0,0,1,264.8,509.9c10.533-10.193,17.955-23.23,22.551-37.351,4.641-14.146,6.7-29.275,7.5-44.539,1.618-30.679-2.048-61.734-2.575-93.835a8.384,8.384,0,1,1,16.766-.277v.277Z" transform="translate(923.705 100.048)" fill="#fff"/>
    <path id="Path_44" data-name="Path 44" d="M385.653,467.364c-74.423-30.841-146.906-65.7-220.64-96.233a12.578,12.578,0,0,1,9.613-23.248c.161.072.348.151.5.222,73.234,34.024,143.991,71.849,216.545,105.569a7.478,7.478,0,0,1-6.018,13.689" transform="translate(84.572 268.98)" fill="#fff"/>
    <path id="Path_45" data-name="Path 45" d="M218.9,386.917a7.648,7.648,0,0,1-3.041-.635l-26.709-11.731a7.549,7.549,0,1,1,6.071-13.824l26.718,11.732a7.549,7.549,0,0,1-3.04,14.458" transform="translate(302.144 373.514)" fill="#fff"/>
    <rect id="Rectangle_12" data-name="Rectangle 12" width="49.27" height="49.27" transform="translate(684.891 789.524)" fill="#fff"/>
    <rect id="Rectangle_13" data-name="Rectangle 13" width="49.261" height="49.261" transform="translate(635.63 740.264)" fill="#fff"/>
    <rect id="Rectangle_14" data-name="Rectangle 14" width="49.261" height="49.261" transform="translate(734.152 740.264)" fill="#fff"/>
    <rect id="Rectangle_15" data-name="Rectangle 15" width="49.261" height="49.261" transform="translate(734.152 838.794)" fill="#fff"/>
    <rect id="Rectangle_16" data-name="Rectangle 16" width="49.27" height="49.261" transform="translate(783.413 691.003)" fill="#fff"/>
    <rect id="Rectangle_17" data-name="Rectangle 17" width="49.27" height="49.27" transform="translate(783.413 789.524)" fill="#fff"/>
    <rect id="Rectangle_18" data-name="Rectangle 18" width="49.27" height="49.261" transform="translate(684.891 838.794)" fill="#b0bec5"/>
    <rect id="Rectangle_19" data-name="Rectangle 19" width="49.261" height="49.261" transform="translate(734.152 888.055)" fill="#b0bec5"/>
    <rect id="Rectangle_20" data-name="Rectangle 20" width="49.261" height="49.261" transform="translate(635.63 888.055)" fill="#b0bec5"/>
  </g>
</svg>
