<svg xmlns="http://www.w3.org/2000/svg" width="40.921" height="40.929" viewBox="0 0 40.921 40.929">
  <g id="Group_32" data-name="Group 32" transform="translate(0)">
    <g id="Group_31" data-name="Group 31" transform="translate(0 0)">
      <path id="Path_36" data-name="Path 36" d="M1274.467,360.063H1270.5a.277.277,0,0,0-.278.278v2.7a.273.273,0,0,0,.278.278h3.7c.683,0,1.292-.218,1.292-1.735S1274.467,360.063,1274.467,360.063Zm0,5.5H1270.5a.273.273,0,0,0-.278.278V369.2a.271.271,0,0,0,.278.27h3.747c.608-.008,1.75-.188,1.75-1.892C1276.006,365.553,1274.467,365.568,1274.467,365.568Zm11.693-2.245a2.493,2.493,0,0,0-2.471,1.847.31.31,0,0,0,.293.4h4.063a.3.3,0,0,0,.3-.345A2.063,2.063,0,0,0,1286.16,363.323Zm0,0a2.493,2.493,0,0,0-2.471,1.847.31.31,0,0,0,.293.4h4.063a.3.3,0,0,0,.3-.345A2.063,2.063,0,0,0,1286.16,363.323Zm-11.693,2.245H1270.5a.273.273,0,0,0-.278.278V369.2a.271.271,0,0,0,.278.27h3.747c.608-.008,1.75-.188,1.75-1.892C1276.006,365.553,1274.467,365.568,1274.467,365.568Zm0-5.5H1270.5a.277.277,0,0,0-.278.278v2.7a.273.273,0,0,0,.278.278h3.7c.683,0,1.292-.218,1.292-1.735S1274.467,360.063,1274.467,360.063Zm0,0H1270.5a.277.277,0,0,0-.278.278v2.7a.273.273,0,0,0,.278.278h3.7c.683,0,1.292-.218,1.292-1.735S1274.467,360.063,1274.467,360.063Zm0,5.5H1270.5a.273.273,0,0,0-.278.278V369.2a.271.271,0,0,0,.278.27h3.747c.608-.008,1.75-.188,1.75-1.892C1276.006,365.553,1274.467,365.568,1274.467,365.568Zm11.693-2.245a2.493,2.493,0,0,0-2.471,1.847.31.31,0,0,0,.293.4h4.063a.3.3,0,0,0,.3-.345A2.063,2.063,0,0,0,1286.16,363.323Zm0,0a2.493,2.493,0,0,0-2.471,1.847.31.31,0,0,0,.293.4h4.063a.3.3,0,0,0,.3-.345A2.063,2.063,0,0,0,1286.16,363.323Zm-11.693,2.245H1270.5a.273.273,0,0,0-.278.278V369.2a.271.271,0,0,0,.278.27h3.747c.608-.008,1.75-.188,1.75-1.892C1276.006,365.553,1274.467,365.568,1274.467,365.568Zm-3.965-2.245h3.7c.683,0,1.292-.218,1.292-1.735s-1.029-1.525-1.029-1.525H1270.5a.277.277,0,0,0-.278.278v2.7A.273.273,0,0,0,1270.5,363.323Zm7.833-19.233a20.464,20.464,0,1,0,20.457,20.464A20.488,20.488,0,0,0,1278.334,344.09Zm4.626,13.968a.282.282,0,0,1,.278-.278h5.468a.282.282,0,0,1,.278.278V359.3a.282.282,0,0,1-.278.278h-5.468a.282.282,0,0,1-.278-.278Zm-3.86,9.7c0,4.446-4.634,4.3-4.634,4.3h-7.2a.375.375,0,0,1-.383-.383V357.856a.38.38,0,0,1,.383-.383h7.2c2.306,0,4.123,1.284,4.123,3.883a2.58,2.58,0,0,1-1.359,2.516.215.215,0,0,0,.038.4C1279.258,364.922,1279.1,367.754,1279.1,367.754Zm12.106-.736a.521.521,0,0,1-.519.5h-6.5a.518.518,0,0,0-.518.593,2.373,2.373,0,0,0,2.516,1.938c1.675,0,2.155-.744,2.291-1.209a.516.516,0,0,1,.5-.36h1.562a.521.521,0,0,1,.518.593c-.443,3.545-4.949,3.289-4.949,3.289a5.178,5.178,0,0,1-5.6-5.58c0-.03.008-5.595,5.6-5.595C1290.989,361.19,1291.259,365.523,1291.206,367.018Zm-5.047-3.695a2.493,2.493,0,0,0-2.471,1.847.31.31,0,0,0,.293.4h4.063a.3.3,0,0,0,.3-.345A2.063,2.063,0,0,0,1286.16,363.323Zm-11.693,2.245H1270.5a.273.273,0,0,0-.278.278V369.2a.271.271,0,0,0,.278.27h3.747c.608-.008,1.75-.188,1.75-1.892C1276.006,365.553,1274.467,365.568,1274.467,365.568Zm-3.965-2.245h3.7c.683,0,1.292-.218,1.292-1.735s-1.029-1.525-1.029-1.525H1270.5a.277.277,0,0,0-.278.278v2.7A.273.273,0,0,0,1270.5,363.323Zm3.965-3.259H1270.5a.277.277,0,0,0-.278.278v2.7a.273.273,0,0,0,.278.278h3.7c.683,0,1.292-.218,1.292-1.735S1274.467,360.063,1274.467,360.063Zm0,5.5H1270.5a.273.273,0,0,0-.278.278V369.2a.271.271,0,0,0,.278.27h3.747c.608-.008,1.75-.188,1.75-1.892C1276.006,365.553,1274.467,365.568,1274.467,365.568Zm11.693-2.245a2.493,2.493,0,0,0-2.471,1.847.31.31,0,0,0,.293.4h4.063a.3.3,0,0,0,.3-.345A2.063,2.063,0,0,0,1286.16,363.323Zm0,0a2.493,2.493,0,0,0-2.471,1.847.31.31,0,0,0,.293.4h4.063a.3.3,0,0,0,.3-.345A2.063,2.063,0,0,0,1286.16,363.323Zm-11.693,2.245H1270.5a.273.273,0,0,0-.278.278V369.2a.271.271,0,0,0,.278.27h3.747c.608-.008,1.75-.188,1.75-1.892C1276.006,365.553,1274.467,365.568,1274.467,365.568Zm0-5.5H1270.5a.277.277,0,0,0-.278.278v2.7a.273.273,0,0,0,.278.278h3.7c.683,0,1.292-.218,1.292-1.735S1274.467,360.063,1274.467,360.063Zm0,0H1270.5a.277.277,0,0,0-.278.278v2.7a.273.273,0,0,0,.278.278h3.7c.683,0,1.292-.218,1.292-1.735S1274.467,360.063,1274.467,360.063Zm0,5.5H1270.5a.273.273,0,0,0-.278.278V369.2a.271.271,0,0,0,.278.27h3.747c.608-.008,1.75-.188,1.75-1.892C1276.006,365.553,1274.467,365.568,1274.467,365.568Zm0,0H1270.5a.273.273,0,0,0-.278.278V369.2a.271.271,0,0,0,.278.27h3.747c.608-.008,1.75-.188,1.75-1.892C1276.006,365.553,1274.467,365.568,1274.467,365.568Zm0-5.5H1270.5a.277.277,0,0,0-.278.278v2.7a.273.273,0,0,0,.278.278h3.7c.683,0,1.292-.218,1.292-1.735S1274.467,360.063,1274.467,360.063Z" transform="translate(-1257.87 -344.09)" fill="#162b37"/>
    </g>
  </g>
</svg>
