<svg xmlns="http://www.w3.org/2000/svg" width="1920.447" height="809.549" viewBox="0 0 1920.447 809.549">
  <g id="Group_491" data-name="Group 491" transform="translate(-4259.905 -462.14)" opacity="0.33">
    <g id="Group_418" data-name="Group 418" transform="translate(4777.974 575.09) rotate(-16)">
      <g id="Group_400" data-name="Group 400" transform="matrix(-0.848, 0.53, -0.53, -0.848, 388.103, 130.22)">
        <path id="Path_242" data-name="Path 242" d="M2.67.428Q12.1,9.2,21.52,17.971c1.461,1.36-.73,3.546-2.189,2.189L.483,2.617C-.981,1.257,1.213-.929,2.67.428Z" transform="translate(0 0)" fill="#b0bec5"/>
      </g>
      <g id="Group_401" data-name="Group 401" transform="matrix(-0.848, 0.53, -0.53, -0.848, 380.122, 138.877)">
        <path id="Path_243" data-name="Path 243" d="M2.691.4A118.374,118.374,0,0,1,18.906,17.777c1.209,1.582-1.478,3.125-2.674,1.563A114.549,114.549,0,0,0,.5,2.592C-1,1.277,1.2-.9,2.691.4Z" transform="translate(0 0)" fill="#b0bec5"/>
      </g>
      <g id="Group_402" data-name="Group 402" transform="matrix(-0.848, 0.53, -0.53, -0.848, 369.827, 146.849)">
        <path id="Path_244" data-name="Path 244" d="M2.89.755A64.587,64.587,0,0,0,22,21.812c1.617,1.137.072,3.821-1.562,2.672A68.126,68.126,0,0,1,.216,2.318,1.55,1.55,0,0,1,2.89.755Z" transform="translate(0 0)" fill="#b0bec5"/>
      </g>
      <g id="Group_403" data-name="Group 403" transform="matrix(-0.848, 0.53, -0.53, -0.848, 356.529, 152.759)">
        <path id="Path_245" data-name="Path 245" d="M2.621.478,21.035,20.049c1.364,1.451-.82,3.645-2.189,2.189Q9.638,12.454.432,2.667C-.933,1.216,1.252-.976,2.621.478Z" transform="translate(0 0)" fill="#b0bec5"/>
      </g>
      <g id="Group_404" data-name="Group 404" transform="matrix(-0.848, 0.53, -0.53, -0.848, 342.88, 159.878)">
        <path id="Path_246" data-name="Path 246" d="M2.587.5a181.52,181.52,0,0,0,18.167,18.14c1.508,1.308-.689,3.489-2.189,2.189A181.225,181.225,0,0,1,.4,2.694C-.9,1.2,1.277-1,2.587.5Z" transform="translate(0 0)" fill="#b0bec5"/>
      </g>
      <g id="Group_405" data-name="Group 405" transform="matrix(-0.848, 0.53, -0.53, -0.848, 329.753, 164.832)">
        <path id="Path_247" data-name="Path 247" d="M2.635.465l21.2,21.716c1.392,1.426-.8,3.618-2.189,2.189L.446,2.654C-.946,1.227,1.241-.964,2.635.465Z" transform="translate(0 0)" fill="#b0bec5"/>
      </g>
      <g id="Group_417" data-name="Group 417" transform="translate(0 0)">
        <g id="Group_2" data-name="Group 2" transform="matrix(-0.848, 0.53, -0.53, -0.848, 467.935, 93.074)">
          <g id="Group_1" data-name="Group 1" transform="translate(0 0)">
            <path id="Path_1" data-name="Path 1" d="M5.511.375l141.1,59.069,69.7,29.179c10.056,4.21,27.81,16.262,37.129,7.132,2.432-2.38,21.106-28.862,22-28.332H280.1l-1.129.664c-5.141,3.024-9.8-4.965-4.668-7.986l1.129-.664a4.652,4.652,0,0,1,4.668,0c7.159,4.259,3.316,12.575-.535,17.55q-6.526,8.436-13.06,16.872c-3.628,4.685-7.248,11.206-12.627,14.15-10.215,5.592-23.92-3.722-33.231-7.62l-44.2-18.506L3.055,9.292C-2.356,7.029.021-1.926,5.511.375Z" fill="#b0bec5"/>
          </g>
        </g>
        <g id="Group_4" data-name="Group 4" transform="matrix(-0.848, 0.53, -0.53, -0.848, 462.282, 98.818)">
          <g id="Group_3" data-name="Group 3" transform="translate(0 0)">
            <path id="Path_2" data-name="Path 2" d="M5.6.306C48.211,15.979,93.982,21.457,138.525,29Q209.088,40.95,279.65,52.895c5.215.884,3.873,9.113-1.231,9.083l-7.6-.042c-5.951-.035-5.963-9.282,0-9.249l7.6.045q-.613,4.539-1.228,9.081Q206.629,49.866,136.069,37.918C91.523,30.377,45.752,24.9,3.141,9.224-2.4,7.188,0-1.754,5.6.306Z" transform="translate(0 0)" fill="#b0bec5"/>
          </g>
        </g>
        <g id="Group_6" data-name="Group 6" transform="matrix(-0.848, 0.53, -0.53, -0.848, 478.935, 108.928)">
          <g id="Group_5" data-name="Group 5" transform="translate(0 0)">
            <path id="Path_3" data-name="Path 3" d="M3.35,15.128A1454.867,1454.867,0,0,1,359.914,7.486c5.862.6,5.923,9.854,0,9.247A1445.634,1445.634,0,0,0,5.807,24.046c-5.819.845-8.333-8.066-2.457-8.917Z" fill="#b0bec5"/>
          </g>
        </g>
        <g id="Group_7" data-name="Group 7" transform="matrix(-0.848, 0.53, -0.53, -0.848, 174.231, 291.953)">
          <path id="Path_4" data-name="Path 4" d="M5.879.173A8.5,8.5,0,0,1,11.2,4.578a8.873,8.873,0,0,1,0,7.843C10.208,14.64,6.8,15.328,4.864,14.08,2.568,12.6,2.152,10.125,3.2,7.753c-.077.173-.344.926-.2.332-.307,1.241-.022.659-.092.287-.1-.537.015.963.045.421.039-.733-.594.03.131.206a5.2,5.2,0,0,1-.277-.473c-.015.042.656.847.2.3-.5-.594.629.4.181.151-.47-.258,1.124.369.223.109A4.685,4.685,0,0,1,.191,3.4,4.7,4.7,0,0,1,5.879.173Z" transform="translate(0 0)" fill="#b0bec5"/>
        </g>
        <g id="Group_9" data-name="Group 9" transform="matrix(-0.848, 0.53, -0.53, -0.848, 465.612, 104.953)">
          <g id="Group_8" data-name="Group 8" transform="translate(0 0)">
            <path id="Path_5" data-name="Path 5" d="M4.453,6.583q90.762,4.944,181.24,13.89,45.221,4.495,90.339,10c13.989,1.709,29.546,5,42.938-1.067,12.206-5.53,20.824-17.018,28.639-27.439,3.526-4.708,11.56-.1,7.984,4.666-15.425,20.576-31.658,36.678-59.086,35.313-32.087-1.595-64.367-7.471-96.344-10.765Q102.51,21.128,4.453,15.833c-5.919-.322-5.956-9.574,0-9.249Z" transform="translate(0 0)" fill="#b0bec5"/>
          </g>
        </g>
        <g id="Group_11" data-name="Group 11" transform="matrix(-0.848, 0.53, -0.53, -0.848, 217.059, 219.18)">
          <g id="Group_10" data-name="Group 10" transform="translate(0 0)">
            <path id="Path_6" data-name="Path 6" d="M0,32.21V4.467c0-5.951,9.25-5.961,9.25,0V32.21c0,5.951-9.25,5.961-9.25,0Z" fill="#b0bec5"/>
          </g>
        </g>
        <g id="Group_406" data-name="Group 406" transform="matrix(-0.848, 0.53, -0.53, -0.848, 314.752, 168.287)">
          <path id="Path_248" data-name="Path 248" d="M2.3.227A81.469,81.469,0,0,1,27.083,22.958c1.164,1.62-1.518,3.167-2.672,1.563A77.713,77.713,0,0,0,.742,2.9,1.55,1.55,0,0,1,2.3.227Z" transform="translate(0 0)" fill="#b0bec5"/>
        </g>
        <g id="Group_407" data-name="Group 407" transform="matrix(-0.848, 0.53, -0.53, -0.848, 303.976, 177.955)">
          <path id="Path_249" data-name="Path 249" d="M2.632.467,24.581,23.111c1.387,1.431-.8,3.621-2.189,2.187L.443,2.657C-.944,1.225,1.243-.967,2.632.467Z" transform="translate(0 0)" fill="#b0bec5"/>
        </g>
        <g id="Group_408" data-name="Group 408" transform="matrix(-0.848, 0.53, -0.53, -0.848, 290.25, 185.377)">
          <path id="Path_250" data-name="Path 250" d="M2.613.486,28.739,28.818c1.35,1.464-.835,3.658-2.189,2.189L.424,2.675C-.926,1.211,1.259-.983,2.613.486Z" transform="translate(0 0)" fill="#b0bec5"/>
        </g>
        <g id="Group_409" data-name="Group 409" transform="matrix(-0.848, 0.53, -0.53, -0.848, 275.898, 190.472)">
          <path id="Path_251" data-name="Path 251" d="M2.617.482Q14.158,12.877,25.7,25.27c1.354,1.456-.83,3.65-2.189,2.189Q11.971,15.068.428,2.671C-.929,1.215,1.255-.98,2.617.482Z" transform="translate(0 0)" fill="#b0bec5"/>
        </g>
        <g id="Group_410" data-name="Group 410" transform="matrix(-0.848, 0.53, -0.53, -0.848, 269.721, 196.406)">
          <path id="Path_252" data-name="Path 252" d="M2.61.488l30.742,33.59c1.342,1.468-.84,3.663-2.189,2.189L.42,2.677C-.922,1.209,1.262-.985,2.61.488Z" transform="translate(0 0)" fill="#b0bec5"/>
        </g>
        <g id="Group_411" data-name="Group 411" transform="matrix(-0.848, 0.53, -0.53, -0.848, 252.304, 199.355)">
          <path id="Path_253" data-name="Path 253" d="M2.645.456q14.03,14.034,28.063,28.07a1.549,1.549,0,0,1-2.189,2.189L.456,2.645A1.549,1.549,0,0,1,2.645.456Z" transform="translate(0 0)" fill="#b0bec5"/>
        </g>
        <g id="Group_412" data-name="Group 412" transform="matrix(-0.848, 0.53, -0.53, -0.848, 244.031, 204.136)">
          <path id="Path_254" data-name="Path 254" d="M2.719.368A162.291,162.291,0,0,1,31.346,30.244c1.189,1.6-1.5,3.148-2.672,1.563A159.26,159.26,0,0,0,.53,2.558C-1.023,1.307,1.181-.87,2.719.368Z" transform="translate(0 0)" fill="#b0bec5"/>
        </g>
        <g id="Group_413" data-name="Group 413" transform="matrix(-0.848, 0.53, -0.53, -0.848, 229.691, 209.083)">
          <path id="Path_255" data-name="Path 255" d="M2.617.482q9.955,10.687,19.908,21.371c1.357,1.456-.827,3.65-2.189,2.189L.428,2.671C-.929,1.215,1.255-.979,2.617.482Z" transform="translate(0 0)" fill="#b0bec5"/>
        </g>
        <g id="Group_414" data-name="Group 414" transform="matrix(-0.848, 0.53, -0.53, -0.848, 226.611, 217.152)">
          <path id="Path_256" data-name="Path 256" d="M2.608.49,22.273,22.084c1.34,1.471-.845,3.665-2.189,2.189Q10.252,13.474.419,2.679C-.921,1.208,1.264-.986,2.608.49Z" transform="translate(0 0)" fill="#b0bec5"/>
        </g>
        <g id="Group_415" data-name="Group 415" transform="matrix(-0.848, 0.53, -0.53, -0.848, 166.919, 211.454)">
          <path id="Path_257" data-name="Path 257" d="M.373,2.206C5.3-3.849,18.986,4.284,24.511,6.111q22.87,7.567,45.3,16.394A903.825,903.825,0,0,1,155.71,61.7c1.768.919.2,3.591-1.563,2.672-25-12.989-50.531-24.893-76.639-35.474Q59.433,21.569,41.05,15.049C35.5,13.08,6.425-.347,2.562,4.393,1.3,5.938-.875,3.736.373,2.206Z" transform="translate(0 0)" fill="#b0bec5"/>
        </g>
        <g id="Group_416" data-name="Group 416" transform="matrix(-0.848, 0.53, -0.53, -0.848, 117.444, 235.462)">
          <path id="Path_258" data-name="Path 258" d="M1.936.041A193.25,193.25,0,0,1,44.827,14.733c1.8.859.228,3.529-1.563,2.672A189.548,189.548,0,0,0,1.111,3.025C-.835,2.606-.011-.38,1.936.041Z" transform="translate(0 0)" fill="#b0bec5"/>
        </g>
      </g>
    </g>
    <g id="Group_43" data-name="Group 43" transform="translate(5830.66 923.22)">
      <g id="Group_17" data-name="Group 17" transform="translate(0 62.191)">
        <g id="Group_16" data-name="Group 16">
          <path id="Path_19" data-name="Path 19" d="M1001.288,665.867c34.3,71.92,71.894,143.024,96.1,219.16.662,2.081,3.95,1.193,3.282-.9-24.3-76.424-62.022-147.785-96.448-219.973-.943-1.977-3.879-.252-2.94,1.718Z" transform="translate(-1001.105 -663.275)" fill="#b0bec5"/>
        </g>
      </g>
      <g id="Group_19" data-name="Group 19" transform="translate(4.855 3.589)">
        <g id="Group_18" data-name="Group 18">
          <path id="Path_20" data-name="Path 20" d="M1006.982,682.571c4.311-6.776,12.967-3.939,19.5-4.845,4.668-.646,6.971-2.7,10.917-5.055,5.837-3.485,12.283-3.523,18.759-4.984a104,104,0,0,0,16.468-5.363c22.79-9.331,43.48-22.818,67.917-27.862,2.144-.443,1.236-3.727-.9-3.284-26.946,5.562-49.191,21.709-74.879,30.5a118.549,118.549,0,0,1-18.62,4.3c-5.857,1.007-9.145,3.5-14.18,6.364-8.862,5.044-21.518-1.552-27.924,8.512-1.18,1.854,1.767,3.565,2.941,1.72Z" transform="translate(-1003.767 -631.138)" fill="#b0bec5"/>
        </g>
      </g>
      <g id="Group_21" data-name="Group 21" transform="translate(151.099 0)">
        <g id="Group_20" data-name="Group 20">
          <path id="Path_21" data-name="Path 21" d="M1084.061,631.253c26.257,79.371,74.134,151.494,86.721,235.221.325,2.159,3.605,1.242,3.282-.906-12.588-83.73-60.464-155.858-86.721-235.221-.684-2.07-3.973-1.183-3.283.906Z" transform="translate(-1083.966 -629.17)" fill="#b0bec5"/>
        </g>
      </g>
      <g id="Group_23" data-name="Group 23" transform="translate(108.271 239.95)">
        <g id="Group_22" data-name="Group 22">
          <path id="Path_22" data-name="Path 22" d="M1062.523,807.059c20.965-8.308,40.539-19.805,61.717-27.588A129.526,129.526,0,0,1,1156.9,771.9c7.965-.753,16.281-1.457,21.618-8.153,1.353-1.7-1.041-4.121-2.407-2.409-6.6,8.284-18.965,6.725-28.438,8.25a137.467,137.467,0,0,0-28.647,8.244c-19.545,7.732-37.864,18.2-57.4,25.94-2.013.8-1.136,4.092.9,3.284Z" transform="translate(-1060.479 -760.756)" fill="#b0bec5"/>
        </g>
      </g>
      <g id="Group_25" data-name="Group 25" transform="translate(37.334 43.525)">
        <g id="Group_24" data-name="Group 24">
          <path id="Path_23" data-name="Path 23" d="M1022.807,690.772c17.865,3.435,31.016-11.9,47.875-14.169,4.637-.622,9.371-.2,13.977-1.121,4.958-.994,9.53-3.459,14.038-5.649q7.987-3.887,15.968-7.785c6.228-3.036,12.694-7.1,19.853-5.071a1.7,1.7,0,0,0,.9-3.284c-8.884-2.513-17.021,2.757-24.758,6.528-11.225,5.47-21.853,12.068-34.594,12.582-8.457.341-15.646,2.732-23.2,6.444-9.2,4.524-18.489,10.294-29.16,8.242-2.141-.412-3.058,2.868-.9,3.282Z" transform="translate(-1021.578 -653.038)" fill="#b0bec5"/>
        </g>
      </g>
      <g id="Group_27" data-name="Group 27" transform="translate(54.569 72.155)">
        <g id="Group_26" data-name="Group 26">
          <path id="Path_24" data-name="Path 24" d="M1033.131,707.553c20.564-6.05,41.919-11.041,61.686-19.422,9.916-4.2,18.675-7.557,29.348-9.068,6.977-.988,13.341-2.283,18.461-7.414a1.7,1.7,0,0,0-2.409-2.407c-6.517,6.534-15.91,6.016-24.382,7.571-9.1,1.672-17.174,6.205-25.7,9.577-18.722,7.405-38.615,12.2-57.913,17.879-2.1.618-1.2,3.9.906,3.284Z" transform="translate(-1031.03 -668.739)" fill="#b0bec5"/>
        </g>
      </g>
      <g id="Group_29" data-name="Group 29" transform="translate(66.227 110.554)">
        <g id="Group_28" data-name="Group 28">
          <path id="Path_25" data-name="Path 25" d="M1040.226,724.614c10.173-12.909,27.515-12.021,42.244-14.256a50.462,50.462,0,0,0,19.676-6.926c6.516-4.075,12.274-8.977,20.066-10.323,2.153-.374,1.24-3.654-.906-3.284-7.019,1.213-12.476,5.128-18.3,8.984-8.818,5.844-17.734,7.969-28.175,9.087-13.425,1.437-28.053,2.94-37.012,14.309-1.342,1.7,1.05,4.128,2.407,2.409Z" transform="translate(-1037.423 -689.796)" fill="#b0bec5"/>
        </g>
      </g>
      <g id="Group_31" data-name="Group 31" transform="translate(89.037 170.752)">
        <g id="Group_30" data-name="Group 30">
          <path id="Path_26" data-name="Path 26" d="M1052.068,734.642a87.781,87.781,0,0,0,26.2-8.687c1.949-1,.228-3.944-1.718-2.941a84.772,84.772,0,0,1-25.389,8.344c-2.157.354-1.242,3.636.9,3.284Z" transform="translate(-1049.932 -722.808)" fill="#b0bec5"/>
        </g>
      </g>
      <g id="Group_33" data-name="Group 33" transform="translate(150.325 165.357)">
        <g id="Group_32" data-name="Group 32">
          <path id="Path_27" data-name="Path 27" d="M1085.186,723.255h2.724a1.7,1.7,0,0,0,0-3.4h-2.724a1.7,1.7,0,0,0,0,3.4Z" transform="translate(-1083.542 -719.85)" fill="#b0bec5"/>
        </g>
      </g>
      <g id="Group_35" data-name="Group 35" transform="translate(104.319 171.525)">
        <g id="Group_34" data-name="Group 34">
          <path id="Path_28" data-name="Path 28" d="M1060.352,764.641q24.281-9.754,48.56-19.512c15.365-6.178,30.56-13.6,46.378-18.529,2.084-.649,1.194-3.937-.907-3.282-15.834,4.934-31,12.345-46.377,18.529q-24.276,9.762-48.558,19.512c-2.008.806-1.131,4.1.9,3.282Z" transform="translate(-1058.313 -723.232)" fill="#b0bec5"/>
        </g>
      </g>
      <g id="Group_37" data-name="Group 37" transform="translate(127.397 229.519)">
        <g id="Group_36" data-name="Group 36">
          <path id="Path_29" data-name="Path 29" d="M1073.027,765.54l18.958-7.106c2.033-.762,1.152-4.054-.906-3.282q-9.478,3.55-18.957,7.1c-2.033.762-1.152,4.056.906,3.284Z" transform="translate(-1070.968 -755.035)" fill="#b0bec5"/>
        </g>
      </g>
    </g>
    <g id="Group_44" data-name="Group 44" transform="translate(4259.905 941.093)">
      <g id="Group_40" data-name="Group 40" transform="translate(0 5.024)">
        <g id="Group_39" data-name="Group 39">
          <path id="Path_30" data-name="Path 30" d="M209.468,633.657c-18.873,77.563-34.674,156.575-64.053,231.033-.8,2.039,2.487,2.923,3.284.9,29.379-74.456,45.178-153.469,64.051-231.032.518-2.128-2.764-3.036-3.282-.9Z" transform="translate(-145.289 -632.441)" fill="#b0bec5"/>
        </g>
      </g>
      <g id="Group_42" data-name="Group 42" transform="translate(74.182)">
        <g id="Group_41" data-name="Group 41">
          <path id="Path_31" data-name="Path 31" d="M188.06,633.575c7.431-2.339,12.052,4.289,17.466,7.943a21.107,21.107,0,0,0,10.509,3.43c7.617.75,12.686,4.588,19.291,7.9a101.822,101.822,0,0,0,14.55,5.828c24.067,7.741,49.363,10,72.091,21.833,1.942,1.012,3.665-1.926,1.72-2.94-23.7-12.342-50.192-14.378-75.138-22.916-11.278-3.86-20.58-11.809-32.513-13.111-10.664-1.165-17.391-14.871-28.879-11.251-2.082.657-1.193,3.944.9,3.282Z" transform="translate(-185.97 -629.686)" fill="#b0bec5"/>
        </g>
      </g>
      <g id="Group_44-2" data-name="Group 44" transform="translate(139.305 52.292)">
        <g id="Group_43-2" data-name="Group 43">
          <path id="Path_32" data-name="Path 32" d="M303.107,659.511c-29.723,77.972-38.122,164-81.176,236.727a1.7,1.7,0,0,0,2.94,1.718c43.212-72.994,51.688-159.284,81.52-237.539.781-2.05-2.509-2.936-3.284-.906Z" transform="translate(-221.682 -658.362)" fill="#b0bec5"/>
        </g>
      </g>
      <g id="Group_46" data-name="Group 46" transform="translate(8.674 244.4)">
        <g id="Group_45" data-name="Group 45">
          <path id="Path_33" data-name="Path 33" d="M151.232,767.085c20.662,6.539,42.163,10,62.758,16.756a126.563,126.563,0,0,1,30.068,13.974c7.661,5.011,14.871,10.79,24.5,8.826,2.144-.438,1.236-3.72-.906-3.282-11.036,2.252-21.456-8.813-30.6-13.625A151.347,151.347,0,0,0,210.587,779.2c-19.287-5.875-39.22-9.309-58.451-15.4-2.093-.662-2.991,2.624-.9,3.284Z" transform="translate(-150.046 -763.713)" fill="#b0bec5"/>
        </g>
      </g>
      <g id="Group_48" data-name="Group 48" transform="translate(83.247 40.682)">
        <g id="Group_47" data-name="Group 47">
          <path id="Path_34" data-name="Path 34" d="M191.361,654.976c11.295,13.569,30.739,10.266,44.99,18.458,4.676,2.686,8.479,6.616,13.365,8.97,4.582,2.208,9.648,3.151,14.568,4.305q8.649,2.024,17.3,4.052c6.3,1.477,13.532,2.491,17.467,8.231,1.233,1.8,4.183.095,2.941-1.718-5.237-7.635-14.825-8.7-23.21-10.666-12.312-2.885-24.845-4.544-35.174-12.287-7.4-5.549-15.079-8.011-24.008-9.991-9.475-2.1-19.291-3.91-25.827-11.764-1.4-1.685-3.8.735-2.409,2.409Z" transform="translate(-190.941 -651.996)" fill="#b0bec5"/>
        </g>
      </g>
      <g id="Group_50" data-name="Group 50" transform="translate(77.865 74.577)">
        <g id="Group_49" data-name="Group 49">
          <path id="Path_35" data-name="Path 35" d="M189.114,674.006c19.307,8.107,38.556,17.466,58.648,23.476,9.792,2.93,18.976,5.255,27.781,10.688,6.492,4,12.838,7.87,20.73,7.09,2.159-.213,2.183-3.621,0-3.406-9.922.981-17.119-6.173-25.4-10.352-7.77-3.922-16.428-5.441-24.663-8.06-19.191-6.1-37.643-14.931-56.192-22.719-2.017-.848-2.9,2.447-.9,3.284Z" transform="translate(-187.99 -670.583)" fill="#b0bec5"/>
        </g>
      </g>
      <g id="Group_52" data-name="Group 52" transform="translate(64.759 108.354)">
        <g id="Group_51" data-name="Group 51">
          <path id="Path_36" data-name="Path 36" d="M182.93,693.092c16.711-3.625,29.747,9.247,43.23,16.714a48.828,48.828,0,0,0,16.977,5.908c7.812,1.107,15.7.742,22.8,4.7,1.915,1.068,3.634-1.871,1.718-2.94-6.174-3.445-12.759-3.964-19.667-4.645-9.738-.959-17.635-4.218-25.847-9.435-12.267-7.794-24.8-16.913-40.116-13.589-2.141.465-1.235,3.747.9,3.282Z" transform="translate(-180.803 -689.107)" fill="#b0bec5"/>
        </g>
      </g>
      <g id="Group_54" data-name="Group 54" transform="translate(59.266 151.962)">
        <g id="Group_53" data-name="Group 53">
          <path id="Path_37" data-name="Path 37" d="M178.618,716.2a87.736,87.736,0,0,0,25.785,9.863c2.137.452,3.051-2.83.9-3.282a84.888,84.888,0,0,1-24.971-9.521,1.7,1.7,0,0,0-1.718,2.94Z" transform="translate(-177.79 -713.021)" fill="#b0bec5"/>
        </g>
      </g>
      <g id="Group_56" data-name="Group 56" transform="translate(115.508 179.912)">
        <g id="Group_55" data-name="Group 55">
          <path id="Path_38" data-name="Path 38" d="M209.127,731.237q1.056.859,2.112,1.72a1.753,1.753,0,0,0,2.407,0,1.714,1.714,0,0,0,0-2.407l-2.112-1.721a1.752,1.752,0,0,0-2.407,0,1.716,1.716,0,0,0,0,2.409Z" transform="translate(-208.633 -728.348)" fill="#b0bec5"/>
        </g>
      </g>
      <g id="Group_58" data-name="Group 58" transform="translate(51.917 185.064)">
        <g id="Group_57" data-name="Group 57">
          <path id="Path_39" data-name="Path 39" d="M174.947,734.543q24.984,7.774,49.97,15.547c15.823,4.916,32.274,8.757,47.659,14.929,2.033.815,2.916-2.477.9-3.284-15.385-6.173-31.837-10.011-47.658-14.929q-24.99-7.765-49.97-15.547c-2.1-.651-2.994,2.635-.906,3.284Z" transform="translate(-173.76 -731.174)" fill="#b0bec5"/>
        </g>
      </g>
      <g id="Group_60" data-name="Group 60" transform="translate(52.724 220.641)">
        <g id="Group_59" data-name="Group 59">
          <path id="Path_40" data-name="Path 40" d="M175.378,754.065l19.183,6.466c2.081.7,2.974-2.587.9-3.284l-19.183-6.466c-2.081-.7-2.974,2.586-.9,3.284Z" transform="translate(-174.203 -750.683)" fill="#b0bec5"/>
        </g>
      </g>
    </g>
    <g id="Group_45-2" data-name="Group 45" transform="translate(5173.163 904.17)">
      <g id="Group_63" data-name="Group 63" transform="translate(24.15 46.228)">
        <g id="Group_62" data-name="Group 62">
          <path id="Path_41" data-name="Path 41" d="M658.43,795.361a815.407,815.407,0,0,0,63.539-104.6c.99-1.949-1.946-3.674-2.941-1.72A815.422,815.422,0,0,1,655.49,793.644c-1.278,1.785,1.674,3.487,2.939,1.718Z" transform="translate(-655.176 -688.178)" fill="#b0bec5"/>
        </g>
      </g>
      <g id="Group_65" data-name="Group 65" transform="translate(22.224 55.004)">
        <g id="Group_64" data-name="Group 64">
          <path id="Path_42" data-name="Path 42" d="M654.385,794.983c5.084,8.226,12.688,18.923,23.771,17.442,12.3-1.645,18.594-16.919,24.132-26.149l54.449-90.753c1.13-1.884-1.812-3.6-2.94-1.72q-21.71,36.188-43.422,72.374c-6.72,11.2-12.861,23.159-20.478,33.777-4.77,6.652-11.922,11.957-20.17,7.367-5.5-3.063-9.185-8.848-12.4-14.057-1.151-1.86-4.1-.151-2.94,1.72Z" transform="translate(-654.12 -692.99)" fill="#b0bec5"/>
        </g>
      </g>
      <g id="Group_67" data-name="Group 67" transform="translate(96.267 38.433)">
        <g id="Group_66" data-name="Group 66">
          <path id="Path_43" data-name="Path 43" d="M694.78,686.022a26.893,26.893,0,0,1,.751,7.73,1.746,1.746,0,0,0,1.7,1.7,24.409,24.409,0,0,0,13.912-2.374q-1.28-.733-2.562-1.47c.217,4.823,2.8,9.761,7.932,10.742a8.728,8.728,0,0,0,10.115-6.577c.554-2.121-2.728-3.027-3.282-.9-2.1,8.029-11.083,2.852-11.361-3.26a1.725,1.725,0,0,0-2.56-1.47,21.389,21.389,0,0,1-12.194,1.908l1.7,1.7a29.491,29.491,0,0,0-.873-8.636c-.522-2.126-3.806-1.226-3.282.906Z" transform="translate(-694.724 -683.903)" fill="#b0bec5"/>
        </g>
      </g>
      <g id="Group_69" data-name="Group 69" transform="translate(98.507 0)">
        <g id="Group_68" data-name="Group 68">
          <path id="Path_44" data-name="Path 44" d="M698.931,701.882l43.551-36.23-2.846-1.658c-2.8,8.747-5.884,17.4-9.335,25.91q-2.738,6.759-5.771,13.392c-.414.906-2.25,3.76-2.283,4.949-.082,2.93.128-.133,1.6,1.359l-.345,2.673.25-.179c1.765-1.264.068-4.218-1.72-2.94l-.248.179a1.729,1.729,0,0,0-.345,2.673,2.269,2.269,0,0,0,2.639.744,1.765,1.765,0,0,0,1.249-1.643c.9-7.1,6.045-14.78,8.727-21.465,3.266-8.138,6.193-16.4,8.868-24.747.562-1.752-1.638-2.662-2.845-1.658l-43.551,36.231c-1.687,1.4.735,3.8,2.407,2.407Z" transform="translate(-695.953 -662.826)" fill="#b0bec5"/>
        </g>
      </g>
      <g id="Group_71" data-name="Group 71" transform="translate(129.527 3.539)">
        <g id="Group_70" data-name="Group 70">
          <path id="Path_45" data-name="Path 45" d="M721.066,665.655q-2.913,6.573-5.824,13.147a1.7,1.7,0,0,0,2.941,1.718q3.542-4.86,7.084-9.719c1.185-1.625-1.311-3.31-2.673-2.064l-9.094,8.315c-1.621,1.482.793,3.884,2.409,2.407L725,671.144l-2.673-2.062q-3.542,4.861-7.086,9.721l2.941,1.718q2.91-6.573,5.822-13.148c.879-1.984-2.053-3.72-2.94-1.718Z" transform="translate(-712.963 -664.767)" fill="#b0bec5"/>
        </g>
      </g>
      <g id="Group_73" data-name="Group 73" transform="translate(0 155.641)">
        <g id="Group_72" data-name="Group 72">
          <path id="Path_46" data-name="Path 46" d="M663.513,749.338a83.551,83.551,0,0,1-10.443,20.139c-3.4,4.772-7.557,9.2-9.8,14.69-3.5,8.571.044,16.734,8.346,20.493,5.19,2.347,17,5.959,21.714,1.351s8.144-11.8,11.851-17.223q6.909-10.112,13.819-20.223l-2.941-1.72c-3.308,5.536-9.3,7.349-15.427,6.3-4.987-.852-14.61-4.728-16.6-10.051-.762-2.033-4.054-1.154-3.284.9,2.619,6.993,12.509,11.446,19.411,12.6,7.48,1.249,14.891-1.42,18.842-8.033,1.136-1.9-1.718-3.51-2.941-1.72q-9.453,13.838-18.91,27.674c-3.12,4.568-5.118,9.608-11.129,9.927-4.012.213-9.221-1.231-12.849-2.859-13.266-5.952-6.184-18.416.179-26.847a92.735,92.735,0,0,0,13.445-24.5c.748-2.064-2.542-2.952-3.284-.906Z" transform="translate(-641.932 -748.178)" fill="#b0bec5"/>
        </g>
      </g>
      <g id="Group_75" data-name="Group 75" transform="translate(35.266 46.443)">
        <g id="Group_74" data-name="Group 74">
          <path id="Path_47" data-name="Path 47" d="M664.458,815.684l73.36-124.851a1.7,1.7,0,0,0-2.939-1.718l-73.36,124.849a1.7,1.7,0,0,0,2.939,1.72Z" transform="translate(-661.272 -688.295)" fill="#b0bec5"/>
        </g>
      </g>
    </g>
    <g id="Group_49-2" data-name="Group 49" transform="translate(4550.432 585.647)">
      <g id="Group_227" data-name="Group 227" transform="translate(0 80.835)">
        <g id="Group_226" data-name="Group 226">
          <path id="Path_121" data-name="Path 121" d="M539.723,734.744l-5.768-23.4a30.7,30.7,0,0,1-1.282-5.2q-1.9-2.637.759-3.713a4.667,4.667,0,0,1,2.562-1.528c3.255-1.55,7.145-2.372,10.606-3.284a186.911,186.911,0,0,1,21.849-4.242c4.211-.585,8.439-1.054,12.668-1.49,2.141-.221,9.4-2.084,11.12-1.072-1.594-.941-.383,1.07-.259,2.081.212,1.7.677,3.41,1.01,5.091q1.135,5.725,2.27,11.452c.62,3.12,2.845,8.556.853,11.519-2.017,3-8.055,5.038-11.242,6.246-14.989,5.673-31.033,8.766-46.655,12.13l3.313,5.691q.624-.689,1.247-1.382c2.93-3.246-1.871-8.078-4.814-4.814l-1.247,1.382a3.433,3.433,0,0,0,3.311,5.689c11.171-2.405,22.356-4.8,33.354-7.921,8.609-2.44,18.312-4.834,25.478-10.487,6.917-5.456,4.783-10.7,3.22-18.591q-1.641-8.272-3.281-16.543c-.514-2.593-.667-6.162-3.273-7.706-2.9-1.72-7.568-.253-10.7.053-5.1.5-10.193,1.045-15.274,1.712a183.88,183.88,0,0,0-29.51,5.978c-5.881,1.785-15.487,3.368-14.889,11.238.37,4.9,2.343,9.958,3.518,14.725q2.243,9.1,4.486,18.2c1.048,4.252,7.617,2.451,6.567-1.811Z" transform="translate(-525.126 -683.824)" fill="#b0bec5"/>
        </g>
      </g>
      <g id="Group_229" data-name="Group 229" transform="translate(69.139 94.076)">
        <g id="Group_228" data-name="Group 228">
          <path id="Path_122" data-name="Path 122" d="M567.291,703.3l24.492-5.556c4.272-.968,2.464-7.537-1.811-6.567l-24.492,5.556c-4.271.968-2.464,7.535,1.811,6.567Z" transform="translate(-563.042 -691.085)" fill="#b0bec5"/>
        </g>
      </g>
      <g id="Group_231" data-name="Group 231" transform="translate(94.195 52.575)">
        <g id="Group_230" data-name="Group 230">
          <path id="Path_123" data-name="Path 123" d="M577.446,695.644l5.99,31.527c.3,1.592,1.865,2.327,3.282,2.5,20.338,2.478,40.529-.837,60.309-5.529,5-1.185,10.416-2.088,15.265-3.815,2.061-.733,3.959-1.348,5.141-3.312,1.463-2.433.775-4.555,0-7.134-1.486-4.962-3.355-9.853-5.026-14.756q-2.3-6.762-4.606-13.527c-1.083-3.178-1.856-7.706-4.012-10.405-4.212-5.273-14.169-1.829-19.82-.965a231.293,231.293,0,0,0-55.4,15.979c-4.021,1.707-.554,7.573,3.437,5.881a225.075,225.075,0,0,1,42.809-13.334q5.457-1.116,10.965-1.96c3.045-.463,9.438-2.608,12.159-1.085,2.3,1.287,3.286,7.672,4.134,10.159l3.769,11.067q1.674,4.918,3.35,9.838c1.535,4.508,3.5,6.112-1.244,7.635-7.411,2.378-15.376,3.89-22.993,5.461-15.939,3.288-32.017,4.965-48.239,2.989l3.284,2.5-5.99-31.527c-.817-4.3-7.382-2.48-6.566,1.811Z" transform="translate(-576.782 -668.326)" fill="#b0bec5"/>
        </g>
      </g>
      <g id="Group_233" data-name="Group 233" transform="translate(173.108 0)">
        <g id="Group_232" data-name="Group 232">
          <path id="Path_124" data-name="Path 124" d="M626.8,714.995c4.287-13.419,11.31-25.537,19.725-36.777,4.159-5.556,8.654-10.859,13.253-16.052q3.411-3.851,6.9-7.63,1.931-2.1,3.873-4.18.774-.834,1.55-1.663,1.756-2.694,2.934,2.318c-2.972,3.213,1.831,8.04,4.816,4.814,4.874-5.268,4.845-15.358-4.044-16.286-3.3-.343-5.509,1.32-7.746,3.508-4.327,4.232-8.319,8.926-12.343,13.447-14.969,16.816-28.56,35-35.487,56.69-1.337,4.185,5.235,5.976,6.566,1.811Z" transform="translate(-620.057 -639.494)" fill="#b0bec5"/>
        </g>
      </g>
      <g id="Group_235" data-name="Group 235" transform="translate(12.566 33.097)">
        <g id="Group_234" data-name="Group 234">
          <path id="Path_125" data-name="Path 125" d="M537.863,718.542a395.973,395.973,0,0,0,28.19-30.165q5.911-7.049,11.483-14.369c1.836-2.4,3.722-6.315,6.076-8.168,2.527-1.991,5.74-1.214,9.132-1.123l-3.4-3.4q.027,1.255.058,2.511c.1,4.377,6.913,4.393,6.811,0q-.03-1.255-.06-2.511a3.47,3.47,0,0,0-3.4-3.407c-4.852-.129-9.829-1.26-13.479,2.449-5.274,5.356-9.291,12.522-14.043,18.379a393.645,393.645,0,0,1-32.174,34.992c-3.156,3.053,1.661,7.865,4.816,4.816Z" transform="translate(-532.017 -657.644)" fill="#b0bec5"/>
        </g>
      </g>
      <g id="Group_237" data-name="Group 237" transform="translate(111.55 72.383)">
        <g id="Group_236" data-name="Group 236">
          <path id="Path_126" data-name="Path 126" d="M589.484,682.434q-1.578,13.594-3.158,27.188c-.505,4.346,6.309,4.309,6.811,0q1.578-13.594,3.158-27.188c.505-4.346-6.309-4.309-6.811,0Z" transform="translate(-586.299 -679.188)" fill="#b0bec5"/>
        </g>
      </g>
      <g id="Group_239" data-name="Group 239" transform="translate(122.609 83.2)">
        <g id="Group_238" data-name="Group 238">
          <path id="Path_127" data-name="Path 127" d="M592.364,688.41v11.8c0,4.382,6.811,4.389,6.811,0v-11.8c0-4.382-6.811-4.389-6.811,0Z" transform="translate(-592.364 -685.12)" fill="#b0bec5"/>
        </g>
      </g>
      <g id="Group_241" data-name="Group 241" transform="translate(10.342 119.488)">
        <g id="Group_240" data-name="Group 240">
          <path id="Path_128" data-name="Path 128" d="M531.745,707.482a57.1,57.1,0,0,0-.846,13.607c.268,4.353,7.081,4.384,6.809,0a49.631,49.631,0,0,1,.6-11.8c.762-4.285-5.8-6.123-6.567-1.809Z" transform="translate(-530.798 -705.02)" fill="#b0bec5"/>
        </g>
      </g>
      <g id="Group_243" data-name="Group 243" transform="translate(20.915 124.059)">
        <g id="Group_242" data-name="Group 242">
          <path id="Path_129" data-name="Path 129" d="M536.6,710.816v7.263c0,4.382,6.809,4.389,6.809,0v-7.263c0-4.382-6.809-4.389-6.809,0Z" transform="translate(-536.596 -707.527)" fill="#b0bec5"/>
        </g>
      </g>
    </g>
    <g id="Group_50-2" data-name="Group 50" transform="translate(5736.44 1064.182)">
      <g id="Group_246" data-name="Group 246" transform="translate(26.821 32.955)">
        <g id="Group_245" data-name="Group 245">
          <path id="Path_130" data-name="Path 130" d="M995.077,725.314c-19.364-1.592-32.059,17.415-30.854,35.27,1.224,18.095,15.223,31.81,33.6,31.523,17.11-.268,37.415-13.186,39.815-31.093,2.353-17.546-8.583-38.794-28.808-36.264-4.291.538-4.345,7.354,0,6.811,16.645-2.083,25.214,16.516,21.7,30.744-3.269,13.257-19.674,22.768-32.71,22.991-13.963.239-24.917-9.462-26.612-23.248-1.8-14.628,7.491-31.272,23.866-29.926,4.367.359,4.344-6.452,0-6.809Z" transform="translate(-964.144 -724.544)" fill="#b0bec5"/>
        </g>
      </g>
      <g id="Group_248" data-name="Group 248" transform="translate(44.36 92.68)">
        <g id="Group_247" data-name="Group 247">
          <path id="Path_131" data-name="Path 131" d="M973.8,760.559c-.748,8.279,8.769,11.975,15.394,13.436a38.875,38.875,0,0,0,13.933.54c1.805-.257,17.694-3.432,17.716-2.956l1.687-2.94a97.519,97.519,0,0,1-41.454,10.4c-3.567.1-4.38,4.422-1.718,6.346,12,8.674,26.589,6.069,40.043,2.908q-1.657-2.844-3.313-5.691a64.905,64.905,0,0,1-12.925,8.7c-3.893,2.013-.454,7.892,3.437,5.881a72.3,72.3,0,0,0,14.3-9.761c2.708-2.347-.213-6.419-3.311-5.691-11.771,2.764-24.249,5.4-34.795-2.223q-.859,3.173-1.72,6.346a105.6,105.6,0,0,0,44.89-11.333,3.34,3.34,0,0,0,1.687-2.941c-.313-7.053-8.592-6.9-13.945-6.111-5.239.775-10.275,2.6-15.619,2.68-4.015.057-18.06-1.151-17.478-7.589.394-4.364-6.419-4.336-6.811,0Z" transform="translate(-973.762 -757.297)" fill="#b0bec5"/>
        </g>
      </g>
      <g id="Group_250" data-name="Group 250" transform="translate(70.909 45.133)">
        <g id="Group_249" data-name="Group 249">
          <path id="Path_132" data-name="Path 132" d="M989.926,737.633c8.888,5.514,9.043,16.727,1.145,23.164-3.4,2.77,1.444,7.562,4.816,4.814,11.428-9.314,9.79-26.217-2.524-33.859-3.734-2.316-7.157,3.572-3.437,5.881Z" transform="translate(-988.321 -731.223)" fill="#b0bec5"/>
        </g>
      </g>
      <g id="Group_252" data-name="Group 252" transform="translate(0 58.047)">
        <g id="Group_251" data-name="Group 251">
          <path id="Path_133" data-name="Path 133" d="M949.911,743.417a9.442,9.442,0,0,0,11.948,3.394c1.688-.729,2.07-3.21,1.222-4.659-1.021-1.745-2.963-1.953-4.659-1.222q.334-.189-.252.025c.29-.009.219-.005-.211.016a1.562,1.562,0,0,1-.955-.133,2.613,2.613,0,0,1-1.213-.859,3.483,3.483,0,0,0-4.657-1.222,3.439,3.439,0,0,0-1.222,4.659Z" transform="translate(-949.435 -738.305)" fill="#b0bec5"/>
        </g>
      </g>
      <g id="Group_254" data-name="Group 254" transform="translate(21.652 20.864)">
        <g id="Group_253" data-name="Group 253">
          <path id="Path_134" data-name="Path 134" d="M961.442,722.244a12.229,12.229,0,0,0,6.133,7.473,3.406,3.406,0,0,0,3.437-5.881,8.121,8.121,0,0,1-1.362-.817c.378.294-.007-.038-.161-.186-.193-.183-.372-.376-.551-.573-.162-.18-.246-.354-.055-.064-.148-.223-.292-.443-.423-.673a6.81,6.81,0,0,1-.361-.709c.23.543-.047-.237-.091-.381a3.406,3.406,0,1,0-6.566,1.811Z" transform="translate(-961.309 -717.913)" fill="#b0bec5"/>
        </g>
      </g>
      <g id="Group_256" data-name="Group 256" transform="translate(50.642 0)">
        <g id="Group_255" data-name="Group 255">
          <path id="Path_135" data-name="Path 135" d="M977.22,709.877a23.81,23.81,0,0,0,4.212,11.681,3.5,3.5,0,0,0,4.659,1.222,3.433,3.433,0,0,0,1.22-4.659,17.026,17.026,0,0,1-3.281-8.244,3.5,3.5,0,0,0-3.406-3.4c-1.7,0-3.589,1.565-3.4,3.4Z" transform="translate(-977.207 -706.472)" fill="#b0bec5"/>
        </g>
      </g>
      <g id="Group_258" data-name="Group 258" transform="translate(91.538 8.975)">
        <g id="Group_257" data-name="Group 257">
          <path id="Path_136" data-name="Path 136" d="M1006.009,723.851q2.675-3.665,5.35-7.334c1.085-1.486.252-3.8-1.222-4.659a3.481,3.481,0,0,0-4.657,1.222q-2.678,3.668-5.352,7.336c-1.085,1.486-.252,3.8,1.222,4.657a3.483,3.483,0,0,0,4.659-1.222Z" transform="translate(-999.634 -711.394)" fill="#b0bec5"/>
        </g>
      </g>
      <g id="Group_260" data-name="Group 260" transform="translate(112.604 51.748)">
        <g id="Group_259" data-name="Group 259">
          <path id="Path_137" data-name="Path 137" d="M1014.476,741.659h9.079c4.382,0,4.391-6.809,0-6.809h-9.079c-4.382,0-4.389,6.809,0,6.809Z" transform="translate(-1011.186 -734.85)" fill="#b0bec5"/>
        </g>
      </g>
      <g id="Group_262" data-name="Group 262" transform="translate(107.941 83.475)">
        <g id="Group_261" data-name="Group 261">
          <path id="Path_138" data-name="Path 138" d="M1012.037,759.075a2.313,2.313,0,0,1,.372-.014q-.892-.153-.358-.027c.586.144-.68-.379-.138-.031-.759-.489-.354-.219-.131-.04q-.495-.678-.222-.228-.306-.8-.153-.29a3.406,3.406,0,0,0,6.567-1.809,5.925,5.925,0,0,0-5.936-4.369,3.474,3.474,0,0,0-3.4,3.4c.077,1.72,1.5,3.56,3.4,3.4Z" transform="translate(-1008.629 -752.249)" fill="#b0bec5"/>
        </g>
      </g>
    </g>
    <g id="Group_51-2" data-name="Group 51" transform="translate(5404.473 879.353)">
      <g id="Group_283" data-name="Group 283" transform="translate(0)">
        <path id="Path_148" data-name="Path 148" d="M769.263,652.5a339.165,339.165,0,0,0,.76,47.074c.37,4.333,7.183,4.373,6.809,0a339.416,339.416,0,0,1-.758-47.074c.233-4.378-6.578-4.366-6.811,0Z" transform="translate(-768.781 -649.217)" fill="#b0bec5"/>
      </g>
    </g>
    <g id="Group_52-2" data-name="Group 52" transform="translate(5433.309 856.863)">
      <g id="Group_285" data-name="Group 285" transform="translate(0 0)">
        <path id="Path_149" data-name="Path 149" d="M784.594,640.173l.175,67.118c.005,2.706,3.893,4.814,5.812,2.409q1.258-1.578,2.518-3.156c2.706-3.392-2.081-8.242-4.816-4.816q-1.258,1.578-2.518,3.157l5.813,2.407-.175-67.118c-.011-4.382-6.822-4.389-6.809,0Z" transform="translate(-784.594 -636.883)" fill="#b0bec5"/>
      </g>
    </g>
    <g id="Group_53-2" data-name="Group 53" transform="translate(5471.704 830.345)">
      <g id="Group_287" data-name="Group 287" transform="translate(0 0)">
        <path id="Path_150" data-name="Path 150" d="M806.513,625.616a411.665,411.665,0,0,0,4.874,95.02c.724,4.311,7.287,2.482,6.566-1.811a404.02,404.02,0,0,1-4.632-93.209c.286-4.375-6.525-4.358-6.809,0Z" transform="translate(-805.649 -622.341)" fill="#b0bec5"/>
      </g>
    </g>
    <g id="Group_54-2" data-name="Group 54" transform="translate(5513.868 805.801)">
      <g id="Group_289" data-name="Group 289" transform="translate(0 0)">
        <path id="Path_151" data-name="Path 151" d="M828.772,612.17q.512,30.766,1.023,61.531.243,14.716.489,29.428c.12,7.283-.283,14.311,4.6,20.172,2.808,3.37,7.6-1.47,4.814-4.814-4.887-5.866-2.67-19.008-2.786-26.058q-.222-13.376-.445-26.753-.443-26.754-.888-53.506c-.073-4.378-6.884-4.391-6.811,0Z" transform="translate(-828.772 -608.882)" fill="#b0bec5"/>
      </g>
    </g>
    <g id="Group_55-2" data-name="Group 55" transform="translate(5502.599 791.437)">
      <g id="Group_291" data-name="Group 291" transform="translate(0 0)">
        <path id="Path_152" data-name="Path 152" d="M834.117,602.038a40.641,40.641,0,0,0-11.525,28.3c-.02,3.479,4.566,4.5,6.344,1.72a112.192,112.192,0,0,0,12.11-25.6q-2.847.752-5.691,1.5a23.7,23.7,0,0,1,7,18.277l2.5-3.284-6.938,1.275c-1.393.255-4.462,1.5-5.751,1.063l2.38,2.38-.12-.075H827.62l.044.339c.551,4.285,7.367,4.342,6.809,0l-.044-.339c-.54-4.2-6.915-4.513-6.809,0a4.345,4.345,0,0,0,3.815,4.533c4.5.6,10.77-1.789,15.236-2.609a3.447,3.447,0,0,0,2.5-3.282,30.532,30.532,0,0,0-9-23.091,3.443,3.443,0,0,0-5.691,1.5,104.89,104.89,0,0,1-11.421,23.972l6.344,1.718a33.477,33.477,0,0,1,9.532-23.485c3.04-3.158-1.769-7.98-4.816-4.816Z" transform="translate(-822.592 -601.004)" fill="#b0bec5"/>
      </g>
    </g>
    <g id="Group_61" data-name="Group 61" transform="translate(5975.959 598.778)">
      <g id="Group_303" data-name="Group 303" transform="translate(0 0)">
        <path id="Path_158" data-name="Path 158" d="M1120.565,783.948c12.558-16.381,34.346-23.571,54.226-18.406q.906-3.283,1.811-6.567c-38.808-7.2-76.652-37.145-85.78-76.8-3.888-16.889-2.589-38.912,12.258-50.375,7.121-5.5,16.5-6.457,20.391-15.52,3.97-9.254,2.635-19.3,7.967-28.323,13.7-23.182,45.414-26.27,64.064-7.27,1.92,1.955,6.121.622,5.813-2.407-2.174-21.331,5.184-42.962,20.872-57.815,15.87-15.024,38.77-21.213,60.118-17.163,4.283.813,6.118-5.75,1.811-6.567-23.14-4.391-47.481,1.745-65.191,17.489-17.884,15.9-26.83,40.391-24.421,64.055l5.813-2.409c-15.527-15.817-40.958-19.718-59.718-7.183a48.912,48.912,0,0,0-18.711,23.595c-1.993,5.408-2.257,10.957-3.353,16.556-1.7,8.72-7.374,10.463-14.349,14.174-17.422,9.269-23.2,30.125-21.807,48.615,1.6,21.22,12.05,40.792,26.076,56.465a118.644,118.644,0,0,0,66.338,37.45c4.249.789,6.113-5.449,1.811-6.567a59.363,59.363,0,0,0-61.918,21.536c-2.664,3.478,3.248,6.873,5.881,3.437Z" transform="translate(-1082.178 -495.352)" fill="#b0bec5"/>
      </g>
    </g>
    <g id="Group_66-2" data-name="Group 66" transform="translate(4446.637 1082.417)">
      <g id="Group_313" data-name="Group 313" transform="translate(0 0)">
        <path id="Path_163" data-name="Path 163" d="M248.092,714.146q18.961,44.913,37.924,89.83,9.483,22.457,18.963,44.915l9.13,21.625c2.757,6.532,4.987,14.528,8.953,20.458,6.359,9.513,15.392,4.592,23.753.569q22.848-11,45.7-21.99,44.065-21.207,88.134-42.41c5.255-2.529.662-10.348-4.575-7.828l-78.342,37.7-39.171,18.848c-6.269,3.018-12.958,7.378-19.585,9.424-8.4,2.6-7.675,2.241-10.017-2.708-1.8-3.8-3.282-7.775-4.916-11.645q-34.062-80.683-68.125-161.361c-2.261-5.357-10.071-.742-7.827,4.575Z" transform="translate(-247.691 -707.187)" fill="#b0bec5"/>
      </g>
    </g>
    <g id="Group_67-2" data-name="Group 67" transform="translate(4467.284 971.314)">
      <g id="Group_315" data-name="Group 315" transform="translate(0)">
        <path id="Path_164" data-name="Path 164" d="M265.738,706.74a530.145,530.145,0,0,1,111.891-51.571l-5.119-2.084q46.877,107.863,91.865,216.532c2.2,5.314,10.974,2.983,8.742-2.411q-45.436-109.75-92.781-218.7c-.757-1.741-3.386-2.648-5.119-2.082a540.628,540.628,0,0,0-114.056,52.484c-4.971,3.034-.423,10.877,4.575,7.828Z" transform="translate(-259.013 -646.259)" fill="#b0bec5"/>
      </g>
    </g>
    <g id="Group_68-2" data-name="Group 68" transform="translate(4611.602 1028.085)">
      <g id="Group_317" data-name="Group 317" transform="translate(0 0)">
        <path id="Path_165" data-name="Path 165" d="M343.8,705.9l72.107-17.517c1.931-.471,4.9-1.82,6.867-1.669,5.137.39,4.59,3.118,5.5,7.015,1.362,5.837,2.675,11.685,4,17.529q4.166,18.414,8.193,36.857,15.922,72.9,29.729,146.232c1.079,5.726,9.818,3.3,8.742-2.411Q463.268,808.9,444.947,726.4c-2.912-13.089-5.129-26.705-8.99-39.55-2.04-6.787-6.12-10.157-13.372-9.331-13.3,1.512-26.984,6.477-39.992,9.637l-41.2,10.009c-5.666,1.377-3.268,10.121,2.409,8.742Z" transform="translate(-338.156 -677.392)" fill="#b0bec5"/>
      </g>
    </g>
    <g id="Group_70-2" data-name="Group 70" transform="translate(5637.114 756.987)">
      <g id="Group_321" data-name="Group 321" transform="translate(0 0)">
        <path id="Path_167" data-name="Path 167" d="M893.324,671.02c-22.026,1.448-35.94,19.893-38.978,40.608-3.39,23.131,5.547,40.69,27.375,49.727,19.776,8.189,44.1,7.013,61.465-6.207,15.133-11.523,23.263-31.994,19.178-50.7-5.314-24.335-29.878-36.567-52.638-39.206-5.784-.671-5.737,8.4,0,9.065,20.443,2.371,43.079,14.586,44.591,37.439,1.4,21.1-13.8,39.346-33.828,44.255-18.454,4.522-47.907-1.133-55.738-20.847-8.31-20.927,3.873-53.449,28.573-55.074,5.79-.381,5.833-9.449,0-9.065Z" transform="translate(-853.648 -665.212)" fill="#b0bec5"/>
      </g>
    </g>
    <g id="Group_71-2" data-name="Group 71" transform="translate(5669.952 779.085)">
      <g id="Group_323" data-name="Group 323" transform="translate(0)">
        <path id="Path_168" data-name="Path 168" d="M905.475,686.422l1.021.1-3.915-2.245c-2.582-3.576-3.308-2.808-7.859-3.209a42.6,42.6,0,0,0-8.631-.339,18.92,18.92,0,0,0-9.178,3.39c-5.47,4.065-7,11.359-3.011,17.043,4.276,6.089,11.774,7.506,18.6,8.485,6.922.992,17.829,4.712,9.814,13.087-5.894,6.16-16.774,2.241-23.684.157-5.6-1.689-7.989,7.059-2.409,8.742,11.681,3.525,26.454,6.357,34.753-5.128,6.353-8.791,3.1-19.734-6.957-23.644-5.206-2.022-14.727-.613-18.91-4.212q-3.6-.733-.875-4.654-1.026-4.434,2.456-4.123c1.725-.8,4.634-.075,6.444.088,3.818.341,7.806,1.131,11.625.3,7.7-1.685,9.812-11.982.711-12.9-5.8-.585-5.759,8.485,0,9.065Z" transform="translate(-871.657 -677.33)" fill="#b0bec5"/>
      </g>
    </g>
    <g id="Group_72-2" data-name="Group 72" transform="translate(5607.124 926.996)">
      <g id="Group_325" data-name="Group 325">
        <path id="Path_169" data-name="Path 169" d="M882.118,683.787q.607.4-.237-.2.492.528-.159-.27a4.549,4.549,0,0,1,.292.489c-.253-.653-.3-.748-.144-.288q.167.733,0-.365a4.23,4.23,0,0,1,.015.569q.191-1.1.04-.365c-.146.463-.095.367.155-.286-1.007,2.141-.669,4.987,1.627,6.2,2.009,1.061,5.124.664,6.2-1.627a9,9,0,0,0-3.209-11.69,4.569,4.569,0,0,0-6.2,1.626,4.633,4.633,0,0,0,1.625,6.2Z" transform="translate(-879.913 -675.344)" fill="#b0bec5"/>
      </g>
    </g>
    <g id="Group_73-2" data-name="Group 73" transform="translate(5610.635 979.696)">
      <g id="Group_327" data-name="Group 327" transform="translate(0 0)">
        <path id="Path_170" data-name="Path 170" d="M881.838,708.779v7.252a4.532,4.532,0,1,0,9.065,0v-7.252a4.532,4.532,0,0,0-9.065,0Z" transform="translate(-881.838 -704.244)" fill="#b0bec5"/>
      </g>
    </g>
    <g id="Group_76" data-name="Group 76" transform="translate(4483.784 1040.746)">
      <path id="Path_179" data-name="Path 179" d="M272.447,726.557c12.927-.868,27.493,2,39.173-5.1,8.5-5.17,13.193-13.483,11.656-23.385l-5.609,5.607c9.214,3.853,19.878,7.748,29.556,3.069,7.035-3.4,11.665-10.137,10.886-18.047-.569-5.786-9.692-5.846-9.118,0,1.617,16.457-20.465,9.714-28.9,6.187-3.594-1.5-6.067,2.657-5.609,5.607,3.184,20.509-30.834,16.2-42.036,16.948-5.824.392-5.868,9.512,0,9.118Z" transform="translate(-268.063 -684.335)" fill="#b0bec5"/>
    </g>
    <g id="Group_77" data-name="Group 77" transform="translate(4502.443 1092.469)">
      <path id="Path_180" data-name="Path 180" d="M287.333,750.572c-.779-4.44,3.84-9.318,8.312-9.163,3.653.128,6.623,4.294,9.969,5.54,5.208,1.938,9.728-.436,13.835-3.638,13.784-10.748,26.585-18.677,44.146-21.74,5.77-1.007,3.324-9.8-2.423-8.791a92.647,92.647,0,0,0-29.636,10.407,88.967,88.967,0,0,0-11.751,7.927c-1.944,1.546-5.255,5.337-7.429,6.233-4.861,2.008-5.764-.934-8.724-2.75-12.564-7.712-27.437,5.015-25.09,18.4,1.01,5.77,9.8,3.324,8.791-2.423Z" transform="translate(-278.295 -712.699)" fill="#b0bec5"/>
    </g>
    <g id="Group_78" data-name="Group 78" transform="translate(4529.685 1139.474)">
      <path id="Path_181" data-name="Path 181" d="M302.217,779.244c-2.01-4.548,12.765-3.195,14.814-3.129,3.16.1,6.455-.04,9.377-1.375,4.218-1.927,4.8-4.834,7.4-8.142,3.167-4.039,4.161-1.556,8.576-.846,14.189,2.278,17.533-18.578,29.818-18.148,5.868.206,5.861-8.912,0-9.117-8.025-.281-13.162,5.177-18.241,10.651-2.4,2.582-5.6,7.495-9.519,7.7-4.9.261-7.584-4.648-12.943-1.865-4.677,2.431-4.847,8.014-9.256,10.564-5.33,3.084-11.419-.047-17.287,1.276-8.343,1.882-14.293,8.7-10.613,17.028,2.367,5.356,10.226.722,7.872-4.6Z" transform="translate(-293.233 -738.476)" fill="#b0bec5"/>
    </g>
    <g id="Group_79" data-name="Group 79" transform="translate(4577.563 1038.856)">
      <path id="Path_182" data-name="Path 182" d="M324.051,692.634l1.8-.2a4.946,4.946,0,0,0,3.224-1.337,4.631,4.631,0,0,0,1.335-3.222c-.1-2.247-2.02-4.838-4.559-4.559l-1.8.2a4.951,4.951,0,0,0-3.224,1.335,4.641,4.641,0,0,0-1.335,3.224c.1,2.247,2.02,4.838,4.559,4.559Z" transform="translate(-319.489 -683.299)" fill="#b0bec5"/>
    </g>
    <g id="Group_81" data-name="Group 81" transform="translate(4633.687 1039.039)">
      <path id="Path_184" data-name="Path 184" d="M352.453,721.443a333.755,333.755,0,0,1,31-36.095,1.141,1.141,0,0,0-1.612-1.612,337.871,337.871,0,0,0-31.359,36.556c-.875,1.178,1.1,2.316,1.968,1.151Z" transform="translate(-350.267 -683.399)" fill="#b0bec5"/>
    </g>
    <g id="Group_82" data-name="Group 82" transform="translate(4641.697 1042.378)">
      <path id="Path_185" data-name="Path 185" d="M356.595,722.581a179.407,179.407,0,0,0,26.532-35.644,1.14,1.14,0,0,0-1.968-1.151,177.046,177.046,0,0,1-26.177,35.183c-1.014,1.06.594,2.673,1.612,1.612Z" transform="translate(-354.66 -685.23)" fill="#b0bec5"/>
    </g>
    <g id="Group_83" data-name="Group 83" transform="translate(4648.586 1033.999)">
      <path id="Path_186" data-name="Path 186" d="M360.632,734.9q20.219-26.319,40.437-52.636c.892-1.163-1.087-2.3-1.969-1.151q-20.216,26.319-40.435,52.636c-.893,1.163,1.085,2.3,1.968,1.151Z" transform="translate(-358.438 -680.635)" fill="#b0bec5"/>
    </g>
    <g id="Group_84" data-name="Group 84" transform="translate(4655.838 1039.647)">
      <path id="Path_187" data-name="Path 187" d="M364.609,743.259q22.18-28.95,44.361-57.9c.892-1.163-1.087-2.3-1.969-1.151q-22.18,28.948-44.359,57.9c-.892,1.163,1.087,2.3,1.968,1.151Z" transform="translate(-362.415 -683.732)" fill="#b0bec5"/>
    </g>
    <g id="Group_85" data-name="Group 85" transform="translate(4671.618 1053.892)">
      <path id="Path_188" data-name="Path 188" d="M372.953,740.09q18.567-22.935,35.783-46.9c.857-1.192-1.12-2.332-1.968-1.151q-17.046,23.729-35.427,46.436c-.915,1.131.688,2.752,1.612,1.612Z" transform="translate(-371.068 -691.544)" fill="#b0bec5"/>
    </g>
    <g id="Group_86" data-name="Group 86" transform="translate(4683.433 1068.611)">
      <path id="Path_189" data-name="Path 189" d="M379.741,739.478,409,701.246c.89-1.165-1.089-2.3-1.969-1.151l-29.255,38.232c-.892,1.165,1.087,2.3,1.968,1.151Z" transform="translate(-377.547 -699.616)" fill="#b0bec5"/>
    </g>
    <g id="Group_87" data-name="Group 87" transform="translate(4688.865 1091.734)">
      <path id="Path_190" data-name="Path 190" d="M382.415,738.272q9.863-11.989,19.729-23.979c.924-1.123-.68-2.744-1.612-1.61L380.8,736.66c-.926,1.125.678,2.746,1.61,1.612Z" transform="translate(-380.526 -712.297)" fill="#b0bec5"/>
    </g>
    <g id="Group_88" data-name="Group 88" transform="translate(4699.18 1100.906)">
      <path id="Path_191" data-name="Path 191" d="M388.373,748.094q10.971-14.568,21.942-29.133c.883-1.172-1.1-2.31-1.969-1.151q-10.971,14.565-21.941,29.133c-.883,1.171,1.1,2.308,1.968,1.151Z" transform="translate(-386.183 -717.326)" fill="#b0bec5"/>
    </g>
    <g id="Group_89" data-name="Group 89" transform="translate(4705.027 1125.019)">
      <path id="Path_192" data-name="Path 192" d="M391.584,753.9q8.307-10.862,16.618-21.725c.89-1.163-1.089-2.3-1.969-1.149q-8.307,10.862-16.618,21.723c-.89,1.165,1.089,2.3,1.969,1.151Z" transform="translate(-389.39 -730.549)" fill="#b0bec5"/>
    </g>
    <g id="Group_90" data-name="Group 90" transform="translate(4708.997 1139.268)">
      <path id="Path_193" data-name="Path 193" d="M393.526,758.952a75.647,75.647,0,0,0,14.368-18.872c.695-1.291-1.273-2.443-1.969-1.15a73.656,73.656,0,0,1-14.01,18.41c-1.061,1.016.551,2.626,1.612,1.612Z" transform="translate(-391.567 -738.364)" fill="#b0bec5"/>
    </g>
    <g id="Group_91" data-name="Group 91" transform="translate(4714.292 1155.91)">
      <path id="Path_194" data-name="Path 194" d="M396.343,763.893q5.6-7.2,11.191-14.395c.89-1.143-.711-2.768-1.612-1.61q-5.594,7.2-11.191,14.393c-.89,1.145.713,2.77,1.612,1.612Z" transform="translate(-394.47 -747.49)" fill="#b0bec5"/>
    </g>
    <g id="Group_92" data-name="Group 92" transform="translate(4716.399 1166.574)">
      <path id="Path_195" data-name="Path 195" d="M397.559,772.192a78.2,78.2,0,0,0,12.374-17.135c.691-1.293-1.276-2.445-1.968-1.151a75.958,75.958,0,0,1-12.019,16.674c-1.01,1.065.6,2.679,1.612,1.612Z" transform="translate(-395.626 -753.338)" fill="#b0bec5"/>
    </g>
    <g id="Group_93" data-name="Group 93" transform="translate(4719.6 1184.741)">
      <path id="Path_196" data-name="Path 196" d="M399.321,776.329l10.8-11.076c1.025-1.05-.585-2.662-1.612-1.61q-5.4,5.536-10.8,11.074c-1.025,1.051.585,2.664,1.612,1.612Z" transform="translate(-397.381 -763.3)" fill="#b0bec5"/>
    </g>
    <g id="Group_94" data-name="Group 94" transform="translate(4719.416 1195.931)">
      <path id="Path_197" data-name="Path 197" d="M397.355,770.82q1.994,5.492,3.99,10.987a1.164,1.164,0,0,0,1.674.682,17.126,17.126,0,0,0,9.2-9.969c.5-1.38-1.7-1.975-2.2-.605a14.9,14.9,0,0,1-8.157,8.605l1.674.682q-1.994-5.495-3.99-10.987c-.5-1.369-2.7-.779-2.2.606Z" transform="translate(-397.28 -769.437)" fill="#b0bec5"/>
    </g>
    <g id="Group_95" data-name="Group 95" transform="translate(4724.905 1208.827)">
      <path id="Path_198" data-name="Path 198" d="M402.177,792.626q5.76-7.06,11.519-14.118c.919-1.127-.684-2.75-1.612-1.612l-11.519,14.118c-.919,1.127.684,2.75,1.612,1.612Z" transform="translate(-400.29 -776.509)" fill="#b0bec5"/>
    </g>
    <g id="Group_96" data-name="Group 96" transform="translate(4724.824 1223.258)">
      <path id="Path_199" data-name="Path 199" d="M400.459,786.19q1.972,2.719,3.944,5.436a1.159,1.159,0,0,0,1.791.232l5.438-5.485a1.141,1.141,0,0,0-1.612-1.612l-5.438,5.485q.894.115,1.789.232-1.972-2.719-3.944-5.436c-.853-1.176-2.83-.04-1.968,1.149Z" transform="translate(-400.246 -784.423)" fill="#b0bec5"/>
    </g>
    <g id="Group_98" data-name="Group 98" transform="translate(5205.631 1112.86)">
      <path id="Path_201" data-name="Path 201" d="M659.811,778.652l11.991,33.1c.494,1.369,2.7.779,2.2-.606q-6-16.554-11.992-33.1c-.494-1.369-2.7-.779-2.2.605Z" transform="translate(-659.738 -777.27)" fill="#b0bec5"/>
    </g>
    <g id="Group_99" data-name="Group 99" transform="translate(5212.255 1103.968)">
      <path id="Path_202" data-name="Path 202" d="M663.419,773.8a240.19,240.19,0,0,0,12.88,34.918c.613,1.333,2.577.175,1.969-1.149a235.838,235.838,0,0,1-12.65-34.375,1.141,1.141,0,0,0-2.2.606Z" transform="translate(-663.371 -772.393)" fill="#b0bec5"/>
    </g>
    <g id="Group_100" data-name="Group 100" transform="translate(5221.367 1087.548)">
      <path id="Path_203" data-name="Path 203" d="M668.551,765.069A71.539,71.539,0,0,1,679.191,794c.2,1.446,2.4.831,2.2-.605a73.139,73.139,0,0,0-10.87-29.479c-.786-1.234-2.759-.093-1.968,1.149Z" transform="translate(-668.367 -763.389)" fill="#b0bec5"/>
    </g>
    <g id="Group_101" data-name="Group 101" transform="translate(5228.574 1073.044)">
      <path id="Path_204" data-name="Path 204" d="M672.541,757.069a54.03,54.03,0,0,1,11.038,30.391c.069,1.461,2.349,1.468,2.279,0a56.13,56.13,0,0,0-11.35-31.542c-.872-1.158-2.85-.024-1.968,1.151Z" transform="translate(-672.319 -755.435)" fill="#b0bec5"/>
    </g>
    <g id="Group_102" data-name="Group 102" transform="translate(5235.388 1060.579)">
      <path id="Path_205" data-name="Path 205" d="M676.244,750.275A50.986,50.986,0,0,1,684.326,773c.151,1.444,2.433,1.461,2.279,0a53.47,53.47,0,0,0-8.394-23.877c-.795-1.225-2.77-.084-1.968,1.151Z" transform="translate(-676.056 -748.599)" fill="#b0bec5"/>
    </g>
    <g id="Group_103" data-name="Group 103" transform="translate(5243.226 1049.259)">
      <path id="Path_206" data-name="Path 206" d="M680.636,744.384A43.294,43.294,0,0,1,689.9,763.8c.29,1.437,2.487.828,2.2-.605a45.666,45.666,0,0,0-9.845-20.42c-.941-1.129-2.546.49-1.612,1.61Z" transform="translate(-680.354 -742.391)" fill="#b0bec5"/>
    </g>
    <g id="Group_104" data-name="Group 104" transform="translate(5250.501 1040.164)">
      <path id="Path_207" data-name="Path 207" d="M684.663,739.366a33.916,33.916,0,0,1,9.134,19.152c.186,1.435,2.467,1.453,2.279,0a36.589,36.589,0,0,0-9.8-20.764c-1.01-1.068-2.62.545-1.612,1.612Z" transform="translate(-684.344 -737.404)" fill="#b0bec5"/>
    </g>
    <g id="Group_105" data-name="Group 105" transform="translate(5257.83 1031.013)">
      <path id="Path_208" data-name="Path 208" d="M688.693,734.338a28.181,28.181,0,0,1,7.088,12.219,1.141,1.141,0,0,0,2.2-.605,30.65,30.65,0,0,0-7.675-13.226c-1.028-1.049-2.64.563-1.612,1.612Z" transform="translate(-688.363 -732.385)" fill="#b0bec5"/>
    </g>
    <g id="Group_106" data-name="Group 106" transform="translate(5258.435 1022.89)">
      <path id="Path_209" data-name="Path 209" d="M691.5,736.19c-2.46-3.851,3.627-7.048,6.713-5.361,3.508,1.92,4.533,6.47,4.686,10.137.06,1.461,2.34,1.468,2.279,0-.215-5.139-2.569-12.816-8.888-13.031-4.614-.159-9.623,4.922-6.76,9.4.788,1.233,2.762.091,1.969-1.149Z" transform="translate(-688.695 -727.931)" fill="#b0bec5"/>
    </g>
    <g id="Group_107" data-name="Group 107" transform="translate(5270.24 1002.09)">
      <path id="Path_210" data-name="Path 210" d="M695.363,718.194a131.6,131.6,0,0,1,9.947,17.783c.615,1.331,2.58.175,1.97-1.149a131.328,131.328,0,0,0-9.949-17.785c-.808-1.215-2.784-.075-1.968,1.151Z" transform="translate(-695.169 -716.525)" fill="#b0bec5"/>
    </g>
    <g id="Group_108" data-name="Group 108" transform="translate(5277.403 987.768)">
      <path id="Path_211" data-name="Path 211" d="M699.438,710.612a25.858,25.858,0,0,1,7.85,16.875c.1,1.455,2.383,1.466,2.279,0A28.335,28.335,0,0,0,701.048,709c-1.047-1.029-2.661.582-1.61,1.612Z" transform="translate(-699.097 -708.67)" fill="#b0bec5"/>
    </g>
    <g id="Group_109" data-name="Group 109" transform="translate(5284.957 978.165)">
      <path id="Path_212" data-name="Path 212" d="M703.257,704.833a34.035,34.035,0,0,0,7.947,16.795c.961,1.112,2.567-.505,1.612-1.612a31.817,31.817,0,0,1-7.362-15.788c-.241-1.443-2.438-.831-2.2.605Z" transform="translate(-703.239 -703.404)" fill="#b0bec5"/>
    </g>
    <g id="Group_131" data-name="Group 131" transform="translate(4438.852 1130.01)">
      <path id="Path_234" data-name="Path 234" d="M245.563,753.457A47.9,47.9,0,0,1,265.02,735.39c1.307-.666.155-2.633-1.151-1.968a50.122,50.122,0,0,0-20.276,18.886,1.141,1.141,0,0,0,1.969,1.149Z" transform="translate(-243.422 -733.287)" fill="#b0bec5"/>
    </g>
    <g id="Group_132" data-name="Group 132" transform="translate(4442.354 1143.052)">
      <path id="Path_235" data-name="Path 235" d="M247.328,765.952l27.437-23.611c1.112-.957-.505-2.564-1.612-1.612l-27.435,23.611c-1.114.959.5,2.564,1.61,1.612Z" transform="translate(-245.342 -740.438)" fill="#b0bec5"/>
    </g>
    <g id="Group_133" data-name="Group 133" transform="translate(4442.581 1155.559)">
      <path id="Path_236" data-name="Path 236" d="M247.1,777.028l36.332-27.539c1.154-.875.02-2.856-1.151-1.968l-36.33,27.537c-1.154.875-.02,2.856,1.149,1.969Z" transform="translate(-245.467 -747.297)" fill="#b0bec5"/>
    </g>
    <g id="Group_134" data-name="Group 134" transform="translate(4433.259 1168.689)">
      <path id="Path_237" data-name="Path 237" d="M242.018,792.739q26.576-18.039,53.15-36.076c1.207-.819.067-2.794-1.151-1.968q-26.573,18.039-53.15,36.075c-1.205.821-.067,2.8,1.151,1.969Z" transform="translate(-240.355 -754.497)" fill="#b0bec5"/>
    </g>
    <g id="Group_135" data-name="Group 135" transform="translate(4441.066 1179.367)">
      <path id="Path_238" data-name="Path 238" d="M246.376,796.438a195.353,195.353,0,0,0,50.732-34.158c1.078-1-.538-2.611-1.612-1.612a193.436,193.436,0,0,1-50.271,33.8c-1.329.618-.173,2.584,1.151,1.968Z" transform="translate(-244.636 -760.353)" fill="#b0bec5"/>
    </g>
    <g id="Group_136" data-name="Group 136" transform="translate(4458.855 1191.988)">
      <path id="Path_239" data-name="Path 239" d="M256.059,791.439l32.745-22c1.211-.813.071-2.788-1.151-1.968l-32.745,22c-1.211.813-.071,2.788,1.151,1.967Z" transform="translate(-254.392 -767.275)" fill="#b0bec5"/>
    </g>
    <g id="Group_137" data-name="Group 137" transform="translate(4462.771 1203.159)">
      <path id="Path_240" data-name="Path 240" d="M258.246,796.055a246.4,246.4,0,0,0,30.921-20.779c1.152-.906-.47-2.509-1.612-1.61a243,243,0,0,1-30.46,20.422,1.14,1.14,0,0,0,1.151,1.968Z" transform="translate(-256.539 -773.401)" fill="#b0bec5"/>
    </g>
    <g id="Group_138" data-name="Group 138" transform="translate(4478.9 1223.197)">
      <path id="Path_241" data-name="Path 241" d="M267.051,791.913a30.393,30.393,0,0,1,15.868-5.243c1.462-.062,1.47-2.343,0-2.279a32.7,32.7,0,0,0-17.019,5.553c-1.211.813-.071,2.79,1.151,1.969Z" transform="translate(-265.384 -784.389)" fill="#b0bec5"/>
    </g>
    <g id="Group_139" data-name="Group 139" transform="translate(4769.763 835.578)">
      <path id="Path_259" data-name="Path 259" d="M421.517,627.458c18.365,5.164,25.051,29.38,28.48,45.909a129.612,129.612,0,0,1-1.616,58.478,1.14,1.14,0,0,0,2.2.606,132.1,132.1,0,0,0,.191-65.8c-4.087-15.828-11.125-36.46-28.648-41.388a1.141,1.141,0,0,0-.605,2.2Z" transform="translate(-420.712 -625.211)" fill="#b0bec5"/>
    </g>
    <g id="Group_140" data-name="Group 140" transform="translate(4786.779 888.816)">
      <path id="Path_260" data-name="Path 260" d="M430.055,655.488a157.472,157.472,0,0,1,.221,40.15c-.177,1.453,2.1,1.441,2.279,0a157.475,157.475,0,0,0-.221-40.15c-.19-1.433-2.473-1.452-2.279,0Z" transform="translate(-430.044 -654.406)" fill="#b0bec5"/>
    </g>
    <g id="Group_150" data-name="Group 150" transform="translate(5279.622 1085.518)">
      <path id="Path_282" data-name="Path 282" d="M742.2,887.494q-8.8-34.377-17.608-68.754-4.182-16.329-8.363-32.659c-1.929-7.533-2.316-18.261-9.265-23.007-4.856-3.319-9.422,4.579-4.6,7.872,2.927,2,3.352,10.835,4.194,14.121q1.759,6.877,3.521,13.751,3.961,15.471,7.923,30.94,7.7,30.08,15.407,60.16c1.455,5.68,10.25,3.273,8.791-2.423Z" transform="translate(-700.314 -762.275)" fill="#b0bec5"/>
    </g>
    <g id="Group_151" data-name="Group 151" transform="translate(5284.078 1012.606)">
      <path id="Path_283" data-name="Path 283" d="M708.455,798.722q147.04-31.56,293.094-67.488c5.695-1.4,3.282-10.2-2.425-8.791q-146.033,35.925-293.092,67.488c-5.733,1.231-3.308,10.022,2.423,8.791Z" transform="translate(-702.757 -722.291)" fill="#b0bec5"/>
    </g>
    <g id="Group_152" data-name="Group 152" transform="translate(5582.768 1012.055)">
      <path id="Path_284" data-name="Path 284" d="M866.766,727.613q25.963,87.811,44.924,177.461c1.214,5.737,10.006,3.31,8.793-2.425q-18.947-89.589-44.926-177.461c-1.66-5.613-10.461-3.224-8.791,2.425Z" transform="translate(-866.556 -721.989)" fill="#b0bec5"/>
    </g>
    <g id="Group_153" data-name="Group 153" transform="translate(5299.846 1095.47)">
      <path id="Path_285" data-name="Path 285" d="M711.659,773.307a981.694,981.694,0,0,1,29.5,109.741c1.191,5.74,9.982,3.311,8.791-2.423a981.7,981.7,0,0,0-29.5-109.741c-1.84-5.542-10.648-3.167-8.793,2.423Z" transform="translate(-711.404 -767.733)" fill="#b0bec5"/>
    </g>
    <g id="Group_154" data-name="Group 154" transform="translate(5303.631 1027.989)">
      <path id="Path_286" data-name="Path 286" d="M719.2,804.408a2020.318,2020.318,0,0,0,264.047-64.651c5.571-1.769,3.191-10.575-2.425-8.793a2020.216,2020.216,0,0,1-264.046,64.653c-5.77,1.007-3.324,9.8,2.423,8.791Z" transform="translate(-713.48 -730.727)" fill="#b0bec5"/>
    </g>
    <g id="Group_155" data-name="Group 155" transform="translate(5568.06 1027.533)">
      <path id="Path_287" data-name="Path 287" d="M858.689,736.11q22.809,79.378,43.3,159.392c1.455,5.68,10.252,3.273,8.793-2.423q-20.5-80.007-43.3-159.392c-1.617-5.629-10.418-3.237-8.793,2.423Z" transform="translate(-858.49 -730.477)" fill="#b0bec5"/>
    </g>
    <g id="Group_156" data-name="Group 156" transform="translate(5594.346 1190.398)">
      <path id="Path_288" data-name="Path 288" d="M878.556,836.156a131.25,131.25,0,0,0,21.638-8.013c5.306-2.5.684-10.359-4.6-7.872a117.9,117.9,0,0,1-19.462,7.093c-5.657,1.532-3.255,10.33,2.425,8.791Z" transform="translate(-872.905 -819.791)" fill="#b0bec5"/>
    </g>
    <g id="Group_157" data-name="Group 157" transform="translate(5606.598 1201.551)">
      <path id="Path_289" data-name="Path 289" d="M885.239,842.253l24.3-7.338c5.6-1.69,3.215-10.494-2.423-8.791l-24.3,7.336c-5.6,1.692-3.215,10.494,2.423,8.793Z" transform="translate(-879.624 -825.907)" fill="#b0bec5"/>
    </g>
    <g id="Group_158" data-name="Group 158" transform="translate(5335.228 1110.312)">
      <path id="Path_290" data-name="Path 290" d="M730.916,778.678q12.437,41.158,24.876,82.312c.846,2.8,5.248,1.608,4.4-1.211q-12.44-41.155-24.876-82.312c-.848-2.8-5.248-1.608-4.4,1.211Z" transform="translate(-730.807 -775.872)" fill="#b0bec5"/>
    </g>
    <g id="Group_159" data-name="Group 159" transform="translate(5336.664 1091.008)">
      <path id="Path_291" data-name="Path 291" d="M734.426,788.033l71.15-18.285-2.8-1.592a485.773,485.773,0,0,0,23.286,86.128c1.012,2.726,5.421,1.546,4.395-1.211a485.93,485.93,0,0,1-23.284-86.13,2.308,2.308,0,0,0-2.8-1.592l-71.148,18.286c-2.839.729-1.636,5.128,1.211,4.395Z" transform="translate(-731.595 -765.286)" fill="#b0bec5"/>
    </g>
    <g id="Group_160" data-name="Group 160" transform="translate(5362.352 1178.865)">
      <path id="Path_292" data-name="Path 292" d="M748.545,836.579c22.987-3.574,45.037-11.572,67.136-18.6,2.785-.884,1.6-5.288-1.213-4.395-22.1,7.028-44.147,15.024-67.137,18.6-2.89.449-1.663,4.843,1.213,4.395Z" transform="translate(-745.682 -813.466)" fill="#b0bec5"/>
    </g>
    <g id="Group_161" data-name="Group 161" transform="translate(5416.861 1117.883)">
      <path id="Path_293" data-name="Path 293" d="M780.131,800.281q27.49-7.886,54.979-15.775l-2.8-1.592q6.836,19.844,13.669,39.691,3.135,9.095,6.265,18.191c.868,2.52,3.5,6.853,2.414,9.32-1.138,2.59-6.805,3.822-9.393,4.905q-18.4,7.708-37.406,13.833-4.781,1.543-9.6,2.982c-5.658,1.694-6.877,3.642-11.027-3.476-3.29-5.642-4.9-13.529-7.115-19.641-.992-2.737-5.4-1.556-4.4,1.213l5.93,16.366c1.094,3.022,1.873,7.382,4.054,9.916,4,4.644,10.673.954,15.37-.469a490.4,490.4,0,0,0,58.5-22.012,2.281,2.281,0,0,0,1.047-2.575Q848.664,816.432,836.7,781.7a2.321,2.321,0,0,0-2.8-1.592Q806.408,788,778.92,795.887c-2.816.808-1.617,5.208,1.211,4.395Z" transform="translate(-775.574 -780.024)" fill="#b0bec5"/>
    </g>
    <g id="Group_162" data-name="Group 162" transform="translate(5499.752 1050.705)">
      <path id="Path_294" data-name="Path 294" d="M821.236,760.493a409.661,409.661,0,0,1,16.3,45.544,2.32,2.32,0,0,0,3.348,1.362A239.213,239.213,0,0,1,896.757,790.7a2.3,2.3,0,0,0,1.592-2.8q-6.048-21.858-14.039-43.066a2.356,2.356,0,0,0-2.8-1.592,407.621,407.621,0,0,0-51.948,14.027c-2.761.945-1.575,5.35,1.211,4.4a407.378,407.378,0,0,1,51.948-14.026l-2.8-1.592q8,21.223,14.039,43.066.8-1.4,1.592-2.8a243.639,243.639,0,0,0-56.961,17.156l3.35,1.362a419.694,419.694,0,0,0-16.76-46.633c-1.149-2.69-5.077-.37-3.937,2.3Z" transform="translate(-821.03 -743.184)" fill="#b0bec5"/>
    </g>
    <g id="Group_163" data-name="Group 163" transform="translate(5502.419 1107.28)">
      <path id="Path_295" data-name="Path 295" d="M826.989,876.541c.968-3.339,5.31-7.252,8.487-7.132,1.337.051,2.693,1.138,4.119,1.224a9.489,9.489,0,0,0,6.909-2.42c4.969-4.123,4.9-10.531,4.63-16.4-.284-6.08-1.47-5.525,4.851-9.827,6.907-4.7,4.254-3.977,8.494.029a22.345,22.345,0,0,0,7.595,4.955,13.108,13.108,0,0,0,15.2-4.314c3.857-4.96,3.984-11.464,2.841-17.376-.326-1.689-1.475-3.886-1.444-5.571.268-15.19.737-3.581,2.374-3.829,1.105-.166,2.256,1.026,3.6.751,5.751-1.176,5.646-10.184,5.565-14.318a50.262,50.262,0,0,0-7.509-24.993c-1.089-1.82-4.46-1.2-4.247,1.151a11.846,11.846,0,0,1-1.041,7.923l4.4,1.212a27.623,27.623,0,0,0,.647-11.773l-4.165,1.756,8.049,11.277c1.69,2.367,5.646.093,3.937-2.3q-4.026-5.637-8.051-11.277a2.291,2.291,0,0,0-4.165,1.758,17.426,17.426,0,0,1-.649,9.347c-.781,2.874,3.4,3.928,4.4,1.212a18.823,18.823,0,0,0,1.2-9.136l-4.247,1.151a47.431,47.431,0,0,1,5.932,14.471c.352,1.658,2.987,16.184-1.466,17.143-.461.1-1.946-1.991-2.943-1.9-1.825.171-2.945-.005-4.475,1.174-3.384,2.606-2.38,6.842-1.535,10.407,1.293,5.458,5.082,18.658-3.175,21.357-4.289,1.4-10.208-.551-13.4-3.485-1.459-1.34-2.531-3.062-4.015-4.369-9.517-8.386-17.591,3.332-17.449,12.7.031,2.1.383,4.167.452,6.26a22.173,22.173,0,0,1-.228,6.333l-8.621,5.755c-2.263.178-4.344-1.762-6.915-1.158-5.077,1.193-7.03,6.521-8.33,11.014-.819,2.825,3.58,4.03,4.395,1.213Z" transform="translate(-822.494 -774.209)" fill="#b0bec5"/>
    </g>
    <g id="Group_164" data-name="Group 164" transform="translate(5537.163 1194.176)">
      <path id="Path_296" data-name="Path 296" d="M844.266,838.465l28.979-12.024c2.672-1.109,1.5-5.52-1.211-4.4l-28.979,12.024c-2.672,1.109-1.5,5.52,1.211,4.4Z" transform="translate(-841.547 -821.863)" fill="#b0bec5"/>
    </g>
    <g id="Group_165" data-name="Group 165" transform="translate(5565.479 1181.018)">
      <path id="Path_297" data-name="Path 297" d="M860.567,823.442a112.152,112.152,0,0,1,11.517-4.285c2.79-.873,1.6-5.275-1.213-4.395a122.356,122.356,0,0,0-12.606,4.745c-2.681,1.174-.363,5.1,2.3,3.935Z" transform="translate(-857.075 -814.647)" fill="#b0bec5"/>
    </g>
    <g id="Group_166" data-name="Group 166" transform="translate(5578.964 1168.721)">
      <path id="Path_298" data-name="Path 298" d="M867.309,814.138q3.654-.883,7.309-1.765c2.85-.689,1.643-5.086-1.213-4.4q-3.654.881-7.309,1.765c-2.85.687-1.643,5.086,1.213,4.4Z" transform="translate(-864.47 -807.903)" fill="#b0bec5"/>
    </g>
    <g id="Group_167" data-name="Group 167" transform="translate(5584.928 1157.365)">
      <path id="Path_299" data-name="Path 299" d="M870.627,807.457l3.623-1.282a2.338,2.338,0,0,0,1.592-2.8,2.3,2.3,0,0,0-2.8-1.592l-3.625,1.282a2.338,2.338,0,0,0-1.592,2.8,2.3,2.3,0,0,0,2.8,1.592Z" transform="translate(-867.74 -801.675)" fill="#b0bec5"/>
    </g>
    <g id="Group_168" data-name="Group 168" transform="translate(5427.11 1091.252)">
      <path id="Path_300" data-name="Path 300" d="M781.294,768.238a264.509,264.509,0,0,0,8.536,25.128c1.069,2.7,5.48,1.521,4.4-1.213a264.487,264.487,0,0,1-8.538-25.128c-.8-2.815-5.2-1.619-4.395,1.213Z" transform="translate(-781.195 -765.42)" fill="#b0bec5"/>
    </g>
    <g id="Group_169" data-name="Group 169" transform="translate(5442.073 1101.688)">
      <path id="Path_301" data-name="Path 301" d="M789.418,773.315a24.726,24.726,0,0,0,3.87,10.943c1.6,2.442,5.555.16,3.935-2.3a19.807,19.807,0,0,1-3.246-8.644c-.334-2.879-4.9-2.914-4.559,0Z" transform="translate(-789.4 -771.143)" fill="#b0bec5"/>
    </g>
    <g id="Group_170" data-name="Group 170" transform="translate(5448.265 1086.449)">
      <path id="Path_302" data-name="Path 302" d="M792.942,765.552q4.341,12.057,9.143,23.936c1.085,2.684,5.5,1.512,4.4-1.213q-4.806-11.879-9.143-23.934c-.987-2.741-5.394-1.559-4.4,1.211Z" transform="translate(-792.796 -762.786)" fill="#b0bec5"/>
    </g>
    <g id="Group_171" data-name="Group 171" transform="translate(5463.898 1091.979)">
      <path id="Path_303" data-name="Path 303" d="M801.515,768.584c1,2.775,1.88,5.644,3.033,8.359,1.072,2.527,4.128,2.626,5.139.011a2.281,2.281,0,0,0-.587-2.217l-.139-.161c-1.922-2.223-5.135,1.014-3.222,3.224l.137.161-.586-2.219-.095.246,1.592-1.592-.239.1,1.756.23c.689.481-.06-.886-.15-1.133l-.784-2.177q-.73-2.021-1.459-4.043c-.988-2.739-5.394-1.557-4.4,1.211Z" transform="translate(-801.369 -765.819)" fill="#b0bec5"/>
    </g>
    <g id="Group_172" data-name="Group 172" transform="translate(5468.148 1076.812)">
      <path id="Path_304" data-name="Path 304" d="M803.874,760.232q6.291,15.613,11.882,31.49c.968,2.748,5.376,1.566,4.4-1.213q-5.591-15.879-11.884-31.49c-1.083-2.686-5.494-1.512-4.395,1.213Z" transform="translate(-803.699 -757.501)" fill="#b0bec5"/>
    </g>
    <g id="Group_173" data-name="Group 173" transform="translate(5484.202 1087.025)">
      <path id="Path_305" data-name="Path 305" d="M812.623,765.9q1.825,5.7,3.649,11.4c.724,2.259,1.081,5.934,3.357,7.183a2.338,2.338,0,0,0,2.763-.355,2.7,2.7,0,0,0,.735-2.724,2.311,2.311,0,0,0-2.2-1.674l-.212-.015c-2.93-.186-2.918,4.373,0,4.559l.212.015-2.2-1.674.056.306.586-2.217-.2.2,2.762-.356a22.7,22.7,0,0,1-.857-3.195q-.708-2.215-1.419-4.431-1.318-4.116-2.635-8.231c-.892-2.783-5.3-1.594-4.4,1.213Z" transform="translate(-812.503 -763.102)" fill="#b0bec5"/>
    </g>
    <g id="Group_174" data-name="Group 174" transform="translate(5492.572 1085.756)">
      <path id="Path_306" data-name="Path 306" d="M817.333,765.88a64.154,64.154,0,0,1,3.629,9.719c.806,2.815,5.206,1.619,4.395-1.211a71.466,71.466,0,0,0-4.087-10.808c-1.251-2.653-5.18-.341-3.937,2.3Z" transform="translate(-817.093 -762.406)" fill="#b0bec5"/>
    </g>
    <g id="Group_175" data-name="Group 175" transform="translate(5493.948 1070.59)">
      <path id="Path_307" data-name="Path 307" d="M817.939,756.914q4.311,15.78,10.137,31.053c1.034,2.715,5.443,1.537,4.395-1.211q-5.829-15.285-10.135-31.055c-.771-2.826-5.171-1.626-4.4,1.213Z" transform="translate(-817.848 -754.089)" fill="#b0bec5"/>
    </g>
    <g id="Group_176" data-name="Group 176" transform="translate(5494.264 1127.547)">
      <path id="Path_308" data-name="Path 308" d="M820.408,789.763a16.487,16.487,0,0,0,1.01,18.567c4.3,5.547,12.189,7.484,18.027,3.149,12.052-8.946,3.886-31.54-11.641-24.977-2.693,1.138-.372,5.066,2.3,3.937,11.173-4.723,14.944,15.21,4.4,18.594-9.805,3.147-14.258-10.252-10.161-16.971,1.532-2.511-2.409-4.8-3.935-2.3Z" transform="translate(-818.022 -785.324)" fill="#b0bec5"/>
    </g>
    <g id="Group_177" data-name="Group 177" transform="translate(5528.31 1127.414)">
      <path id="Path_309" data-name="Path 309" d="M839.043,785.962c-5.248,5.644-1.169,15.407,6.895,14.406a7.679,7.679,0,0,0,6.608-6.612c.467-3.253-1.625-8.1-5.651-6.849-2.792.866-1.6,5.27,1.213,4.4-.414.129-.354-.221-.193.306a3.508,3.508,0,0,1,.173.852,3.463,3.463,0,0,1-.5,1.951,3.142,3.142,0,0,1-3.454,1.395c-3.1-.633-3.9-4.431-1.865-6.623,1.995-2.146-1.222-5.378-3.224-3.222Z" transform="translate(-836.692 -785.251)" fill="#b0bec5"/>
    </g>
    <g id="Group_178" data-name="Group 178" transform="translate(4829.593 1021.634)">
      <path id="Path_310" data-name="Path 310" d="M473.375,881.3c-19.96-4.553-15.177-31.086-12.318-45.752a167.98,167.98,0,0,1,12.311-38.356c11.672-25.218,30.221-47.95,54.842-61.413,3.636-1.987,7.62-4,11.849-4.2,8.312-.4,10.547,7.507,10.283,14.207-.321,8.067-1.858,16.206-3.406,24.109a243.312,243.312,0,0,1-13.224,44.494c-10.784,26.645-28.246,64.4-59.893,69.844-2.887.5-1.663,4.891,1.211,4.4,28.471-4.9,44.891-34.08,56.359-57.831a246.627,246.627,0,0,0,16.346-44.073c3.722-14.065,8.645-31.352,7.108-46.06-2.959-28.343-37.69-4.351-48.183,4.486-20.7,17.435-35.384,41.275-44.034,66.761-6.568,19.348-20.744,66.878,9.539,73.785,2.856.651,4.076-3.744,1.211-4.4Z" transform="translate(-453.522 -727.242)" fill="#b0bec5"/>
    </g>
    <g id="Group_179" data-name="Group 179" transform="translate(4923.457 1021.195)">
      <path id="Path_311" data-name="Path 311" d="M505.654,730.908l66.232,67.716c10.4,10.631,21.683,20.872,31.355,32.169,7.2,8.408,3.715,17.719.742,26.906-2.011,6.222-5.285,23.5-14.11,22.891-2.929-.2-2.916,4.356,0,4.559,12.626.877,16.191-18.939,18.986-27.75,2.168-6.829,5.4-14.623,2.859-21.784-2.431-6.849-9.225-12.219-14.114-17.218l-88.727-90.713c-2.055-2.1-5.277,1.123-3.224,3.224Z" transform="translate(-504.996 -727.002)" fill="#b0bec5"/>
    </g>
    <g id="Group_180" data-name="Group 180" transform="translate(4851.986 1177.603)">
      <path id="Path_312" data-name="Path 312" d="M468,819.683q72-2.043,144.038-2.35c2.932-.013,2.94-4.572,0-4.559q-72.031.309-144.038,2.351c-2.927.082-2.94,4.641,0,4.559Z" transform="translate(-465.803 -812.774)" fill="#b0bec5"/>
    </g>
    <g id="Group_181" data-name="Group 181" transform="translate(5004.254 1127.72)">
      <path id="Path_313" data-name="Path 313" d="M550.461,839.288c12.963,6.523,28.8,12.92,43.464,13.571,11.7.518,23.631-9.588,28.343-19.818,3.41-7.405,7.247-24.858-.658-30.4-5.47-3.837-15.487-4.65-21.9-6.619-8.416-2.584-16.507-5.62-24.032-10.248-2.505-1.541-4.8,2.4-2.3,3.937,8.3,5.1,17.254,8.337,26.554,11.136,5.055,1.521,11.556,2.261,16.187,4.75,6.645,3.57,5.314,11.8,4.128,18.4-2.666,14.865-17.066,26.45-32.079,23.387a141.715,141.715,0,0,1-35.4-12.032c-2.613-1.315-4.925,2.617-2.3,3.935Z" transform="translate(-549.305 -785.419)" fill="#b0bec5"/>
    </g>
    <g id="Group_182" data-name="Group 182" transform="translate(5057.087 1154.896)">
      <path id="Path_314" data-name="Path 314" d="M580.764,803.205a5.744,5.744,0,0,1-1.712,6.977c-2.274,1.856.968,5.066,3.222,3.224a10.051,10.051,0,0,0,2.887-11.411,2.358,2.358,0,0,0-2.8-1.592,2.29,2.29,0,0,0-1.592,2.8Z" transform="translate(-578.278 -800.322)" fill="#b0bec5"/>
    </g>
    <g id="Group_183" data-name="Group 183" transform="translate(5066.316 1156.587)">
      <path id="Path_315" data-name="Path 315" d="M584.926,802.9q-.777,4.582-1.55,9.165c-.485,2.868,3.908,4.1,4.4,1.211l1.548-9.163c.485-2.87-3.906-4.1-4.395-1.213Z" transform="translate(-583.339 -801.249)" fill="#b0bec5"/>
    </g>
    <g id="Group_184" data-name="Group 184" transform="translate(5048.928 1155.815)">
      <path id="Path_316" data-name="Path 316" d="M577.86,801.951q-1.868,2.705-3.733,5.412a2.3,2.3,0,0,0,.817,3.118,2.323,2.323,0,0,0,3.118-.819q1.868-2.705,3.733-5.41a2.3,2.3,0,0,0-.817-3.118,2.324,2.324,0,0,0-3.118.817Z" transform="translate(-573.804 -800.826)" fill="#b0bec5"/>
    </g>
    <g id="Group_185" data-name="Group 185" transform="translate(4880.016 1084.362)">
      <path id="Path_317" data-name="Path 317" d="M501.241,808.268c-5.538-3.129-11.18-6.249-13.1-12.648-1.949-6.507,2.631-10.564,4.774-16.25,1.955-5.181,1.893-11.962,8.921-13.075,4.781-.757,11.718,2.031,16.426,2.985q.3-2.237.607-4.477c-8.084-.671-20.3-4.42-26.512,2.487-6.01,6.68-8.974,18.547-11.118,26.988a2.306,2.306,0,0,0,1.592,2.8c13.842,2.763,21.84-20.418,21.124-31.022a2.34,2.34,0,0,0-2.279-2.279l-3.492-.175c-2.934-.146-2.925,4.413,0,4.559l3.492.175-2.279-2.279c.4,5.988-5.212,28.649-15.354,26.625q.8,1.4,1.594,2.8c1.69-6.654,3.638-16.29,8.042-21.777,6.149-7.662,16.483-5.075,25.192-4.353,2.546.21,3.12-3.968.605-4.479-6.738-1.364-16.627-5.341-23.235-1.834-5.334,2.83-5.553,8.9-7.318,13.99-2.509,7.232-8.153,11.669-5.613,19.884,2.32,7.5,9.194,11.645,15.629,15.281,2.558,1.444,4.858-2.491,2.3-3.937Z" transform="translate(-481.173 -761.641)" fill="#b0bec5"/>
    </g>
    <g id="Group_186" data-name="Group 186" transform="translate(4834.709 1029.809)">
      <path id="Path_318" data-name="Path 318" d="M456.773,734.993q7.47,9.9,14.942,19.792c1.745,2.312,5.706.042,3.935-2.3q-7.47-9.9-14.942-19.792c-1.745-2.312-5.706-.044-3.935,2.3Z" transform="translate(-456.328 -731.725)" fill="#b0bec5"/>
    </g>
    <g id="Group_187" data-name="Group 187" transform="translate(4808.921 1077.382)">
      <path id="Path_319" data-name="Path 319" d="M442.9,761.658a26.464,26.464,0,0,0,10.228,5.855c2.812.859,4.014-3.539,1.211-4.4a21.217,21.217,0,0,1-8.215-4.683c-2.161-1.979-5.392,1.238-3.224,3.224Z" transform="translate(-442.186 -757.814)" fill="#b0bec5"/>
    </g>
    <g id="Group_188" data-name="Group 188" transform="translate(4799.999 1116.452)">
      <path id="Path_320" data-name="Path 320" d="M440.139,785.732q4.535-1.015,9.07-2.033c2.861-.64,1.65-5.037-1.213-4.4q-4.535,1.018-9.07,2.033c-2.861.642-1.65,5.038,1.213,4.4Z" transform="translate(-437.293 -779.239)" fill="#b0bec5"/>
    </g>
    <g id="Group_189" data-name="Group 189" transform="translate(4806.356 1136.571)">
      <path id="Path_321" data-name="Path 321" d="M444.67,796q.911-.914,1.818-1.829c2.071-2.083-1.151-5.308-3.222-3.224l-1.82,1.829c-2.07,2.084,1.152,5.308,3.224,3.224Z" transform="translate(-440.779 -790.272)" fill="#b0bec5"/>
    </g>
    <g id="Group_190" data-name="Group 190" transform="translate(5020.782 1074.921)">
      <path id="Path_322" data-name="Path 322" d="M562.6,807.9c1.758-3.253,7.752-4.315,10.4-5.445.839-.357,1.847-.15,2.684-.6,1.763-.954,2.473-2.688,3.3-4.365,4.632-9.413,4.741-19.944,7.779-29.707.306-.985,2.017-5.939,2.949-6.41a7.385,7.385,0,0,1,6.567,1.656q4.4.468,4.26,4.612c1.959,5.487-1.174,11.747-2.35,17.183a81.248,81.248,0,0,0-1.772,13.769c-.248,6.076,2.75,17.584-4.756,20.436-2.715,1.032-1.537,5.44,1.213,4.395,12.9-4.9,7.247-23.494,9.076-34.127,1.592-9.263,8.926-24.847-2.566-31.062-3.443-1.862-9.776-2.56-13.3-.593-4.413,2.465-3.795,9.754-4.528,13.943-1.554,8.875-3.156,22.466-12.07,26.341-4.958,2.157-7.938,2.345-10.819,7.675-1.4,2.58,2.538,4.885,3.937,2.3Z" transform="translate(-558.368 -756.464)" fill="#b0bec5"/>
    </g>
    <g id="Group_191" data-name="Group 191" transform="translate(5016.848 1074.785)">
      <path id="Path_323" data-name="Path 323" d="M559.06,803.417c8.375-1.8,15.974-4.413,19.964-12.549,3.031-6.178,2.522-31.45,12.9-29.928,2.87.419,4.108-3.972,1.213-4.4-8.171-1.2-12.34,4.77-13.981,12.128-1.209,5.421-1.205,11.1-2.834,16.437-2.806,9.192-9.847,12.059-18.469,13.912-2.868.616-1.654,5.011,1.211,4.4Z" transform="translate(-556.211 -756.39)" fill="#b0bec5"/>
    </g>
    <g id="Group_192" data-name="Group 192" transform="translate(5423.897 514.573)">
      <path id="Path_324" data-name="Path 324" d="M1173.079,700.892q-4.592-14.114-9.183-28.226c-2.952-9.076-7.5-18.826-9.183-28.226-3.2-17.839,32.7-30.932,45.989-35.768,8.053-2.93,16.269-5.385,24.534-7.641,3.695-1.008,7.84-2.717,11.652-3.063,3.773-.343,10.173,2.057,12.752,5.153,1.4,1.678,2.249,5.9,3.068,8.065q10.659,28.261,20.14,56.943l1.592-2.8a210,210,0,0,0-32.958,8.35,2.306,2.306,0,0,0-1.362,3.348q19.1,30.633,38.812,60.876l3.58-2.763-29.384-28.87c-7.743-7.61-15.644-17.692-25.734-22.336-18.306-8.428-36.261,8.27-53.834,11.009-2.89.45-1.663,4.843,1.211,4.395,18.436-2.872,37.065-20.99,55.3-8.547,8.749,5.968,16.138,15.075,23.662,22.469q12.777,12.552,25.551,25.1c1.8,1.769,5.029-.538,3.579-2.763q-19.707-30.244-38.812-60.876l-1.362,3.348a210,210,0,0,1,32.96-8.348,2.3,2.3,0,0,0,1.592-2.8q-6.253-18.838-12.97-37.513-3.222-8.928-6.561-17.814c-1.692-4.5-3-10.651-6.01-14.592-4.5-5.883-11.105-4.643-17.48-3.053-11.224,2.8-22.415,5.937-33.316,9.816a165.832,165.832,0,0,0-27.752,12.535c-7.154,4.158-20.124,11.089-23.383,19.242-3.095,7.745,3.614,19.544,5.948,26.718l12.963,39.849c.9,2.777,5.308,1.588,4.4-1.213Z" transform="translate(-1148.97 -592.626)" fill="#b0bec5"/>
    </g>
    <g id="Group_193" data-name="Group 193" transform="translate(5453.869 573.036)">
      <path id="Path_325" data-name="Path 325" d="M1165.473,629.6a7.255,7.255,0,0,0,14.3-2.393,2.354,2.354,0,0,0-2.279-2.279l-5.514-.243c-2.934-.128-2.928,4.431,0,4.559l5.514.242-2.279-2.279c.5,3.793-4.455,5.049-5.349,1.18-.66-2.857-5.056-1.647-4.4,1.213Z" transform="translate(-1165.406 -624.687)" fill="#b0bec5"/>
    </g>
    <g id="Group_194" data-name="Group 194" transform="translate(5483.5 562.185)">
      <path id="Path_326" data-name="Path 326" d="M1187.146,618.836a7.69,7.69,0,0,0-5.478,7.684,6.2,6.2,0,0,0,.686,2.679c.584,1,1.8,1.207,2.843,1.386a15.578,15.578,0,0,0,6.727-.327,2.353,2.353,0,0,0,1.672-2.2,8.336,8.336,0,0,0-2.487-6.729c-2.075-2.077-5.3,1.145-3.222,3.224a4.008,4.008,0,0,1,1.151,3.5l1.674-2.2a10.772,10.772,0,0,1-5.782-.013l1.592,1.592a3.07,3.07,0,0,1,1.836-4.209c2.816-.811,1.618-5.212-1.21-4.4Z" transform="translate(-1181.656 -618.736)" fill="#b0bec5"/>
    </g>
    <g id="Group_195" data-name="Group 195" transform="translate(5509.854 552.445)">
      <path id="Path_327" data-name="Path 327" d="M1197.079,616.635c-3.948,6.224,5.037,14.632,10.879,9.945,5.792-4.646-.388-15.4-7.322-12.781-2.719,1.029-1.539,5.436,1.213,4.4,2.308-.873,5.336,3.029,3.335,4.792-1.977,1.743-5.487-1.977-4.17-4.052,1.577-2.484-2.367-4.774-3.935-2.3Z" transform="translate(-1196.107 -613.395)" fill="#b0bec5"/>
    </g>
    <g id="Group_80" data-name="Group 80" transform="translate(5278.701 865.525)">
      <path id="Path_183" data-name="Path 183" d="M153.566,601.747q.957-2.719,1.917-5.438A4.59,4.59,0,0,0,152.3,590.7a4.674,4.674,0,0,0-5.607,3.186q-.957,2.716-1.917,5.438a4.588,4.588,0,0,0,3.184,5.607,4.676,4.676,0,0,0,5.609-3.184Z" transform="translate(-144.574 -590.567)" fill="#b0bec5"/>
    </g>
    <g id="Group_122" data-name="Group 122" transform="translate(5137.824 870.196)">
      <path id="Path_225" data-name="Path 225" d="M68.957,615.519l27.245-20.2c1.165-.864.029-2.843-1.151-1.968q-13.622,10.1-27.245,20.2c-1.165.863-.029,2.843,1.151,1.968Z" transform="translate(-67.318 -593.128)" fill="#b0bec5"/>
    </g>
    <g id="Group_123" data-name="Group 123" transform="translate(5154.433 877.648)">
      <path id="Path_226" data-name="Path 226" d="M78.431,616.059l21.445-16.968c1.149-.908-.474-2.513-1.612-1.61q-10.722,8.482-21.443,16.966c-1.151.91.472,2.513,1.61,1.612Z" transform="translate(-76.427 -597.215)" fill="#b0bec5"/>
    </g>
    <g id="Group_124" data-name="Group 124" transform="translate(5178.18 887.203)">
      <path id="Path_227" data-name="Path 227" d="M91.119,611.865q5.487-3.624,10.97-7.25c1.22-.8.078-2.779-1.149-1.968q-5.487,3.624-10.97,7.25c-1.22.806-.078,2.781,1.149,1.968Z" transform="translate(-89.449 -602.455)" fill="#b0bec5"/>
    </g>
    <g id="Group_142" data-name="Group 142" transform="translate(5325.269 879.639)">
      <path id="Path_262" data-name="Path 262" d="M170.415,600.282a13.806,13.806,0,0,1,.159,18.175c-.956,1.105.651,2.724,1.612,1.612a16.151,16.151,0,0,0-.16-21.4c-.979-1.1-2.588.52-1.61,1.61Z" transform="translate(-170.111 -598.307)" fill="#b0bec5"/>
    </g>
    <g id="Group_48-2" data-name="Group 48" transform="translate(5158.054 798.951)">
      <g id="Group_160-2" data-name="Group 160" transform="translate(0 39.997)">
        <g id="Group_159-2" data-name="Group 159">
          <path id="Path_88" data-name="Path 88" d="M82.418,594.041a54.1,54.1,0,0,1-.12-15.91c.3-2.143-2.978-3.069-3.282-.906a59.708,59.708,0,0,0,.119,17.723c.336,2.159,3.618,1.242,3.284-.906Z" transform="translate(-78.412 -575.992)" fill="#b0bec5"/>
        </g>
      </g>
      <g id="Group_162-2" data-name="Group 162" transform="translate(3.202 36.749)">
        <g id="Group_161-2" data-name="Group 161">
          <path id="Path_89" data-name="Path 89" d="M81.411,577.53l4.993.906a1.752,1.752,0,0,0,2.1-1.189,1.72,1.72,0,0,0-1.189-2.1q-2.5-.451-4.995-.906a1.75,1.75,0,0,0-2.093,1.189,1.716,1.716,0,0,0,1.189,2.1Z" transform="translate(-80.168 -574.211)" fill="#b0bec5"/>
        </g>
      </g>
      <g id="Group_164-2" data-name="Group 164" transform="translate(10.333 29.6)">
        <g id="Group_163-2" data-name="Group 163">
          <path id="Path_90" data-name="Path 90" d="M87.489,579.245a9.638,9.638,0,0,1,2.792-6.038c1.534-1.566-.872-3.977-2.407-2.407a13.343,13.343,0,0,0-3.789,8.445c-.171,2.185,3.233,2.174,3.4,0Z" transform="translate(-84.079 -570.29)" fill="#b0bec5"/>
        </g>
      </g>
      <g id="Group_166-2" data-name="Group 166" transform="translate(8.823 20.324)">
        <g id="Group_165-2" data-name="Group 165">
          <path id="Path_91" data-name="Path 91" d="M83.707,568.155l6.007,6.669c1.47,1.632,3.871-.782,2.407-2.407l-6.007-6.67c-1.47-1.632-3.871.782-2.407,2.409Z" transform="translate(-83.251 -565.203)" fill="#b0bec5"/>
        </g>
      </g>
      <g id="Group_168-2" data-name="Group 168" transform="translate(10.123 9.71)">
        <g id="Group_167-2" data-name="Group 167">
          <path id="Path_92" data-name="Path 92" d="M86.838,569.56a24.014,24.014,0,0,1,10.844-6.813c2.092-.631,1.2-3.919-.906-3.284a27.434,27.434,0,0,0-12.345,7.69c-1.486,1.608.915,4.021,2.407,2.407Z" transform="translate(-83.964 -559.383)" fill="#b0bec5"/>
        </g>
      </g>
      <g id="Group_170-2" data-name="Group 170" transform="translate(24.445 8.321)">
        <g id="Group_169-2" data-name="Group 169">
          <path id="Path_93" data-name="Path 93" d="M92.3,561.524l4.223,5.339a1.714,1.714,0,0,0,2.409,0,1.747,1.747,0,0,0,0-2.407l-4.225-5.339a1.71,1.71,0,0,0-2.407,0,1.743,1.743,0,0,0,0,2.407Z" transform="translate(-91.818 -558.621)" fill="#b0bec5"/>
        </g>
      </g>
      <g id="Group_172-2" data-name="Group 172" transform="translate(30.363 11.356)">
        <g id="Group_171-2" data-name="Group 171">
          <path id="Path_94" data-name="Path 94" d="M97.585,564.767a6.853,6.853,0,0,1,6.054-.647c2.077.717,2.969-2.573.906-3.282a10.169,10.169,0,0,0-8.678.99c-1.862,1.149-.153,4.1,1.718,2.94Z" transform="translate(-95.063 -560.286)" fill="#b0bec5"/>
        </g>
      </g>
      <g id="Group_174-2" data-name="Group 174" transform="translate(40.852 1.958)">
        <g id="Group_173-2" data-name="Group 173">
          <path id="Path_95" data-name="Path 95" d="M100.815,556.777v7.263a1.7,1.7,0,0,0,3.4,0v-7.263a1.7,1.7,0,0,0-3.4,0Z" transform="translate(-100.815 -555.132)" fill="#b0bec5"/>
        </g>
      </g>
      <g id="Group_176-2" data-name="Group 176" transform="translate(44.086 0)">
        <g id="Group_175-2" data-name="Group 175">
          <path id="Path_96" data-name="Path 96" d="M104.232,557.472a25.721,25.721,0,0,1,11.7,2.433c1.969.93,3.7-2,1.718-2.939a29.553,29.553,0,0,0-13.416-2.9c-2.188.049-2.2,3.454,0,3.406Z" transform="translate(-102.589 -554.058)" fill="#b0bec5"/>
        </g>
      </g>
      <g id="Group_178-2" data-name="Group 178" transform="translate(59.011 1.504)">
        <g id="Group_177-2" data-name="Group 177">
          <path id="Path_97" data-name="Path 97" d="M110.773,556.528v8.625a1.7,1.7,0,0,0,3.406,0v-8.625a1.7,1.7,0,0,0-3.406,0Z" transform="translate(-110.773 -554.883)" fill="#b0bec5"/>
        </g>
      </g>
      <g id="Group_180-2" data-name="Group 180" transform="translate(61.298 12.31)">
        <g id="Group_179-2" data-name="Group 179">
          <path id="Path_98" data-name="Path 98" d="M112.884,563.955l5.414,2.792c1.944,1,3.667-1.933,1.718-2.94q-2.705-1.4-5.412-2.792c-1.944-1-3.669,1.933-1.72,2.94Z" transform="translate(-112.027 -560.809)" fill="#b0bec5"/>
        </g>
      </g>
      <g id="Group_182-2" data-name="Group 182" transform="translate(69.74 8.837)">
        <g id="Group_181-2" data-name="Group 181">
          <path id="Path_99" data-name="Path 99" d="M119.569,566.971a33.193,33.193,0,0,1,6.26-4.872c1.876-1.129.166-4.074-1.718-2.94a37.022,37.022,0,0,0-6.949,5.4,1.7,1.7,0,0,0,2.407,2.407Z" transform="translate(-116.657 -558.904)" fill="#b0bec5"/>
        </g>
      </g>
      <g id="Group_184-2" data-name="Group 184" transform="translate(77.885 9.362)">
        <g id="Group_183-2" data-name="Group 183">
          <path id="Path_100" data-name="Path 100" d="M121.633,562.092a32.665,32.665,0,0,1,7.726,11.672c.777,2.024,4.07,1.145,3.282-.9a36.634,36.634,0,0,0-8.6-13.175c-1.566-1.535-3.977.872-2.409,2.407Z" transform="translate(-121.124 -559.192)" fill="#b0bec5"/>
        </g>
      </g>
      <g id="Group_186-2" data-name="Group 186" transform="translate(82.246 25.456)">
        <g id="Group_185-2" data-name="Group 185">
          <path id="Path_101" data-name="Path 101" d="M126.041,573.129q1.559-.955,3.118-1.911c1.867-1.142.159-4.088-1.718-2.94l-3.12,1.911c-1.865,1.143-.157,4.088,1.72,2.94Z" transform="translate(-123.515 -568.018)" fill="#b0bec5"/>
        </g>
      </g>
      <g id="Group_188-2" data-name="Group 188" transform="translate(2.718 57.748)">
        <g id="Group_187-2" data-name="Group 187">
          <path id="Path_102" data-name="Path 102" d="M81.606,589.56a14.621,14.621,0,0,0,5.449-.48,1.7,1.7,0,0,0-.9-3.284,12.014,12.014,0,0,1-4.544.359,1.715,1.715,0,0,0-1.7,1.7,1.74,1.74,0,0,0,1.7,1.7Z" transform="translate(-79.903 -585.727)" fill="#b0bec5"/>
        </g>
      </g>
      <g id="Group_190-2" data-name="Group 190" transform="translate(7.858 58.696)">
        <g id="Group_189-2" data-name="Group 189">
          <path id="Path_103" data-name="Path 103" d="M82.722,587.891a12.82,12.82,0,0,0,6.1,11.081c1.865,1.163,3.576-1.781,1.72-2.941a9.315,9.315,0,0,1-4.417-8.14c.024-2.192-3.383-2.194-3.406,0Z" transform="translate(-82.722 -586.246)" fill="#b0bec5"/>
        </g>
      </g>
      <g id="Group_192-2" data-name="Group 192" transform="translate(8.721 69.914)">
        <g id="Group_191-2" data-name="Group 191">
          <path id="Path_104" data-name="Path 104" d="M90.279,592.844,83.746,598.6c-1.647,1.453.768,3.853,2.407,2.409l6.534-5.762c1.647-1.452-.768-3.851-2.407-2.407Z" transform="translate(-83.195 -592.398)" fill="#b0bec5"/>
        </g>
      </g>
      <g id="Group_194-2" data-name="Group 194" transform="translate(9.709 76.358)">
        <g id="Group_193-2" data-name="Group 193">
          <path id="Path_105" data-name="Path 105" d="M83.814,598.034a13.44,13.44,0,0,0,15.062,9.424c2.159-.337,1.244-3.62-.9-3.284A9.97,9.97,0,0,1,87.1,597.128c-.613-2.1-3.9-1.205-3.282.906Z" transform="translate(-83.737 -595.932)" fill="#b0bec5"/>
        </g>
      </g>
      <g id="Group_196" data-name="Group 196" transform="translate(25.262 83.175)">
        <g id="Group_195-2" data-name="Group 195">
          <path id="Path_106" data-name="Path 106" d="M95.456,604.843l1.966-2.611a1.712,1.712,0,0,0-.611-2.329,1.743,1.743,0,0,0-2.329.611q-.985,1.3-1.966,2.611a1.711,1.711,0,0,0,.611,2.328,1.744,1.744,0,0,0,2.329-.611Z" transform="translate(-92.265 -599.67)" fill="#b0bec5"/>
        </g>
      </g>
      <g id="Group_198" data-name="Group 198" transform="translate(30.076 83.037)">
        <g id="Group_197" data-name="Group 197">
          <path id="Path_107" data-name="Path 107" d="M95.672,602.834a22.384,22.384,0,0,0,8.959,3.607c2.144.359,3.065-2.923.9-3.282a20,20,0,0,1-8.144-3.266c-1.816-1.238-3.521,1.712-1.72,2.941Z" transform="translate(-94.906 -599.595)" fill="#b0bec5"/>
        </g>
      </g>
      <g id="Group_200" data-name="Group 200" transform="translate(40.852 88.217)">
        <g id="Group_199" data-name="Group 199">
          <path id="Path_108" data-name="Path 108" d="M100.815,604.079v5.449a1.7,1.7,0,0,0,3.4,0v-5.449a1.7,1.7,0,0,0-3.4,0Z" transform="translate(-100.815 -602.435)" fill="#b0bec5"/>
        </g>
      </g>
      <g id="Group_202" data-name="Group 202" transform="translate(44.096 91.997)">
        <g id="Group_201" data-name="Group 201">
          <path id="Path_109" data-name="Path 109" d="M104.237,611.262a38.793,38.793,0,0,0,15.234-3.64c1.986-.919.259-3.855-1.72-2.94a34.47,34.47,0,0,1-13.514,3.175c-2.186.069-2.2,3.474,0,3.4Z" transform="translate(-102.594 -604.508)" fill="#b0bec5"/>
        </g>
      </g>
      <g id="Group_204" data-name="Group 204" transform="translate(58.99 85.494)">
        <g id="Group_203" data-name="Group 203">
          <path id="Path_110" data-name="Path 110" d="M110.775,602.585a29.623,29.623,0,0,0,.594,6.794c.434,2.146,3.716,1.236,3.284-.906a25.512,25.512,0,0,1-.474-5.888c.067-2.192-3.337-2.19-3.4,0Z" transform="translate(-110.762 -600.942)" fill="#b0bec5"/>
        </g>
      </g>
      <g id="Group_206" data-name="Group 206" transform="translate(61.751 81.748)">
        <g id="Group_205" data-name="Group 205">
          <path id="Path_111" data-name="Path 111" d="M114.424,604.16a17.5,17.5,0,0,0,5.817-2.094c1.9-1.087.19-4.03-1.72-2.941a14.793,14.793,0,0,1-5,1.751,1.719,1.719,0,0,0-1.189,2.1,1.745,1.745,0,0,0,2.1,1.189Z" transform="translate(-112.276 -598.888)" fill="#b0bec5"/>
        </g>
      </g>
      <g id="Group_208" data-name="Group 208" transform="translate(71.261 82.248)">
        <g id="Group_207" data-name="Group 207">
          <path id="Path_112" data-name="Path 112" d="M117.582,601.317a9.154,9.154,0,0,0,7.958,5.77c2.186.149,2.177-3.255,0-3.406a5.584,5.584,0,0,1-4.674-3.27,1.765,1.765,0,0,0-2.1-1.189,1.713,1.713,0,0,0-1.189,2.1Z" transform="translate(-117.491 -599.162)" fill="#b0bec5"/>
        </g>
      </g>
      <g id="Group_210" data-name="Group 210" transform="translate(78.542 74.714)">
        <g id="Group_209" data-name="Group 209">
          <path id="Path_113" data-name="Path 113" d="M124.431,608.713a56.88,56.88,0,0,0,9.479-11.178c1.2-1.844-1.749-3.552-2.94-1.72a53.4,53.4,0,0,1-8.946,10.489c-1.627,1.477.786,3.879,2.407,2.409Z" transform="translate(-121.484 -595.03)" fill="#b0bec5"/>
        </g>
      </g>
      <g id="Group_212" data-name="Group 212" transform="translate(84.721 67.324)">
        <g id="Group_211" data-name="Group 211">
          <path id="Path_114" data-name="Path 114" d="M124.961,593.135a5.789,5.789,0,0,0,6.707,3.6c2.137-.481,1.233-3.764-.906-3.284a2.3,2.3,0,0,1-2.516-1.227,1.759,1.759,0,0,0-2.1-1.189,1.716,1.716,0,0,0-1.189,2.1Z" transform="translate(-124.872 -590.978)" fill="#b0bec5"/>
        </g>
      </g>
      <g id="Group_214" data-name="Group 214" transform="translate(83.861 57.386)">
        <g id="Group_213" data-name="Group 213">
          <path id="Path_115" data-name="Path 115" d="M127.57,595.638a23.5,23.5,0,0,0,2.744-8.492c.281-2.166-3.127-2.146-3.406,0a18.954,18.954,0,0,1-2.279,6.774c-1.063,1.918,1.876,3.636,2.941,1.718Z" transform="translate(-124.401 -585.528)" fill="#b0bec5"/>
        </g>
      </g>
      <g id="Group_216" data-name="Group 216" transform="translate(87.683 53.165)">
        <g id="Group_215" data-name="Group 215">
          <path id="Path_116" data-name="Path 116" d="M128.133,588.534a21.492,21.492,0,0,0,8.08-2.188c1.966-.97.243-3.908-1.718-2.94a17.079,17.079,0,0,1-6.362,1.723c-2.174.155-2.19,3.561,0,3.4Z" transform="translate(-126.497 -583.213)" fill="#b0bec5"/>
        </g>
      </g>
      <g id="Group_218" data-name="Group 218" transform="translate(95.01 40.125)">
        <g id="Group_217" data-name="Group 217">
          <path id="Path_117" data-name="Path 117" d="M131.2,577.687a31.153,31.153,0,0,1-.636,10.917c-.511,2.13,2.772,3.038,3.284.906a33.869,33.869,0,0,0,.757-11.824c-.244-2.154-3.653-2.177-3.4,0Z" transform="translate(-130.515 -576.062)" fill="#b0bec5"/>
        </g>
      </g>
      <g id="Group_220" data-name="Group 220" transform="translate(84.023 32.794)">
        <g id="Group_219" data-name="Group 219">
          <path id="Path_118" data-name="Path 118" d="M124.536,574.168a18.846,18.846,0,0,1,.336,5.906c-.2,2.181,3.2,2.166,3.4,0a21.834,21.834,0,0,0-.456-6.813c-.474-2.137-3.758-1.233-3.284.906Z" transform="translate(-124.489 -572.042)" fill="#b0bec5"/>
        </g>
      </g>
      <g id="Group_222" data-name="Group 222" transform="translate(84.731 36.174)">
        <g id="Group_221" data-name="Group 221">
          <path id="Path_119" data-name="Path 119" d="M125.268,576.9a7.6,7.6,0,0,0,9.251,1.98c1.982-.934.255-3.87-1.718-2.941a4.237,4.237,0,0,1-5.124-1.448c-1.348-1.725-3.74.7-2.409,2.409Z" transform="translate(-124.878 -573.895)" fill="#b0bec5"/>
        </g>
      </g>
      <g id="Group_224" data-name="Group 224" transform="translate(22.095 25.239)">
        <g id="Group_223" data-name="Group 223">
          <path id="Path_120" data-name="Path 120" d="M97.563,575.981c-9.214,9.1-9.367,25.305-.507,34.507,9.251,9.606,24.2,12.608,35.756,5.334,10.531-6.627,16.563-23.99,10.31-35.374-6.4-11.658-26.417-15.577-37.8-10.133-1.975.946-.25,3.882,1.72,2.941,9.718-4.65,27.8-.968,33.137,8.911,5.671,10.492-.822,26.532-10.817,31.707-9.807,5.08-21.434,2.4-29.184-5.1-8.089-7.823-8.421-22.282-.212-30.389,1.563-1.541-.846-3.948-2.407-2.407Z" transform="translate(-90.529 -567.899)" fill="#b0bec5"/>
        </g>
      </g>
    </g>
  </g>
</svg>
