<svg xmlns="http://www.w3.org/2000/svg" width="175.98" height="178.255" viewBox="0 0 175.98 178.255">
  <g id="Group_516" data-name="Group 516" transform="translate(0)">
    <g id="Group_515" data-name="Group 515" transform="translate(0)">
      <g id="Group_9" data-name="Group 9" transform="translate(20.089)">
        <path id="Path_38" data-name="Path 38" d="M265.237,308.81a12.578,12.578,0,0,0-.085-1.933c-.75-6.139-5.936-11.277-14.609-14.469a68.953,68.953,0,0,0-22.356-3.633c-2.265-2.8-5.849-5.079-10.852-6.926-6.637-2.452-15.333-3.8-24.483-3.8-.678,0-1.357.007-2.025.021-9.9.191-19.254,1.917-26.34,4.862l-26.84,11.155c-6.342,2.637-7.411,6.606-7.449,8.874l0,0V327.9a14.788,14.788,0,0,0,8.8,13.519l68.867,30.536a14.791,14.791,0,0,0,13.963-1.062l36.606-23.414a14.786,14.786,0,0,0,6.817-12.325h0V308.8Z" transform="translate(-130.196 -278.046)" fill="#00b0bd"/>
        <path id="Path_39" data-name="Path 39" d="M225.606,292.426c-1.258-2.9-4.523-5.286-9.818-7.242-6.789-2.509-15.668-3.66-24.647-3.467-8.96.173-17.834,1.71-24.484,4.473l-26.84,11.156c-2.929,1.217-4.481,2.843-4.305,4.522.189,1.741,1.967,3.429,5.165,4.738l64.02,26.2a28.357,28.357,0,0,0,11.155,1.789,23.437,23.437,0,0,0,10.313-2.475l25.606-14.248c6.152-3.423,9.082-7.7,8.547-11.8-.487-4.059-4.418-7.787-11.316-10.326-6.4-2.355-14.629-3.448-23.4-3.32" transform="translate(-130.413 -278.196)" fill="#fff"/>
        <path id="Path_40" data-name="Path 40" d="M241,307.929c1.094-.552,1.921-1.739,1.653-2.718-.179-1.227-1.112-2.07-2.639-2.549a15.643,15.643,0,0,0-6.31-.249,21.831,21.831,0,0,0-5.682,1.4l-23.338,11.343,13.688,4.21Z" transform="translate(-133.248 -279.037)" fill="#00b0bd"/>
        <path id="Path_41" data-name="Path 41" d="M205.572,297.825a2.261,2.261,0,0,0,1.43-2.4,3.077,3.077,0,0,0-2.349-2.124A12.513,12.513,0,0,0,199,293.2a20.309,20.309,0,0,0-4.854,1.341l-22.388,9.729,11.527,3.544Z" transform="translate(-131.899 -278.656)" fill="#00b0bd"/>
        <path id="Path_42" data-name="Path 42" d="M259.592,350.3a.675.675,0,0,1-.372-1.238c1.156-.76,1.156-.76,2.2-1.467a.674.674,0,1,1,.757,1.116c-1.051.714-1.051.714-2.215,1.479a.683.683,0,0,1-.37.11" transform="translate(-135.471 -280.891)" fill="#fff"/>
        <path id="Path_43" data-name="Path 43" d="M267.847,326.568c-.025,3.3.3,6.708.045,10.163a19.922,19.922,0,0,1-.994,5.15,11.133,11.133,0,0,1-2.871,4.507l0,0a.671.671,0,0,1-.921-.975,9.71,9.71,0,0,0,2.419-4.006,18.455,18.455,0,0,0,.8-4.777c.174-3.29-.22-6.621-.276-10.064a.9.9,0,1,1,1.8-.03v.03Z" transform="translate(-135.634 -279.997)" fill="#fff"/>
        <path id="Path_44" data-name="Path 44" d="M181.736,359.842c-7.982-3.308-15.756-7.047-23.664-10.321a1.349,1.349,0,0,1,1.031-2.493l.054.024c7.854,3.649,15.443,7.706,23.225,11.322a.8.8,0,0,1-.645,1.468" transform="translate(-131.304 -280.868)" fill="#fff"/>
        <path id="Path_45" data-name="Path 45" d="M188.309,362.965a.821.821,0,0,1-.326-.068l-2.865-1.258a.81.81,0,1,1,.651-1.483l2.866,1.258a.81.81,0,0,1-.326,1.551" transform="translate(-132.427 -281.408)" fill="#fff"/>
        <rect id="Rectangle_12" data-name="Rectangle 12" width="5.284" height="5.284" transform="translate(73.455 84.677)" fill="#fff"/>
        <rect id="Rectangle_13" data-name="Rectangle 13" width="5.283" height="5.283" transform="translate(68.172 79.394)" fill="#fff"/>
        <rect id="Rectangle_14" data-name="Rectangle 14" width="5.283" height="5.283" transform="translate(78.738 79.394)" fill="#fff"/>
        <rect id="Rectangle_15" data-name="Rectangle 15" width="5.283" height="5.283" transform="translate(78.738 89.962)" fill="#fff"/>
        <rect id="Rectangle_16" data-name="Rectangle 16" width="5.284" height="5.283" transform="translate(84.022 74.111)" fill="#fff"/>
        <rect id="Rectangle_17" data-name="Rectangle 17" width="5.284" height="5.284" transform="translate(84.022 84.677)" fill="#fff"/>
        <rect id="Rectangle_18" data-name="Rectangle 18" width="5.284" height="5.283" transform="translate(73.455 89.962)" fill="#00b0bd"/>
        <rect id="Rectangle_19" data-name="Rectangle 19" width="5.283" height="5.283" transform="translate(78.738 95.245)" fill="#00b0bd"/>
        <rect id="Rectangle_20" data-name="Rectangle 20" width="5.283" height="5.283" transform="translate(68.172 95.245)" fill="#00b0bd"/>
      </g>
      <path id="Path_33" data-name="Path 33" d="M140.832,420.7c0,7.717-4.991,12.3-13.326,12.3h-8.747v13.841h-9.313V408.459h18.06C135.841,408.459,140.832,413.037,140.832,420.7Zm-9.879,0c0-2.727-1.955-4.322-5.2-4.322h-7v8.7h7C129,425.077,130.953,423.482,130.953,420.7Z" transform="translate(-108.317 -294.621)" fill="#162b37"/>
      <path id="Path_34" data-name="Path 34" d="M157.416,408.459h9.312v38.382h-9.312Z" transform="translate(-110.283 -294.621)" fill="#162b37"/>
      <path id="Path_35" data-name="Path 35" d="M208.531,446.841l-8.644-13.12-8.541,13.12h-10.8l13.634-19.654-12.451-18.728h10.393l7.769,12.142,7.821-12.142H218.1l-12.5,18.728,13.686,19.654Z" transform="translate(-111.23 -294.621)" fill="#162b37"/>
      <path id="Path_36" data-name="Path 36" d="M232.159,443.658c0-3.087,1.954-4.888,5.2-4.888,3.293,0,5.2,1.8,5.2,4.888s-1.9,4.939-5.2,4.939C234.113,448.6,232.159,446.746,232.159,443.658Z" transform="translate(-113.345 -295.863)" fill="#162b37"/>
      <path id="Path_37" data-name="Path 37" d="M290.427,435.881c0,6.9-4.683,10.96-12.709,10.96H259.041V408.459h16.876c8.027,0,12.709,3.858,12.709,10.289,0,2.83-1.595,5.4-4.373,7.358A10.5,10.5,0,0,1,290.427,435.881Zm-16.464-19.5h-5.608v7.255h5.608c2.984,0,4.784-1.389,4.784-3.653S276.946,416.381,273.962,416.381Zm6.586,18.472c0-2.573-1.8-4.065-4.836-4.065h-7.358v8.13h7.408C278.747,438.918,280.548,437.425,280.548,434.853Z" transform="translate(-114.447 -294.621)" fill="#00b0bd"/>
      <text id="creative_advertising_agency" data-name="creative advertising agency" transform="translate(0 175.255)" fill="#162b37" font-size="11" font-family="SegoeUI, Segoe UI"><tspan x="0" y="0">creative advertising agency</tspan></text>
    </g>
  </g>
</svg>
