<svg xmlns="http://www.w3.org/2000/svg" width="91" height="141.525" viewBox="0 0 91 141.525">
  <g id="Group_501" data-name="Group 501" transform="translate(-373 -1765.59)">
    <g id="Group_1" data-name="Group 1" transform="translate(381 1765.59)">
      <path id="Path_1" data-name="Path 1" d="M845.533-2667.267a27.438,27.438,0,0,0-19.276-8.2,27.407,27.407,0,0,0-19.711,7.954,27.392,27.392,0,0,0-8.263,19.568,27.609,27.609,0,0,0,9.458,20.887,19.811,19.811,0,0,1,6.874,14.88v13.928a9.668,9.668,0,0,0,9.657,9.657h3.241a9.667,9.667,0,0,0,9.656-9.657V-2612a19.668,19.668,0,0,1,6.743-14.945,27.6,27.6,0,0,0,9.588-20.916A27.44,27.44,0,0,0,845.533-2667.267Zm-19.666,33.4h-1.29a1.28,1.28,0,0,1-1.278-1.279,1.28,1.28,0,0,1,1.278-1.278,1.291,1.291,0,0,1,1.29,1.29Zm.024,11.555a1.946,1.946,0,0,1,1.944,1.944v6.61h-3.889v-6.61A1.946,1.946,0,0,1,825.891-2622.314Zm7.388,12.443v2.859H818.5v-2.859Zm-14.776,6.748h14.776v2.859H818.5Zm9.008,10.636h-3.24a5.777,5.777,0,0,1-5.452-3.888h14.144A5.777,5.777,0,0,1,827.511-2592.486Zm13.861-37.407a23.483,23.483,0,0,0-8.03,16.134h-1.618v-6.61a5.82,5.82,0,0,0-1.97-4.366c0-.008,0-.017,0-.026v-6.39a6.251,6.251,0,0,0,2.616-5.085v-3.011a7.521,7.521,0,0,0-7.513-7.513h-3.5a1.944,1.944,0,0,0-1.944,1.944,1.944,1.944,0,0,0,1.944,1.945h3.5a3.628,3.628,0,0,1,3.624,3.624v.715a5.167,5.167,0,0,0-3.906-1.782,5.173,5.173,0,0,0-5.167,5.167,5.173,5.173,0,0,0,5.167,5.167h1.29v3.779a5.839,5.839,0,0,0-5.808,5.832v6.61h-1.609a23.768,23.768,0,0,0-8.151-16.232,23.717,23.717,0,0,1-8.127-17.946,23.53,23.53,0,0,1,7.1-16.809,23.536,23.536,0,0,1,16.932-6.837,23.807,23.807,0,0,1,23.406,23.718A23.713,23.713,0,0,1,841.372-2629.894Z" transform="translate(-785.612 2688.144)" fill="#182b37"/>
      <path id="Path_2" data-name="Path 2" d="M960.214-2617.313h-.03a1.94,1.94,0,0,0-1.957,1.922,1.953,1.953,0,0,0,1.931,1.967h.053a1.935,1.935,0,0,0,1.934-1.921A1.952,1.952,0,0,0,960.214-2617.313Z" transform="translate(-919.543 2639.443)" fill="#182b37"/>
      <path id="Path_3" data-name="Path 3" d="M1008.149-2604.551a1.944,1.944,0,0,0-2.645.753,1.944,1.944,0,0,0,.753,2.644,14.284,14.284,0,0,1,7.334,12.47,1.944,1.944,0,0,0,1.944,1.944,1.944,1.944,0,0,0,1.944-1.944A18.178,18.178,0,0,0,1008.149-2604.551Z" transform="translate(-958.925 2628.962)" fill="#182b37"/>
      <path id="Path_4" data-name="Path 4" d="M958.023-2744.238a1.944,1.944,0,0,0,1.944-1.944v-5.25a1.944,1.944,0,0,0-1.944-1.944,1.944,1.944,0,0,0-1.944,1.944v5.25A1.944,1.944,0,0,0,958.023-2744.238Z" transform="translate(-917.745 2753.376)" fill="#182b37"/>
      <path id="Path_5" data-name="Path 5" d="M1166.7-2517.677h-5.249a1.944,1.944,0,0,0-1.944,1.945,1.944,1.944,0,0,0,1.944,1.944h5.249a1.944,1.944,0,0,0,1.944-1.944A1.944,1.944,0,0,0,1166.7-2517.677Z" transform="translate(-1088.082 2556.011)" fill="#182b37"/>
      <path id="Path_6" data-name="Path 6" d="M727.574-2517.677h-5.25a1.944,1.944,0,0,0-1.944,1.945,1.944,1.944,0,0,0,1.944,1.944h5.25a1.944,1.944,0,0,0,1.944-1.944A1.944,1.944,0,0,0,727.574-2517.677Z" transform="translate(-720.38 2556.011)" fill="#182b37"/>
      <path id="Path_7" data-name="Path 7" d="M1103.24-2373.264a1.944,1.944,0,0,0-2.75,0,1.945,1.945,0,0,0,0,2.749l3.712,3.712a1.942,1.942,0,0,0,1.375.57,1.941,1.941,0,0,0,1.375-.57,1.945,1.945,0,0,0,0-2.75Z" transform="translate(-1038.192 2435.563)" fill="#182b37"/>
      <path id="Path_8" data-name="Path 8" d="M793.694-2677.311a1.938,1.938,0,0,0,1.375.57,1.937,1.937,0,0,0,1.375-.57,1.943,1.943,0,0,0,0-2.749l-3.711-3.712a1.946,1.946,0,0,0-2.75,0,1.945,1.945,0,0,0,0,2.75Z" transform="translate(-778.185 2695.57)" fill="#182b37"/>
      <path id="Path_9" data-name="Path 9" d="M1104.2-2683.773l-3.711,3.711a1.945,1.945,0,0,0,0,2.75,1.938,1.938,0,0,0,1.375.569,1.938,1.938,0,0,0,1.375-.569l3.712-3.712a1.944,1.944,0,0,0,0-2.75A1.943,1.943,0,0,0,1104.2-2683.773Z" transform="translate(-1038.193 2695.571)" fill="#182b37"/>
      <path id="Path_10" data-name="Path 10" d="M793.7-2373.264l-3.711,3.711a1.945,1.945,0,0,0,0,2.75,1.941,1.941,0,0,0,1.375.57,1.941,1.941,0,0,0,1.375-.57l3.712-3.712a1.944,1.944,0,0,0,0-2.749A1.944,1.944,0,0,0,793.7-2373.264Z" transform="translate(-778.188 2435.563)" fill="#182b37"/>
    </g>
    <text id="BRANDING" transform="translate(373 1903.115)" fill="#182b37" font-size="17" font-family="SegoeUI-Bold, Segoe UI" font-weight="700"><tspan x="0" y="0">BRANDING</tspan></text>
  </g>
</svg>
