<svg xmlns="http://www.w3.org/2000/svg" width="40.726" height="40.726" viewBox="0 0 40.726 40.726">
  <g id="Group_41" data-name="Group 41" transform="translate(0 0)">
    <path id="Path_32" data-name="Path 32" d="M1288.051,305.405A4.055,4.055,0,1,1,1284,301.35,4.056,4.056,0,0,1,1288.051,305.405Z" transform="translate(-1263.463 -285.039)" fill="#162b37"/>
    <path id="Path_33" data-name="Path 33" d="M1286.933,292.68h-10.19a5.3,5.3,0,0,0-5.3,5.3v10.191a5.3,5.3,0,0,0,5.3,5.3h10.19a5.3,5.3,0,0,0,5.3-5.3V297.982A5.3,5.3,0,0,0,1286.933,292.68Zm-5.054,16.89a6.327,6.327,0,1,1,6.331-6.323A6.335,6.335,0,0,1,1281.879,309.57Zm6.7-11.573a1.51,1.51,0,1,1,1.51-1.51A1.51,1.51,0,0,1,1288.578,298Z" transform="translate(-1261.347 -282.88)" fill="#162b37"/>
    <path id="Path_34" data-name="Path 34" d="M1279.186,282.77a17.836,17.836,0,1,0,17.836,17.836A17.833,17.833,0,0,0,1279.186,282.77Zm5.234,30.655h-10.191a7.718,7.718,0,0,1-7.72-7.72V295.514a7.718,7.718,0,0,1,7.72-7.72h10.191a7.722,7.722,0,0,1,7.72,7.72v10.191A7.722,7.722,0,0,1,1284.42,313.425Z" transform="translate(-1258.834 -280.412)" fill="#162b37"/>
    <g id="Group_30" data-name="Group 30" transform="translate(0 0)">
      <path id="Path_35" data-name="Path 35" d="M1278.532,295.941a4.052,4.052,0,1,0,4.056,4.055A4.057,4.057,0,0,0,1278.532,295.941Zm0,0a4.052,4.052,0,1,0,4.056,4.055A4.057,4.057,0,0,0,1278.532,295.941Zm0,0a4.052,4.052,0,1,0,4.056,4.055A4.057,4.057,0,0,0,1278.532,295.941Zm0,0a4.052,4.052,0,1,0,4.056,4.055A4.057,4.057,0,0,0,1278.532,295.941Zm0,0a4.052,4.052,0,1,0,4.056,4.055A4.057,4.057,0,0,0,1278.532,295.941Zm0,0a4.052,4.052,0,1,0,4.056,4.055A4.057,4.057,0,0,0,1278.532,295.941Zm0,0a4.052,4.052,0,1,0,4.056,4.055A4.057,4.057,0,0,0,1278.532,295.941Zm0,0a4.052,4.052,0,1,0,4.056,4.055A4.057,4.057,0,0,0,1278.532,295.941Zm0,0a4.052,4.052,0,1,0,4.056,4.055A4.057,4.057,0,0,0,1278.532,295.941Zm0,0a4.052,4.052,0,1,0,4.056,4.055A4.057,4.057,0,0,0,1278.532,295.941Zm0,0a4.052,4.052,0,1,0,4.056,4.055A4.057,4.057,0,0,0,1278.532,295.941Zm0,0a4.052,4.052,0,1,0,4.056,4.055A4.057,4.057,0,0,0,1278.532,295.941Zm0,0a4.052,4.052,0,1,0,4.056,4.055A4.057,4.057,0,0,0,1278.532,295.941Zm0,0a4.052,4.052,0,1,0,4.056,4.055A4.057,4.057,0,0,0,1278.532,295.941Zm0,0a4.052,4.052,0,1,0,4.056,4.055A4.057,4.057,0,0,0,1278.532,295.941Zm0,0a4.052,4.052,0,1,0,4.056,4.055A4.057,4.057,0,0,0,1278.532,295.941Zm5.054-6.511H1273.4a5.3,5.3,0,0,0-5.3,5.3v10.191a5.3,5.3,0,0,0,5.3,5.3h10.191a5.3,5.3,0,0,0,5.3-5.3V294.732A5.3,5.3,0,0,0,1283.586,289.43Zm-5.054,16.89a6.327,6.327,0,1,1,6.331-6.323A6.335,6.335,0,0,1,1278.532,306.32Zm6.7-11.573a1.509,1.509,0,1,1,1.51-1.51A1.51,1.51,0,0,1,1285.231,294.747Zm-6.7,1.194a4.052,4.052,0,1,0,4.056,4.055A4.057,4.057,0,0,0,1278.532,295.941Zm0,0a4.052,4.052,0,1,0,4.056,4.055A4.057,4.057,0,0,0,1278.532,295.941Zm0,0a4.052,4.052,0,1,0,4.056,4.055A4.057,4.057,0,0,0,1278.532,295.941Zm0,0a4.052,4.052,0,1,0,4.056,4.055A4.057,4.057,0,0,0,1278.532,295.941Zm0,0a4.052,4.052,0,1,0,4.056,4.055A4.057,4.057,0,0,0,1278.532,295.941Zm0,0a4.052,4.052,0,1,0,4.056,4.055A4.057,4.057,0,0,0,1278.532,295.941Zm0,0a4.052,4.052,0,1,0,4.056,4.055A4.057,4.057,0,0,0,1278.532,295.941Zm0,0a4.052,4.052,0,1,0,4.056,4.055A4.057,4.057,0,0,0,1278.532,295.941Zm0,0a4.052,4.052,0,1,0,4.056,4.055A4.057,4.057,0,0,0,1278.532,295.941Zm0,0a4.052,4.052,0,1,0,4.056,4.055A4.057,4.057,0,0,0,1278.532,295.941Zm0,0a4.052,4.052,0,1,0,4.056,4.055A4.057,4.057,0,0,0,1278.532,295.941Zm0,0a4.052,4.052,0,1,0,4.056,4.055A4.057,4.057,0,0,0,1278.532,295.941Zm0,0a4.052,4.052,0,1,0,4.056,4.055A4.057,4.057,0,0,0,1278.532,295.941Zm0,0a4.052,4.052,0,1,0,4.056,4.055A4.057,4.057,0,0,0,1278.532,295.941Zm0,0a4.052,4.052,0,1,0,4.056,4.055A4.057,4.057,0,0,0,1278.532,295.941Zm0,0a4.052,4.052,0,1,0,4.056,4.055A4.057,4.057,0,0,0,1278.532,295.941Zm0,0a4.052,4.052,0,1,0,4.056,4.055A4.057,4.057,0,0,0,1278.532,295.941Zm0,0a4.052,4.052,0,1,0,4.056,4.055A4.057,4.057,0,0,0,1278.532,295.941Zm0,0a4.052,4.052,0,1,0,4.056,4.055A4.057,4.057,0,0,0,1278.532,295.941Zm0,0a4.052,4.052,0,1,0,4.056,4.055A4.057,4.057,0,0,0,1278.532,295.941Zm0,0a4.052,4.052,0,1,0,4.056,4.055A4.057,4.057,0,0,0,1278.532,295.941Zm0,0a4.052,4.052,0,1,0,4.056,4.055A4.057,4.057,0,0,0,1278.532,295.941Zm0,0a4.052,4.052,0,1,0,4.056,4.055A4.057,4.057,0,0,0,1278.532,295.941Zm0,0a4.052,4.052,0,1,0,4.056,4.055A4.057,4.057,0,0,0,1278.532,295.941Zm0,0a4.052,4.052,0,1,0,4.056,4.055A4.057,4.057,0,0,0,1278.532,295.941Zm0,0a4.052,4.052,0,1,0,4.056,4.055A4.057,4.057,0,0,0,1278.532,295.941Zm0,0a4.052,4.052,0,1,0,4.056,4.055A4.057,4.057,0,0,0,1278.532,295.941Zm0,0a4.052,4.052,0,1,0,4.056,4.055A4.057,4.057,0,0,0,1278.532,295.941Zm0,0a4.052,4.052,0,1,0,4.056,4.055A4.057,4.057,0,0,0,1278.532,295.941Zm0,0a4.052,4.052,0,1,0,4.056,4.055A4.057,4.057,0,0,0,1278.532,295.941Zm0,0a4.052,4.052,0,1,0,4.056,4.055A4.057,4.057,0,0,0,1278.532,295.941Zm0,0a4.052,4.052,0,1,0,4.056,4.055A4.057,4.057,0,0,0,1278.532,295.941Zm0,0a4.052,4.052,0,1,0,4.056,4.055A4.057,4.057,0,0,0,1278.532,295.941Zm5.054-6.511H1273.4a5.3,5.3,0,0,0-5.3,5.3v10.191a5.3,5.3,0,0,0,5.3,5.3h10.191a5.3,5.3,0,0,0,5.3-5.3V294.732A5.3,5.3,0,0,0,1283.586,289.43Zm-5.054,16.89a6.327,6.327,0,1,1,6.331-6.323A6.335,6.335,0,0,1,1278.532,306.32Zm6.7-11.573a1.509,1.509,0,1,1,1.51-1.51A1.51,1.51,0,0,1,1285.231,294.747Zm-6.7,1.194a4.052,4.052,0,1,0,4.056,4.055A4.057,4.057,0,0,0,1278.532,295.941Zm0,0a4.052,4.052,0,1,0,4.056,4.055A4.057,4.057,0,0,0,1278.532,295.941Zm0,0a4.052,4.052,0,1,0,4.056,4.055A4.057,4.057,0,0,0,1278.532,295.941Zm0,0a4.052,4.052,0,1,0,4.056,4.055A4.057,4.057,0,0,0,1278.532,295.941Zm0,0a4.052,4.052,0,1,0,4.056,4.055A4.057,4.057,0,0,0,1278.532,295.941Zm0,0a4.052,4.052,0,1,0,4.056,4.055A4.057,4.057,0,0,0,1278.532,295.941Zm0,0a4.052,4.052,0,1,0,4.056,4.055A4.057,4.057,0,0,0,1278.532,295.941Zm0,0a4.052,4.052,0,1,0,4.056,4.055A4.057,4.057,0,0,0,1278.532,295.941Zm0,0a4.052,4.052,0,1,0,4.056,4.055A4.057,4.057,0,0,0,1278.532,295.941Zm0,0a4.052,4.052,0,1,0,4.056,4.055A4.057,4.057,0,0,0,1278.532,295.941Zm0,0a4.052,4.052,0,1,0,4.056,4.055A4.057,4.057,0,0,0,1278.532,295.941Zm0,0a4.052,4.052,0,1,0,4.056,4.055A4.057,4.057,0,0,0,1278.532,295.941Zm0,0a4.052,4.052,0,1,0,4.056,4.055A4.057,4.057,0,0,0,1278.532,295.941Zm0,0a4.052,4.052,0,1,0,4.056,4.055A4.057,4.057,0,0,0,1278.532,295.941Zm0,0a4.052,4.052,0,1,0,4.056,4.055A4.057,4.057,0,0,0,1278.532,295.941Zm0,0a4.052,4.052,0,1,0,4.056,4.055A4.057,4.057,0,0,0,1278.532,295.941Zm0,0a4.052,4.052,0,1,0,4.056,4.055A4.057,4.057,0,0,0,1278.532,295.941Zm0,0a4.052,4.052,0,1,0,4.056,4.055A4.057,4.057,0,0,0,1278.532,295.941Zm0,0a4.052,4.052,0,1,0,4.056,4.055A4.057,4.057,0,0,0,1278.532,295.941Zm0,0a4.052,4.052,0,1,0,4.056,4.055A4.057,4.057,0,0,0,1278.532,295.941Zm0,0a4.052,4.052,0,1,0,4.056,4.055A4.057,4.057,0,0,0,1278.532,295.941Zm0,0a4.052,4.052,0,1,0,4.056,4.055A4.057,4.057,0,0,0,1278.532,295.941Zm0,0a4.052,4.052,0,1,0,4.056,4.055A4.057,4.057,0,0,0,1278.532,295.941Zm0,0a4.052,4.052,0,1,0,4.056,4.055A4.057,4.057,0,0,0,1278.532,295.941Zm0,0a4.052,4.052,0,1,0,4.056,4.055A4.057,4.057,0,0,0,1278.532,295.941Zm0,0a4.052,4.052,0,1,0,4.056,4.055A4.057,4.057,0,0,0,1278.532,295.941Zm0,0a4.052,4.052,0,1,0,4.056,4.055A4.057,4.057,0,0,0,1278.532,295.941Zm0,0a4.052,4.052,0,1,0,4.056,4.055A4.057,4.057,0,0,0,1278.532,295.941Zm0,0a4.052,4.052,0,1,0,4.056,4.055A4.057,4.057,0,0,0,1278.532,295.941Zm0,0a4.052,4.052,0,1,0,4.056,4.055A4.057,4.057,0,0,0,1278.532,295.941Zm0,0a4.052,4.052,0,1,0,4.056,4.055A4.057,4.057,0,0,0,1278.532,295.941Zm0,0a4.052,4.052,0,1,0,4.056,4.055A4.057,4.057,0,0,0,1278.532,295.941Zm0,0a4.052,4.052,0,1,0,4.056,4.055A4.057,4.057,0,0,0,1278.532,295.941Zm0,0a4.052,4.052,0,1,0,4.056,4.055A4.057,4.057,0,0,0,1278.532,295.941Zm0,0a4.052,4.052,0,1,0,4.056,4.055A4.057,4.057,0,0,0,1278.532,295.941Zm5.054-6.511H1273.4a5.3,5.3,0,0,0-5.3,5.3v10.191a5.3,5.3,0,0,0,5.3,5.3h10.191a5.3,5.3,0,0,0,5.3-5.3V294.732A5.3,5.3,0,0,0,1283.586,289.43Zm-5.054,16.89a6.327,6.327,0,1,1,6.331-6.323A6.335,6.335,0,0,1,1278.532,306.32Zm6.7-11.573a1.509,1.509,0,1,1,1.51-1.51A1.51,1.51,0,0,1,1285.231,294.747Zm-6.7,1.194a4.052,4.052,0,1,0,4.056,4.055A4.057,4.057,0,0,0,1278.532,295.941Zm0,0a4.052,4.052,0,1,0,4.056,4.055A4.057,4.057,0,0,0,1278.532,295.941Zm0,0a4.052,4.052,0,1,0,4.056,4.055A4.057,4.057,0,0,0,1278.532,295.941Zm0,0a4.052,4.052,0,1,0,4.056,4.055A4.057,4.057,0,0,0,1278.532,295.941Zm0,0a4.052,4.052,0,1,0,4.056,4.055A4.057,4.057,0,0,0,1278.532,295.941Zm0,0a4.052,4.052,0,1,0,4.056,4.055A4.057,4.057,0,0,0,1278.532,295.941Zm0,0a4.052,4.052,0,1,0,4.056,4.055A4.057,4.057,0,0,0,1278.532,295.941Zm0,0a4.052,4.052,0,1,0,4.056,4.055A4.057,4.057,0,0,0,1278.532,295.941Zm0,0a4.052,4.052,0,1,0,4.056,4.055A4.057,4.057,0,0,0,1278.532,295.941Zm0,0a4.052,4.052,0,1,0,4.056,4.055A4.057,4.057,0,0,0,1278.532,295.941Zm0,0a4.052,4.052,0,1,0,4.056,4.055A4.057,4.057,0,0,0,1278.532,295.941Zm0,0a4.052,4.052,0,1,0,4.056,4.055A4.057,4.057,0,0,0,1278.532,295.941Zm0,0a4.052,4.052,0,1,0,4.056,4.055A4.057,4.057,0,0,0,1278.532,295.941Zm0,0a4.052,4.052,0,1,0,4.056,4.055A4.057,4.057,0,0,0,1278.532,295.941Zm0,0a4.052,4.052,0,1,0,4.056,4.055A4.057,4.057,0,0,0,1278.532,295.941Zm0,0a4.052,4.052,0,1,0,4.056,4.055A4.057,4.057,0,0,0,1278.532,295.941Zm0,0a4.052,4.052,0,1,0,4.056,4.055A4.057,4.057,0,0,0,1278.532,295.941Zm0,0a4.052,4.052,0,1,0,4.056,4.055A4.057,4.057,0,0,0,1278.532,295.941Zm0,0a4.052,4.052,0,1,0,4.056,4.055A4.057,4.057,0,0,0,1278.532,295.941Zm0,0a4.052,4.052,0,1,0,4.056,4.055A4.057,4.057,0,0,0,1278.532,295.941Zm0,0a4.052,4.052,0,1,0,4.056,4.055A4.057,4.057,0,0,0,1278.532,295.941Zm0,0a4.052,4.052,0,1,0,4.056,4.055A4.057,4.057,0,0,0,1278.532,295.941Zm0,0a4.052,4.052,0,1,0,4.056,4.055A4.057,4.057,0,0,0,1278.532,295.941Zm0,0a4.052,4.052,0,1,0,4.056,4.055A4.057,4.057,0,0,0,1278.532,295.941Zm0,0a4.052,4.052,0,1,0,4.056,4.055A4.057,4.057,0,0,0,1278.532,295.941Zm0,0a4.052,4.052,0,1,0,4.056,4.055A4.057,4.057,0,0,0,1278.532,295.941Zm0,0a4.052,4.052,0,1,0,4.056,4.055A4.057,4.057,0,0,0,1278.532,295.941Zm0,0a4.052,4.052,0,1,0,4.056,4.055A4.057,4.057,0,0,0,1278.532,295.941Zm0,0a4.052,4.052,0,1,0,4.056,4.055A4.057,4.057,0,0,0,1278.532,295.941Zm5.054-6.511H1273.4a5.3,5.3,0,0,0-5.3,5.3v10.191a5.3,5.3,0,0,0,5.3,5.3h10.191a5.3,5.3,0,0,0,5.3-5.3V294.732A5.3,5.3,0,0,0,1283.586,289.43Zm-5.054,16.89a6.327,6.327,0,1,1,6.331-6.323A6.335,6.335,0,0,1,1278.532,306.32Zm6.7-11.573a1.509,1.509,0,1,1,1.51-1.51A1.51,1.51,0,0,1,1285.231,294.747Zm-6.7,1.194a4.052,4.052,0,1,0,4.056,4.055A4.057,4.057,0,0,0,1278.532,295.941Zm0,0a4.052,4.052,0,1,0,4.056,4.055A4.057,4.057,0,0,0,1278.532,295.941Zm0,0a4.052,4.052,0,1,0,4.056,4.055A4.057,4.057,0,0,0,1278.532,295.941Zm0,0a4.052,4.052,0,1,0,4.056,4.055A4.057,4.057,0,0,0,1278.532,295.941Zm0,0a4.052,4.052,0,1,0,4.056,4.055A4.057,4.057,0,0,0,1278.532,295.941Zm0,0a4.052,4.052,0,1,0,4.056,4.055A4.057,4.057,0,0,0,1278.532,295.941Zm0,0a4.052,4.052,0,1,0,4.056,4.055A4.057,4.057,0,0,0,1278.532,295.941Zm0,0a4.052,4.052,0,1,0,4.056,4.055A4.057,4.057,0,0,0,1278.532,295.941Zm0,0a4.052,4.052,0,1,0,4.056,4.055A4.057,4.057,0,0,0,1278.532,295.941Zm0,0a4.052,4.052,0,1,0,4.056,4.055A4.057,4.057,0,0,0,1278.532,295.941Zm0,0a4.052,4.052,0,1,0,4.056,4.055A4.057,4.057,0,0,0,1278.532,295.941Zm0,0a4.052,4.052,0,1,0,4.056,4.055A4.057,4.057,0,0,0,1278.532,295.941Zm0,0a4.052,4.052,0,1,0,4.056,4.055A4.057,4.057,0,0,0,1278.532,295.941Zm0,0a4.052,4.052,0,1,0,4.056,4.055A4.057,4.057,0,0,0,1278.532,295.941Zm0,0a4.052,4.052,0,1,0,4.056,4.055A4.057,4.057,0,0,0,1278.532,295.941Zm0,0a4.052,4.052,0,1,0,4.056,4.055A4.057,4.057,0,0,0,1278.532,295.941Zm0,0a4.052,4.052,0,1,0,4.056,4.055A4.057,4.057,0,0,0,1278.532,295.941Zm0,0a4.052,4.052,0,1,0,4.056,4.055A4.057,4.057,0,0,0,1278.532,295.941Zm0,0a4.052,4.052,0,1,0,4.056,4.055A4.057,4.057,0,0,0,1278.532,295.941Zm0,0a4.052,4.052,0,1,0,4.056,4.055A4.057,4.057,0,0,0,1278.532,295.941Zm0,0a4.052,4.052,0,1,0,4.056,4.055A4.057,4.057,0,0,0,1278.532,295.941Zm0,0a4.052,4.052,0,1,0,4.056,4.055A4.057,4.057,0,0,0,1278.532,295.941Zm0,0a4.052,4.052,0,1,0,4.056,4.055A4.057,4.057,0,0,0,1278.532,295.941Zm0,0a4.052,4.052,0,1,0,4.056,4.055A4.057,4.057,0,0,0,1278.532,295.941Zm0,0a4.052,4.052,0,1,0,4.056,4.055A4.057,4.057,0,0,0,1278.532,295.941Zm0,0a4.052,4.052,0,1,0,4.056,4.055A4.057,4.057,0,0,0,1278.532,295.941Zm0,0a4.052,4.052,0,1,0,4.056,4.055A4.057,4.057,0,0,0,1278.532,295.941Zm0,0a4.052,4.052,0,1,0,4.056,4.055A4.057,4.057,0,0,0,1278.532,295.941Zm0,0a4.052,4.052,0,1,0,4.056,4.055A4.057,4.057,0,0,0,1278.532,295.941Zm5.054-6.511H1273.4a5.3,5.3,0,0,0-5.3,5.3v10.191a5.3,5.3,0,0,0,5.3,5.3h10.191a5.3,5.3,0,0,0,5.3-5.3V294.732A5.3,5.3,0,0,0,1283.586,289.43Zm-5.054,16.89a6.327,6.327,0,1,1,6.331-6.323A6.335,6.335,0,0,1,1278.532,306.32Zm6.7-11.573a1.509,1.509,0,1,1,1.51-1.51A1.51,1.51,0,0,1,1285.231,294.747Zm-6.7,1.194a4.052,4.052,0,1,0,4.056,4.055A4.057,4.057,0,0,0,1278.532,295.941Zm0,0a4.052,4.052,0,1,0,4.056,4.055A4.057,4.057,0,0,0,1278.532,295.941Zm0,0a4.052,4.052,0,1,0,4.056,4.055A4.057,4.057,0,0,0,1278.532,295.941Zm0,0a4.052,4.052,0,1,0,4.056,4.055A4.057,4.057,0,0,0,1278.532,295.941Zm0,0a4.052,4.052,0,1,0,4.056,4.055A4.057,4.057,0,0,0,1278.532,295.941Zm0,0a4.052,4.052,0,1,0,4.056,4.055A4.057,4.057,0,0,0,1278.532,295.941Zm0,0a4.052,4.052,0,1,0,4.056,4.055A4.057,4.057,0,0,0,1278.532,295.941Zm0,0a4.052,4.052,0,1,0,4.056,4.055A4.057,4.057,0,0,0,1278.532,295.941Zm0,0a4.052,4.052,0,1,0,4.056,4.055A4.057,4.057,0,0,0,1278.532,295.941Zm0,0a4.052,4.052,0,1,0,4.056,4.055A4.057,4.057,0,0,0,1278.532,295.941Zm0,0a4.052,4.052,0,1,0,4.056,4.055A4.057,4.057,0,0,0,1278.532,295.941Zm0,0a4.052,4.052,0,1,0,4.056,4.055A4.057,4.057,0,0,0,1278.532,295.941Zm0,0a4.052,4.052,0,1,0,4.056,4.055A4.057,4.057,0,0,0,1278.532,295.941Zm0,0a4.052,4.052,0,1,0,4.056,4.055A4.057,4.057,0,0,0,1278.532,295.941Zm0,0a4.052,4.052,0,1,0,4.056,4.055A4.057,4.057,0,0,0,1278.532,295.941Zm0,0a4.052,4.052,0,1,0,4.056,4.055A4.057,4.057,0,0,0,1278.532,295.941Zm0,0a4.052,4.052,0,1,0,4.056,4.055A4.057,4.057,0,0,0,1278.532,295.941Zm0,0a4.052,4.052,0,1,0,4.056,4.055A4.057,4.057,0,0,0,1278.532,295.941Zm0,0a4.052,4.052,0,1,0,4.056,4.055A4.057,4.057,0,0,0,1278.532,295.941Zm0,0a4.052,4.052,0,1,0,4.056,4.055A4.057,4.057,0,0,0,1278.532,295.941Zm0,0a4.052,4.052,0,1,0,4.056,4.055A4.057,4.057,0,0,0,1278.532,295.941Zm0,0a4.052,4.052,0,1,0,4.056,4.055A4.057,4.057,0,0,0,1278.532,295.941Zm0,0a4.052,4.052,0,1,0,4.056,4.055A4.057,4.057,0,0,0,1278.532,295.941Zm0,0a4.052,4.052,0,1,0,4.056,4.055A4.057,4.057,0,0,0,1278.532,295.941Zm0,0a4.052,4.052,0,1,0,4.056,4.055A4.057,4.057,0,0,0,1278.532,295.941Zm5.054-6.511H1273.4a5.3,5.3,0,0,0-5.3,5.3v10.191a5.3,5.3,0,0,0,5.3,5.3h10.191a5.3,5.3,0,0,0,5.3-5.3V294.732A5.3,5.3,0,0,0,1283.586,289.43Zm-5.054,16.89a6.327,6.327,0,1,1,6.331-6.323A6.335,6.335,0,0,1,1278.532,306.32Zm6.7-11.573a1.509,1.509,0,1,1,1.51-1.51A1.51,1.51,0,0,1,1285.231,294.747Zm-6.7,1.194a4.052,4.052,0,1,0,4.056,4.055A4.057,4.057,0,0,0,1278.532,295.941Zm0,0a4.052,4.052,0,1,0,4.056,4.055A4.057,4.057,0,0,0,1278.532,295.941Zm0,0a4.052,4.052,0,1,0,4.056,4.055A4.057,4.057,0,0,0,1278.532,295.941Zm0,0a4.052,4.052,0,1,0,4.056,4.055A4.057,4.057,0,0,0,1278.532,295.941Zm0,0a4.052,4.052,0,1,0,4.056,4.055A4.057,4.057,0,0,0,1278.532,295.941Zm0,0a4.052,4.052,0,1,0,4.056,4.055A4.057,4.057,0,0,0,1278.532,295.941Zm0,0a4.052,4.052,0,1,0,4.056,4.055A4.057,4.057,0,0,0,1278.532,295.941Zm0,0a4.052,4.052,0,1,0,4.056,4.055A4.057,4.057,0,0,0,1278.532,295.941Zm0,0a4.052,4.052,0,1,0,4.056,4.055A4.057,4.057,0,0,0,1278.532,295.941Zm0,0a4.052,4.052,0,1,0,4.056,4.055A4.057,4.057,0,0,0,1278.532,295.941Zm0,0a4.052,4.052,0,1,0,4.056,4.055A4.057,4.057,0,0,0,1278.532,295.941Zm0,0a4.052,4.052,0,1,0,4.056,4.055A4.057,4.057,0,0,0,1278.532,295.941Zm0,0a4.052,4.052,0,1,0,4.056,4.055A4.057,4.057,0,0,0,1278.532,295.941Zm0,0a4.052,4.052,0,1,0,4.056,4.055A4.057,4.057,0,0,0,1278.532,295.941Zm0,0a4.052,4.052,0,1,0,4.056,4.055A4.057,4.057,0,0,0,1278.532,295.941Zm0,0a4.052,4.052,0,1,0,4.056,4.055A4.057,4.057,0,0,0,1278.532,295.941Zm0,0a4.052,4.052,0,1,0,4.056,4.055A4.057,4.057,0,0,0,1278.532,295.941Zm0,0a4.052,4.052,0,1,0,4.056,4.055A4.057,4.057,0,0,0,1278.532,295.941Zm0,0a4.052,4.052,0,1,0,4.056,4.055A4.057,4.057,0,0,0,1278.532,295.941Zm0,0a4.052,4.052,0,1,0,4.056,4.055A4.057,4.057,0,0,0,1278.532,295.941Zm0,0a4.052,4.052,0,1,0,4.056,4.055A4.057,4.057,0,0,0,1278.532,295.941Zm0,0a4.052,4.052,0,1,0,4.056,4.055A4.057,4.057,0,0,0,1278.532,295.941Zm0,0a4.052,4.052,0,1,0,4.056,4.055A4.057,4.057,0,0,0,1278.532,295.941Zm0,0a4.052,4.052,0,1,0,4.056,4.055A4.057,4.057,0,0,0,1278.532,295.941Zm0,0a4.052,4.052,0,1,0,4.056,4.055A4.057,4.057,0,0,0,1278.532,295.941Zm5.054-6.511H1273.4a5.3,5.3,0,0,0-5.3,5.3v10.191a5.3,5.3,0,0,0,5.3,5.3h10.191a5.3,5.3,0,0,0,5.3-5.3V294.732A5.3,5.3,0,0,0,1283.586,289.43Zm-5.054,16.89a6.327,6.327,0,1,1,6.331-6.323A6.335,6.335,0,0,1,1278.532,306.32Zm6.7-11.573a1.509,1.509,0,1,1,1.51-1.51A1.51,1.51,0,0,1,1285.231,294.747Zm-6.7,1.194a4.052,4.052,0,1,0,4.056,4.055A4.057,4.057,0,0,0,1278.532,295.941Zm0,0a4.052,4.052,0,1,0,4.056,4.055A4.057,4.057,0,0,0,1278.532,295.941Zm0,0a4.052,4.052,0,1,0,4.056,4.055A4.057,4.057,0,0,0,1278.532,295.941Zm0,0a4.052,4.052,0,1,0,4.056,4.055A4.057,4.057,0,0,0,1278.532,295.941Zm0,0a4.052,4.052,0,1,0,4.056,4.055A4.057,4.057,0,0,0,1278.532,295.941Zm0,0a4.052,4.052,0,1,0,4.056,4.055A4.057,4.057,0,0,0,1278.532,295.941Zm0,0a4.052,4.052,0,1,0,4.056,4.055A4.057,4.057,0,0,0,1278.532,295.941Zm0,0a4.052,4.052,0,1,0,4.056,4.055A4.057,4.057,0,0,0,1278.532,295.941Zm0,0a4.052,4.052,0,1,0,4.056,4.055A4.057,4.057,0,0,0,1278.532,295.941Zm0,0a4.052,4.052,0,1,0,4.056,4.055A4.057,4.057,0,0,0,1278.532,295.941Zm0,0a4.052,4.052,0,1,0,4.056,4.055A4.057,4.057,0,0,0,1278.532,295.941Zm0,0a4.052,4.052,0,1,0,4.056,4.055A4.057,4.057,0,0,0,1278.532,295.941Zm0,0a4.052,4.052,0,1,0,4.056,4.055A4.057,4.057,0,0,0,1278.532,295.941Zm0,0a4.052,4.052,0,1,0,4.056,4.055A4.057,4.057,0,0,0,1278.532,295.941Zm0,0a4.052,4.052,0,1,0,4.056,4.055A4.057,4.057,0,0,0,1278.532,295.941Zm0,0a4.052,4.052,0,1,0,4.056,4.055A4.057,4.057,0,0,0,1278.532,295.941Zm0,0a4.052,4.052,0,1,0,4.056,4.055A4.057,4.057,0,0,0,1278.532,295.941Zm0,0a4.052,4.052,0,1,0,4.056,4.055A4.057,4.057,0,0,0,1278.532,295.941Zm0,0a4.052,4.052,0,1,0,4.056,4.055A4.057,4.057,0,0,0,1278.532,295.941Zm0,0a4.052,4.052,0,1,0,4.056,4.055A4.057,4.057,0,0,0,1278.532,295.941Zm0,0a4.052,4.052,0,1,0,4.056,4.055A4.057,4.057,0,0,0,1278.532,295.941Zm5.054-6.511H1273.4a5.3,5.3,0,0,0-5.3,5.3v10.191a5.3,5.3,0,0,0,5.3,5.3h10.191a5.3,5.3,0,0,0,5.3-5.3V294.732A5.3,5.3,0,0,0,1283.586,289.43Zm-5.054,16.89a6.327,6.327,0,1,1,6.331-6.323A6.335,6.335,0,0,1,1278.532,306.32Zm6.7-11.573a1.509,1.509,0,1,1,1.51-1.51A1.51,1.51,0,0,1,1285.231,294.747Zm-6.7,1.194a4.052,4.052,0,1,0,4.056,4.055A4.057,4.057,0,0,0,1278.532,295.941Zm0,0a4.052,4.052,0,1,0,4.056,4.055A4.057,4.057,0,0,0,1278.532,295.941Zm0,0a4.052,4.052,0,1,0,4.056,4.055A4.057,4.057,0,0,0,1278.532,295.941Zm0,0a4.052,4.052,0,1,0,4.056,4.055A4.057,4.057,0,0,0,1278.532,295.941Zm0,0a4.052,4.052,0,1,0,4.056,4.055A4.057,4.057,0,0,0,1278.532,295.941Zm0,0a4.052,4.052,0,1,0,4.056,4.055A4.057,4.057,0,0,0,1278.532,295.941Zm0,0a4.052,4.052,0,1,0,4.056,4.055A4.057,4.057,0,0,0,1278.532,295.941Zm0,0a4.052,4.052,0,1,0,4.056,4.055A4.057,4.057,0,0,0,1278.532,295.941Zm0,0a4.052,4.052,0,1,0,4.056,4.055A4.057,4.057,0,0,0,1278.532,295.941Zm0,0a4.052,4.052,0,1,0,4.056,4.055A4.057,4.057,0,0,0,1278.532,295.941Zm0,0a4.052,4.052,0,1,0,4.056,4.055A4.057,4.057,0,0,0,1278.532,295.941Zm0,0a4.052,4.052,0,1,0,4.056,4.055A4.057,4.057,0,0,0,1278.532,295.941Zm0,0a4.052,4.052,0,1,0,4.056,4.055A4.057,4.057,0,0,0,1278.532,295.941Zm0,0a4.052,4.052,0,1,0,4.056,4.055A4.057,4.057,0,0,0,1278.532,295.941Zm0,0a4.052,4.052,0,1,0,4.056,4.055A4.057,4.057,0,0,0,1278.532,295.941Zm0,0a4.052,4.052,0,1,0,4.056,4.055A4.057,4.057,0,0,0,1278.532,295.941Zm0,0a4.052,4.052,0,1,0,4.056,4.055A4.057,4.057,0,0,0,1278.532,295.941Zm0,0a4.052,4.052,0,1,0,4.056,4.055A4.057,4.057,0,0,0,1278.532,295.941Zm0,0a4.052,4.052,0,1,0,4.056,4.055A4.057,4.057,0,0,0,1278.532,295.941Zm0,0a4.052,4.052,0,1,0,4.056,4.055A4.057,4.057,0,0,0,1278.532,295.941Zm0,0a4.052,4.052,0,1,0,4.056,4.055A4.057,4.057,0,0,0,1278.532,295.941Zm5.054-6.511H1273.4a5.3,5.3,0,0,0-5.3,5.3v10.191a5.3,5.3,0,0,0,5.3,5.3h10.191a5.3,5.3,0,0,0,5.3-5.3V294.732A5.3,5.3,0,0,0,1283.586,289.43Zm-5.054,16.89a6.327,6.327,0,1,1,6.331-6.323A6.335,6.335,0,0,1,1278.532,306.32Zm6.7-11.573a1.509,1.509,0,1,1,1.51-1.51A1.51,1.51,0,0,1,1285.231,294.747Zm-6.7,1.194a4.052,4.052,0,1,0,4.056,4.055A4.057,4.057,0,0,0,1278.532,295.941Zm0,0a4.052,4.052,0,1,0,4.056,4.055A4.057,4.057,0,0,0,1278.532,295.941Zm0,0a4.052,4.052,0,1,0,4.056,4.055A4.057,4.057,0,0,0,1278.532,295.941Zm0,0a4.052,4.052,0,1,0,4.056,4.055A4.057,4.057,0,0,0,1278.532,295.941Zm0,0a4.052,4.052,0,1,0,4.056,4.055A4.057,4.057,0,0,0,1278.532,295.941Zm0,0a4.052,4.052,0,1,0,4.056,4.055A4.057,4.057,0,0,0,1278.532,295.941Zm0,0a4.052,4.052,0,1,0,4.056,4.055A4.057,4.057,0,0,0,1278.532,295.941Zm0,0a4.052,4.052,0,1,0,4.056,4.055A4.057,4.057,0,0,0,1278.532,295.941Zm0,0a4.052,4.052,0,1,0,4.056,4.055A4.057,4.057,0,0,0,1278.532,295.941Zm0,0a4.052,4.052,0,1,0,4.056,4.055A4.057,4.057,0,0,0,1278.532,295.941Zm0,0a4.052,4.052,0,1,0,4.056,4.055A4.057,4.057,0,0,0,1278.532,295.941Zm0,0a4.052,4.052,0,1,0,4.056,4.055A4.057,4.057,0,0,0,1278.532,295.941Zm0,0a4.052,4.052,0,1,0,4.056,4.055A4.057,4.057,0,0,0,1278.532,295.941Zm0,0a4.052,4.052,0,1,0,4.056,4.055A4.057,4.057,0,0,0,1278.532,295.941Zm0,0a4.052,4.052,0,1,0,4.056,4.055A4.057,4.057,0,0,0,1278.532,295.941Zm0,0a4.052,4.052,0,1,0,4.056,4.055A4.057,4.057,0,0,0,1278.532,295.941Zm0,0a4.052,4.052,0,1,0,4.056,4.055A4.057,4.057,0,0,0,1278.532,295.941Zm5.054-6.511H1273.4a5.3,5.3,0,0,0-5.3,5.3v10.191a5.3,5.3,0,0,0,5.3,5.3h10.191a5.3,5.3,0,0,0,5.3-5.3V294.732A5.3,5.3,0,0,0,1283.586,289.43Zm-5.054,16.89a6.327,6.327,0,1,1,6.331-6.323A6.335,6.335,0,0,1,1278.532,306.32Zm6.7-11.573a1.509,1.509,0,1,1,1.51-1.51A1.51,1.51,0,0,1,1285.231,294.747Zm-6.7,1.194a4.052,4.052,0,1,0,4.056,4.055A4.057,4.057,0,0,0,1278.532,295.941Zm0,0a4.052,4.052,0,1,0,4.056,4.055A4.057,4.057,0,0,0,1278.532,295.941Zm0,0a4.052,4.052,0,1,0,4.056,4.055A4.057,4.057,0,0,0,1278.532,295.941Zm0,0a4.052,4.052,0,1,0,4.056,4.055A4.057,4.057,0,0,0,1278.532,295.941Zm0,0a4.052,4.052,0,1,0,4.056,4.055A4.057,4.057,0,0,0,1278.532,295.941Zm0,0a4.052,4.052,0,1,0,4.056,4.055A4.057,4.057,0,0,0,1278.532,295.941Zm0,0a4.052,4.052,0,1,0,4.056,4.055A4.057,4.057,0,0,0,1278.532,295.941Zm0,0a4.052,4.052,0,1,0,4.056,4.055A4.057,4.057,0,0,0,1278.532,295.941Zm0,0a4.052,4.052,0,1,0,4.056,4.055A4.057,4.057,0,0,0,1278.532,295.941Zm0,0a4.052,4.052,0,1,0,4.056,4.055A4.057,4.057,0,0,0,1278.532,295.941Zm0,0a4.052,4.052,0,1,0,4.056,4.055A4.057,4.057,0,0,0,1278.532,295.941Zm0,0a4.052,4.052,0,1,0,4.056,4.055A4.057,4.057,0,0,0,1278.532,295.941Zm0,0a4.052,4.052,0,1,0,4.056,4.055A4.057,4.057,0,0,0,1278.532,295.941Zm0,0a4.052,4.052,0,1,0,4.056,4.055A4.057,4.057,0,0,0,1278.532,295.941Zm0,0a4.052,4.052,0,1,0,4.056,4.055A4.057,4.057,0,0,0,1278.532,295.941Zm0,0a4.052,4.052,0,1,0,4.056,4.055A4.057,4.057,0,0,0,1278.532,295.941Zm0,0a4.052,4.052,0,1,0,4.056,4.055A4.057,4.057,0,0,0,1278.532,295.941Zm5.054-6.511H1273.4a5.3,5.3,0,0,0-5.3,5.3v10.191a5.3,5.3,0,0,0,5.3,5.3h10.191a5.3,5.3,0,0,0,5.3-5.3V294.732A5.3,5.3,0,0,0,1283.586,289.43Zm-5.054,16.89a6.327,6.327,0,1,1,6.331-6.323A6.335,6.335,0,0,1,1278.532,306.32Zm6.7-11.573a1.509,1.509,0,1,1,1.51-1.51A1.51,1.51,0,0,1,1285.231,294.747Zm-6.7,1.194a4.052,4.052,0,1,0,4.056,4.055A4.057,4.057,0,0,0,1278.532,295.941Zm0,0a4.052,4.052,0,1,0,4.056,4.055A4.057,4.057,0,0,0,1278.532,295.941Zm0,0a4.052,4.052,0,1,0,4.056,4.055A4.057,4.057,0,0,0,1278.532,295.941Zm0,0a4.052,4.052,0,1,0,4.056,4.055A4.057,4.057,0,0,0,1278.532,295.941Zm0,0a4.052,4.052,0,1,0,4.056,4.055A4.057,4.057,0,0,0,1278.532,295.941Zm0,0a4.052,4.052,0,1,0,4.056,4.055A4.057,4.057,0,0,0,1278.532,295.941Zm0,0a4.052,4.052,0,1,0,4.056,4.055A4.057,4.057,0,0,0,1278.532,295.941Zm0,0a4.052,4.052,0,1,0,4.056,4.055A4.057,4.057,0,0,0,1278.532,295.941Zm0,0a4.052,4.052,0,1,0,4.056,4.055A4.057,4.057,0,0,0,1278.532,295.941Zm0,0a4.052,4.052,0,1,0,4.056,4.055A4.057,4.057,0,0,0,1278.532,295.941Zm0,0a4.052,4.052,0,1,0,4.056,4.055A4.057,4.057,0,0,0,1278.532,295.941Zm0,0a4.052,4.052,0,1,0,4.056,4.055A4.057,4.057,0,0,0,1278.532,295.941Zm0,0a4.052,4.052,0,1,0,4.056,4.055A4.057,4.057,0,0,0,1278.532,295.941Zm5.054-6.511H1273.4a5.3,5.3,0,0,0-5.3,5.3v10.191a5.3,5.3,0,0,0,5.3,5.3h10.191a5.3,5.3,0,0,0,5.3-5.3V294.732A5.3,5.3,0,0,0,1283.586,289.43Zm-5.054,16.89a6.327,6.327,0,1,1,6.331-6.323A6.335,6.335,0,0,1,1278.532,306.32Zm6.7-11.573a1.509,1.509,0,1,1,1.51-1.51A1.51,1.51,0,0,1,1285.231,294.747Zm-6.7,1.194a4.052,4.052,0,1,0,4.056,4.055A4.057,4.057,0,0,0,1278.532,295.941Zm0,0a4.052,4.052,0,1,0,4.056,4.055A4.057,4.057,0,0,0,1278.532,295.941Zm0,0a4.052,4.052,0,1,0,4.056,4.055A4.057,4.057,0,0,0,1278.532,295.941Zm0,0a4.052,4.052,0,1,0,4.056,4.055A4.057,4.057,0,0,0,1278.532,295.941Zm0,0a4.052,4.052,0,1,0,4.056,4.055A4.057,4.057,0,0,0,1278.532,295.941Zm0,0a4.052,4.052,0,1,0,4.056,4.055A4.057,4.057,0,0,0,1278.532,295.941Zm0,0a4.052,4.052,0,1,0,4.056,4.055A4.057,4.057,0,0,0,1278.532,295.941Zm0,0a4.052,4.052,0,1,0,4.056,4.055A4.057,4.057,0,0,0,1278.532,295.941Zm0,0a4.052,4.052,0,1,0,4.056,4.055A4.057,4.057,0,0,0,1278.532,295.941Zm0,0a4.052,4.052,0,1,0,4.056,4.055A4.057,4.057,0,0,0,1278.532,295.941Zm0,0a4.052,4.052,0,1,0,4.056,4.055A4.057,4.057,0,0,0,1278.532,295.941Zm0,0a4.052,4.052,0,1,0,4.056,4.055A4.057,4.057,0,0,0,1278.532,295.941Zm0,0a4.052,4.052,0,1,0,4.056,4.055A4.057,4.057,0,0,0,1278.532,295.941Zm5.054-6.511H1273.4a5.3,5.3,0,0,0-5.3,5.3v10.191a5.3,5.3,0,0,0,5.3,5.3h10.191a5.3,5.3,0,0,0,5.3-5.3V294.732A5.3,5.3,0,0,0,1283.586,289.43Zm-5.054,16.89a6.327,6.327,0,1,1,6.331-6.323A6.335,6.335,0,0,1,1278.532,306.32Zm6.7-11.573a1.509,1.509,0,1,1,1.51-1.51A1.51,1.51,0,0,1,1285.231,294.747Zm-6.7,1.194a4.052,4.052,0,1,0,4.056,4.055A4.057,4.057,0,0,0,1278.532,295.941Zm0,0a4.052,4.052,0,1,0,4.056,4.055A4.057,4.057,0,0,0,1278.532,295.941Zm0,0a4.052,4.052,0,1,0,4.056,4.055A4.057,4.057,0,0,0,1278.532,295.941Zm0,0a4.052,4.052,0,1,0,4.056,4.055A4.057,4.057,0,0,0,1278.532,295.941Zm0,0a4.052,4.052,0,1,0,4.056,4.055A4.057,4.057,0,0,0,1278.532,295.941Zm0,0a4.052,4.052,0,1,0,4.056,4.055A4.057,4.057,0,0,0,1278.532,295.941Zm0,0a4.052,4.052,0,1,0,4.056,4.055A4.057,4.057,0,0,0,1278.532,295.941Zm0,0a4.052,4.052,0,1,0,4.056,4.055A4.057,4.057,0,0,0,1278.532,295.941Zm0,0a4.052,4.052,0,1,0,4.056,4.055A4.057,4.057,0,0,0,1278.532,295.941Zm5.054-6.511H1273.4a5.3,5.3,0,0,0-5.3,5.3v10.191a5.3,5.3,0,0,0,5.3,5.3h10.191a5.3,5.3,0,0,0,5.3-5.3V294.732A5.3,5.3,0,0,0,1283.586,289.43Zm-5.054,16.89a6.327,6.327,0,1,1,6.331-6.323A6.335,6.335,0,0,1,1278.532,306.32Zm6.7-11.573a1.509,1.509,0,1,1,1.51-1.51A1.51,1.51,0,0,1,1285.231,294.747Zm-6.7,1.194a4.052,4.052,0,1,0,4.056,4.055A4.057,4.057,0,0,0,1278.532,295.941Zm0,0a4.052,4.052,0,1,0,4.056,4.055A4.057,4.057,0,0,0,1278.532,295.941Zm0,0a4.052,4.052,0,1,0,4.056,4.055A4.057,4.057,0,0,0,1278.532,295.941Zm0,0a4.052,4.052,0,1,0,4.056,4.055A4.057,4.057,0,0,0,1278.532,295.941Zm0,0a4.052,4.052,0,1,0,4.056,4.055A4.057,4.057,0,0,0,1278.532,295.941Zm0,0a4.052,4.052,0,1,0,4.056,4.055A4.057,4.057,0,0,0,1278.532,295.941Zm0,0a4.052,4.052,0,1,0,4.056,4.055A4.057,4.057,0,0,0,1278.532,295.941Zm0,0a4.052,4.052,0,1,0,4.056,4.055A4.057,4.057,0,0,0,1278.532,295.941Zm0,0a4.052,4.052,0,1,0,4.056,4.055A4.057,4.057,0,0,0,1278.532,295.941Zm5.054-6.511H1273.4a5.3,5.3,0,0,0-5.3,5.3v10.191a5.3,5.3,0,0,0,5.3,5.3h10.191a5.3,5.3,0,0,0,5.3-5.3V294.732A5.3,5.3,0,0,0,1283.586,289.43Zm-5.054,16.89a6.327,6.327,0,1,1,6.331-6.323A6.335,6.335,0,0,1,1278.532,306.32Zm6.7-11.573a1.509,1.509,0,1,1,1.51-1.51A1.51,1.51,0,0,1,1285.231,294.747Zm-6.7,1.194a4.052,4.052,0,1,0,4.056,4.055A4.057,4.057,0,0,0,1278.532,295.941Zm0,0a4.052,4.052,0,1,0,4.056,4.055A4.057,4.057,0,0,0,1278.532,295.941Zm0,0a4.052,4.052,0,1,0,4.056,4.055A4.057,4.057,0,0,0,1278.532,295.941Zm0,0a4.052,4.052,0,1,0,4.056,4.055A4.057,4.057,0,0,0,1278.532,295.941Zm0,0a4.052,4.052,0,1,0,4.056,4.055A4.057,4.057,0,0,0,1278.532,295.941Zm5.054-6.511H1273.4a5.3,5.3,0,0,0-5.3,5.3v10.191a5.3,5.3,0,0,0,5.3,5.3h10.191a5.3,5.3,0,0,0,5.3-5.3V294.732A5.3,5.3,0,0,0,1283.586,289.43Zm-5.054,16.89a6.327,6.327,0,1,1,6.331-6.323A6.335,6.335,0,0,1,1278.532,306.32Zm6.7-11.573a1.509,1.509,0,1,1,1.51-1.51A1.51,1.51,0,0,1,1285.231,294.747Zm-6.7,1.194a4.052,4.052,0,1,0,4.056,4.055A4.057,4.057,0,0,0,1278.532,295.941Zm0,0a4.052,4.052,0,1,0,4.056,4.055A4.057,4.057,0,0,0,1278.532,295.941Zm0,0a4.052,4.052,0,1,0,4.056,4.055A4.057,4.057,0,0,0,1278.532,295.941Zm0,0a4.052,4.052,0,1,0,4.056,4.055A4.057,4.057,0,0,0,1278.532,295.941Zm0,0a4.052,4.052,0,1,0,4.056,4.055A4.057,4.057,0,0,0,1278.532,295.941Zm5.054-6.511H1273.4a5.3,5.3,0,0,0-5.3,5.3v10.191a5.3,5.3,0,0,0,5.3,5.3h10.191a5.3,5.3,0,0,0,5.3-5.3V294.732A5.3,5.3,0,0,0,1283.586,289.43Zm-5.054,16.89a6.327,6.327,0,1,1,6.331-6.323A6.335,6.335,0,0,1,1278.532,306.32Zm6.7-11.573a1.509,1.509,0,1,1,1.51-1.51A1.51,1.51,0,0,1,1285.231,294.747Zm-6.7,1.194a4.052,4.052,0,1,0,4.056,4.055A4.057,4.057,0,0,0,1278.532,295.941Zm5.054-6.511H1273.4a5.3,5.3,0,0,0-5.3,5.3v10.191a5.3,5.3,0,0,0,5.3,5.3h10.191a5.3,5.3,0,0,0,5.3-5.3V294.732A5.3,5.3,0,0,0,1283.586,289.43Zm-5.054,16.89a6.327,6.327,0,1,1,6.331-6.323A6.335,6.335,0,0,1,1278.532,306.32Zm6.7-11.573a1.509,1.509,0,1,1,1.51-1.51A1.51,1.51,0,0,1,1285.231,294.747Zm-6.7,1.194a4.052,4.052,0,1,0,4.056,4.055A4.057,4.057,0,0,0,1278.532,295.941Zm-.165-16.312A20.363,20.363,0,1,0,1298.726,300,20.389,20.389,0,0,0,1278.367,279.63Zm5.219,33.013H1273.4a7.718,7.718,0,0,1-7.72-7.72V294.732a7.718,7.718,0,0,1,7.72-7.72h10.191a7.723,7.723,0,0,1,7.72,7.72v10.191A7.723,7.723,0,0,1,1283.586,312.643Zm0-23.213H1273.4a5.3,5.3,0,0,0-5.3,5.3v10.191a5.3,5.3,0,0,0,5.3,5.3h10.191a5.3,5.3,0,0,0,5.3-5.3V294.732A5.3,5.3,0,0,0,1283.586,289.43Zm-5.054,16.89a6.327,6.327,0,1,1,6.331-6.323A6.335,6.335,0,0,1,1278.532,306.32Zm6.7-11.573a1.509,1.509,0,1,1,1.51-1.51A1.51,1.51,0,0,1,1285.231,294.747Zm-6.7,1.194a4.052,4.052,0,1,0,4.056,4.055A4.057,4.057,0,0,0,1278.532,295.941Zm0,0a4.052,4.052,0,1,0,4.056,4.055A4.057,4.057,0,0,0,1278.532,295.941Zm0,0a4.052,4.052,0,1,0,4.056,4.055A4.057,4.057,0,0,0,1278.532,295.941Zm5.054-6.511H1273.4a5.3,5.3,0,0,0-5.3,5.3v10.191a5.3,5.3,0,0,0,5.3,5.3h10.191a5.3,5.3,0,0,0,5.3-5.3V294.732A5.3,5.3,0,0,0,1283.586,289.43Zm-5.054,16.89a6.327,6.327,0,1,1,6.331-6.323A6.335,6.335,0,0,1,1278.532,306.32Zm6.7-11.573a1.509,1.509,0,1,1,1.51-1.51A1.51,1.51,0,0,1,1285.231,294.747Zm-6.7,1.194a4.052,4.052,0,1,0,4.056,4.055A4.057,4.057,0,0,0,1278.532,295.941Zm0,0a4.052,4.052,0,1,0,4.056,4.055A4.057,4.057,0,0,0,1278.532,295.941Zm0,0a4.052,4.052,0,1,0,4.056,4.055A4.057,4.057,0,0,0,1278.532,295.941Zm5.054-6.511H1273.4a5.3,5.3,0,0,0-5.3,5.3v10.191a5.3,5.3,0,0,0,5.3,5.3h10.191a5.3,5.3,0,0,0,5.3-5.3V294.732A5.3,5.3,0,0,0,1283.586,289.43Zm-5.054,16.89a6.327,6.327,0,1,1,6.331-6.323A6.335,6.335,0,0,1,1278.532,306.32Zm6.7-11.573a1.509,1.509,0,1,1,1.51-1.51A1.51,1.51,0,0,1,1285.231,294.747Zm-6.7,1.194a4.052,4.052,0,1,0,4.056,4.055A4.057,4.057,0,0,0,1278.532,295.941Zm0,0a4.052,4.052,0,1,0,4.056,4.055A4.057,4.057,0,0,0,1278.532,295.941Zm0,0a4.052,4.052,0,1,0,4.056,4.055A4.057,4.057,0,0,0,1278.532,295.941Zm0,0a4.052,4.052,0,1,0,4.056,4.055A4.057,4.057,0,0,0,1278.532,295.941Zm0,0a4.052,4.052,0,1,0,4.056,4.055A4.057,4.057,0,0,0,1278.532,295.941Zm0,0a4.052,4.052,0,1,0,4.056,4.055A4.057,4.057,0,0,0,1278.532,295.941Zm0,0a4.052,4.052,0,1,0,4.056,4.055A4.057,4.057,0,0,0,1278.532,295.941Zm5.054-6.511H1273.4a5.3,5.3,0,0,0-5.3,5.3v10.191a5.3,5.3,0,0,0,5.3,5.3h10.191a5.3,5.3,0,0,0,5.3-5.3V294.732A5.3,5.3,0,0,0,1283.586,289.43Zm-5.054,16.89a6.327,6.327,0,1,1,6.331-6.323A6.335,6.335,0,0,1,1278.532,306.32Zm6.7-11.573a1.509,1.509,0,1,1,1.51-1.51A1.51,1.51,0,0,1,1285.231,294.747Zm-6.7,1.194a4.052,4.052,0,1,0,4.056,4.055A4.057,4.057,0,0,0,1278.532,295.941Zm0,0a4.052,4.052,0,1,0,4.056,4.055A4.057,4.057,0,0,0,1278.532,295.941Zm0,0a4.052,4.052,0,1,0,4.056,4.055A4.057,4.057,0,0,0,1278.532,295.941Zm0,0a4.052,4.052,0,1,0,4.056,4.055A4.057,4.057,0,0,0,1278.532,295.941Zm0,0a4.052,4.052,0,1,0,4.056,4.055A4.057,4.057,0,0,0,1278.532,295.941Zm0,0a4.052,4.052,0,1,0,4.056,4.055A4.057,4.057,0,0,0,1278.532,295.941Zm0,0a4.052,4.052,0,1,0,4.056,4.055A4.057,4.057,0,0,0,1278.532,295.941Zm5.054-6.511H1273.4a5.3,5.3,0,0,0-5.3,5.3v10.191a5.3,5.3,0,0,0,5.3,5.3h10.191a5.3,5.3,0,0,0,5.3-5.3V294.732A5.3,5.3,0,0,0,1283.586,289.43Zm-5.054,16.89a6.327,6.327,0,1,1,6.331-6.323A6.335,6.335,0,0,1,1278.532,306.32Zm6.7-11.573a1.509,1.509,0,1,1,1.51-1.51A1.51,1.51,0,0,1,1285.231,294.747Zm-6.7,1.194a4.052,4.052,0,1,0,4.056,4.055A4.057,4.057,0,0,0,1278.532,295.941Zm0,0a4.052,4.052,0,1,0,4.056,4.055A4.057,4.057,0,0,0,1278.532,295.941Zm0,0a4.052,4.052,0,1,0,4.056,4.055A4.057,4.057,0,0,0,1278.532,295.941Zm0,0a4.052,4.052,0,1,0,4.056,4.055A4.057,4.057,0,0,0,1278.532,295.941Zm0,0a4.052,4.052,0,1,0,4.056,4.055A4.057,4.057,0,0,0,1278.532,295.941Zm0,0a4.052,4.052,0,1,0,4.056,4.055A4.057,4.057,0,0,0,1278.532,295.941Zm0,0a4.052,4.052,0,1,0,4.056,4.055A4.057,4.057,0,0,0,1278.532,295.941Zm0,0a4.052,4.052,0,1,0,4.056,4.055A4.057,4.057,0,0,0,1278.532,295.941Zm0,0a4.052,4.052,0,1,0,4.056,4.055A4.057,4.057,0,0,0,1278.532,295.941Zm0,0a4.052,4.052,0,1,0,4.056,4.055A4.057,4.057,0,0,0,1278.532,295.941Zm0,0a4.052,4.052,0,1,0,4.056,4.055A4.057,4.057,0,0,0,1278.532,295.941Zm5.054-6.511H1273.4a5.3,5.3,0,0,0-5.3,5.3v10.191a5.3,5.3,0,0,0,5.3,5.3h10.191a5.3,5.3,0,0,0,5.3-5.3V294.732A5.3,5.3,0,0,0,1283.586,289.43Zm-5.054,16.89a6.327,6.327,0,1,1,6.331-6.323A6.335,6.335,0,0,1,1278.532,306.32Zm6.7-11.573a1.509,1.509,0,1,1,1.51-1.51A1.51,1.51,0,0,1,1285.231,294.747Zm-6.7,1.194a4.052,4.052,0,1,0,4.056,4.055A4.057,4.057,0,0,0,1278.532,295.941Zm0,0a4.052,4.052,0,1,0,4.056,4.055A4.057,4.057,0,0,0,1278.532,295.941Zm0,0a4.052,4.052,0,1,0,4.056,4.055A4.057,4.057,0,0,0,1278.532,295.941Zm0,0a4.052,4.052,0,1,0,4.056,4.055A4.057,4.057,0,0,0,1278.532,295.941Zm0,0a4.052,4.052,0,1,0,4.056,4.055A4.057,4.057,0,0,0,1278.532,295.941Zm0,0a4.052,4.052,0,1,0,4.056,4.055A4.057,4.057,0,0,0,1278.532,295.941Zm0,0a4.052,4.052,0,1,0,4.056,4.055A4.057,4.057,0,0,0,1278.532,295.941Zm0,0a4.052,4.052,0,1,0,4.056,4.055A4.057,4.057,0,0,0,1278.532,295.941Zm0,0a4.052,4.052,0,1,0,4.056,4.055A4.057,4.057,0,0,0,1278.532,295.941Zm0,0a4.052,4.052,0,1,0,4.056,4.055A4.057,4.057,0,0,0,1278.532,295.941Zm0,0a4.052,4.052,0,1,0,4.056,4.055A4.057,4.057,0,0,0,1278.532,295.941Zm5.054-6.511H1273.4a5.3,5.3,0,0,0-5.3,5.3v10.191a5.3,5.3,0,0,0,5.3,5.3h10.191a5.3,5.3,0,0,0,5.3-5.3V294.732A5.3,5.3,0,0,0,1283.586,289.43Zm-5.054,16.89a6.327,6.327,0,1,1,6.331-6.323A6.335,6.335,0,0,1,1278.532,306.32Zm6.7-11.573a1.509,1.509,0,1,1,1.51-1.51A1.51,1.51,0,0,1,1285.231,294.747Zm-6.7,1.194a4.052,4.052,0,1,0,4.056,4.055A4.057,4.057,0,0,0,1278.532,295.941Zm0,0a4.052,4.052,0,1,0,4.056,4.055A4.057,4.057,0,0,0,1278.532,295.941Zm0,0a4.052,4.052,0,1,0,4.056,4.055A4.057,4.057,0,0,0,1278.532,295.941Zm0,0a4.052,4.052,0,1,0,4.056,4.055A4.057,4.057,0,0,0,1278.532,295.941Zm0,0a4.052,4.052,0,1,0,4.056,4.055A4.057,4.057,0,0,0,1278.532,295.941Zm0,0a4.052,4.052,0,1,0,4.056,4.055A4.057,4.057,0,0,0,1278.532,295.941Zm0,0a4.052,4.052,0,1,0,4.056,4.055A4.057,4.057,0,0,0,1278.532,295.941Zm0,0a4.052,4.052,0,1,0,4.056,4.055A4.057,4.057,0,0,0,1278.532,295.941Zm0,0a4.052,4.052,0,1,0,4.056,4.055A4.057,4.057,0,0,0,1278.532,295.941Zm0,0a4.052,4.052,0,1,0,4.056,4.055A4.057,4.057,0,0,0,1278.532,295.941Zm0,0a4.052,4.052,0,1,0,4.056,4.055A4.057,4.057,0,0,0,1278.532,295.941Zm0,0a4.052,4.052,0,1,0,4.056,4.055A4.057,4.057,0,0,0,1278.532,295.941Zm0,0a4.052,4.052,0,1,0,4.056,4.055A4.057,4.057,0,0,0,1278.532,295.941Zm0,0a4.052,4.052,0,1,0,4.056,4.055A4.057,4.057,0,0,0,1278.532,295.941Zm0,0a4.052,4.052,0,1,0,4.056,4.055A4.057,4.057,0,0,0,1278.532,295.941Zm5.054-6.511H1273.4a5.3,5.3,0,0,0-5.3,5.3v10.191a5.3,5.3,0,0,0,5.3,5.3h10.191a5.3,5.3,0,0,0,5.3-5.3V294.732A5.3,5.3,0,0,0,1283.586,289.43Zm-5.054,16.89a6.327,6.327,0,1,1,6.331-6.323A6.335,6.335,0,0,1,1278.532,306.32Zm6.7-11.573a1.509,1.509,0,1,1,1.51-1.51A1.51,1.51,0,0,1,1285.231,294.747Zm-6.7,1.194a4.052,4.052,0,1,0,4.056,4.055A4.057,4.057,0,0,0,1278.532,295.941Zm0,0a4.052,4.052,0,1,0,4.056,4.055A4.057,4.057,0,0,0,1278.532,295.941Zm0,0a4.052,4.052,0,1,0,4.056,4.055A4.057,4.057,0,0,0,1278.532,295.941Zm0,0a4.052,4.052,0,1,0,4.056,4.055A4.057,4.057,0,0,0,1278.532,295.941Zm0,0a4.052,4.052,0,1,0,4.056,4.055A4.057,4.057,0,0,0,1278.532,295.941Zm0,0a4.052,4.052,0,1,0,4.056,4.055A4.057,4.057,0,0,0,1278.532,295.941Zm0,0a4.052,4.052,0,1,0,4.056,4.055A4.057,4.057,0,0,0,1278.532,295.941Zm0,0a4.052,4.052,0,1,0,4.056,4.055A4.057,4.057,0,0,0,1278.532,295.941Zm0,0a4.052,4.052,0,1,0,4.056,4.055A4.057,4.057,0,0,0,1278.532,295.941Zm0,0a4.052,4.052,0,1,0,4.056,4.055A4.057,4.057,0,0,0,1278.532,295.941Zm0,0a4.052,4.052,0,1,0,4.056,4.055A4.057,4.057,0,0,0,1278.532,295.941Zm0,0a4.052,4.052,0,1,0,4.056,4.055A4.057,4.057,0,0,0,1278.532,295.941Zm0,0a4.052,4.052,0,1,0,4.056,4.055A4.057,4.057,0,0,0,1278.532,295.941Zm0,0a4.052,4.052,0,1,0,4.056,4.055A4.057,4.057,0,0,0,1278.532,295.941Zm0,0a4.052,4.052,0,1,0,4.056,4.055A4.057,4.057,0,0,0,1278.532,295.941Zm5.054-6.511H1273.4a5.3,5.3,0,0,0-5.3,5.3v10.191a5.3,5.3,0,0,0,5.3,5.3h10.191a5.3,5.3,0,0,0,5.3-5.3V294.732A5.3,5.3,0,0,0,1283.586,289.43Zm-5.054,16.89a6.327,6.327,0,1,1,6.331-6.323A6.335,6.335,0,0,1,1278.532,306.32Zm6.7-11.573a1.509,1.509,0,1,1,1.51-1.51A1.51,1.51,0,0,1,1285.231,294.747Zm-6.7,1.194a4.052,4.052,0,1,0,4.056,4.055A4.057,4.057,0,0,0,1278.532,295.941Zm0,0a4.052,4.052,0,1,0,4.056,4.055A4.057,4.057,0,0,0,1278.532,295.941Zm0,0a4.052,4.052,0,1,0,4.056,4.055A4.057,4.057,0,0,0,1278.532,295.941Zm0,0a4.052,4.052,0,1,0,4.056,4.055A4.057,4.057,0,0,0,1278.532,295.941Zm0,0a4.052,4.052,0,1,0,4.056,4.055A4.057,4.057,0,0,0,1278.532,295.941Zm0,0a4.052,4.052,0,1,0,4.056,4.055A4.057,4.057,0,0,0,1278.532,295.941Zm0,0a4.052,4.052,0,1,0,4.056,4.055A4.057,4.057,0,0,0,1278.532,295.941Zm0,0a4.052,4.052,0,1,0,4.056,4.055A4.057,4.057,0,0,0,1278.532,295.941Zm0,0a4.052,4.052,0,1,0,4.056,4.055A4.057,4.057,0,0,0,1278.532,295.941Zm0,0a4.052,4.052,0,1,0,4.056,4.055A4.057,4.057,0,0,0,1278.532,295.941Zm0,0a4.052,4.052,0,1,0,4.056,4.055A4.057,4.057,0,0,0,1278.532,295.941Zm0,0a4.052,4.052,0,1,0,4.056,4.055A4.057,4.057,0,0,0,1278.532,295.941Zm0,0a4.052,4.052,0,1,0,4.056,4.055A4.057,4.057,0,0,0,1278.532,295.941Zm0,0a4.052,4.052,0,1,0,4.056,4.055A4.057,4.057,0,0,0,1278.532,295.941Zm0,0a4.052,4.052,0,1,0,4.056,4.055A4.057,4.057,0,0,0,1278.532,295.941Zm0,0a4.052,4.052,0,1,0,4.056,4.055A4.057,4.057,0,0,0,1278.532,295.941Zm0,0a4.052,4.052,0,1,0,4.056,4.055A4.057,4.057,0,0,0,1278.532,295.941Zm0,0a4.052,4.052,0,1,0,4.056,4.055A4.057,4.057,0,0,0,1278.532,295.941Zm0,0a4.052,4.052,0,1,0,4.056,4.055A4.057,4.057,0,0,0,1278.532,295.941Zm5.054-6.511H1273.4a5.3,5.3,0,0,0-5.3,5.3v10.191a5.3,5.3,0,0,0,5.3,5.3h10.191a5.3,5.3,0,0,0,5.3-5.3V294.732A5.3,5.3,0,0,0,1283.586,289.43Zm-5.054,16.89a6.327,6.327,0,1,1,6.331-6.323A6.335,6.335,0,0,1,1278.532,306.32Zm6.7-11.573a1.509,1.509,0,1,1,1.51-1.51A1.51,1.51,0,0,1,1285.231,294.747Zm-6.7,1.194a4.052,4.052,0,1,0,4.056,4.055A4.057,4.057,0,0,0,1278.532,295.941Zm0,0a4.052,4.052,0,1,0,4.056,4.055A4.057,4.057,0,0,0,1278.532,295.941Zm0,0a4.052,4.052,0,1,0,4.056,4.055A4.057,4.057,0,0,0,1278.532,295.941Zm0,0a4.052,4.052,0,1,0,4.056,4.055A4.057,4.057,0,0,0,1278.532,295.941Zm0,0a4.052,4.052,0,1,0,4.056,4.055A4.057,4.057,0,0,0,1278.532,295.941Zm0,0a4.052,4.052,0,1,0,4.056,4.055A4.057,4.057,0,0,0,1278.532,295.941Zm0,0a4.052,4.052,0,1,0,4.056,4.055A4.057,4.057,0,0,0,1278.532,295.941Zm0,0a4.052,4.052,0,1,0,4.056,4.055A4.057,4.057,0,0,0,1278.532,295.941Zm0,0a4.052,4.052,0,1,0,4.056,4.055A4.057,4.057,0,0,0,1278.532,295.941Zm0,0a4.052,4.052,0,1,0,4.056,4.055A4.057,4.057,0,0,0,1278.532,295.941Zm0,0a4.052,4.052,0,1,0,4.056,4.055A4.057,4.057,0,0,0,1278.532,295.941Zm0,0a4.052,4.052,0,1,0,4.056,4.055A4.057,4.057,0,0,0,1278.532,295.941Zm0,0a4.052,4.052,0,1,0,4.056,4.055A4.057,4.057,0,0,0,1278.532,295.941Zm0,0a4.052,4.052,0,1,0,4.056,4.055A4.057,4.057,0,0,0,1278.532,295.941Zm0,0a4.052,4.052,0,1,0,4.056,4.055A4.057,4.057,0,0,0,1278.532,295.941Zm0,0a4.052,4.052,0,1,0,4.056,4.055A4.057,4.057,0,0,0,1278.532,295.941Zm0,0a4.052,4.052,0,1,0,4.056,4.055A4.057,4.057,0,0,0,1278.532,295.941Zm0,0a4.052,4.052,0,1,0,4.056,4.055A4.057,4.057,0,0,0,1278.532,295.941Zm0,0a4.052,4.052,0,1,0,4.056,4.055A4.057,4.057,0,0,0,1278.532,295.941Zm5.054-6.511H1273.4a5.3,5.3,0,0,0-5.3,5.3v10.191a5.3,5.3,0,0,0,5.3,5.3h10.191a5.3,5.3,0,0,0,5.3-5.3V294.732A5.3,5.3,0,0,0,1283.586,289.43Zm-5.054,16.89a6.327,6.327,0,1,1,6.331-6.323A6.335,6.335,0,0,1,1278.532,306.32Zm6.7-11.573a1.509,1.509,0,1,1,1.51-1.51A1.51,1.51,0,0,1,1285.231,294.747Zm-6.7,1.194a4.052,4.052,0,1,0,4.056,4.055A4.057,4.057,0,0,0,1278.532,295.941Zm0,0a4.052,4.052,0,1,0,4.056,4.055A4.057,4.057,0,0,0,1278.532,295.941Zm0,0a4.052,4.052,0,1,0,4.056,4.055A4.057,4.057,0,0,0,1278.532,295.941Zm0,0a4.052,4.052,0,1,0,4.056,4.055A4.057,4.057,0,0,0,1278.532,295.941Zm0,0a4.052,4.052,0,1,0,4.056,4.055A4.057,4.057,0,0,0,1278.532,295.941Zm0,0a4.052,4.052,0,1,0,4.056,4.055A4.057,4.057,0,0,0,1278.532,295.941Zm0,0a4.052,4.052,0,1,0,4.056,4.055A4.057,4.057,0,0,0,1278.532,295.941Zm0,0a4.052,4.052,0,1,0,4.056,4.055A4.057,4.057,0,0,0,1278.532,295.941Zm0,0a4.052,4.052,0,1,0,4.056,4.055A4.057,4.057,0,0,0,1278.532,295.941Zm0,0a4.052,4.052,0,1,0,4.056,4.055A4.057,4.057,0,0,0,1278.532,295.941Zm0,0a4.052,4.052,0,1,0,4.056,4.055A4.057,4.057,0,0,0,1278.532,295.941Zm0,0a4.052,4.052,0,1,0,4.056,4.055A4.057,4.057,0,0,0,1278.532,295.941Zm0,0a4.052,4.052,0,1,0,4.056,4.055A4.057,4.057,0,0,0,1278.532,295.941Zm0,0a4.052,4.052,0,1,0,4.056,4.055A4.057,4.057,0,0,0,1278.532,295.941Zm0,0a4.052,4.052,0,1,0,4.056,4.055A4.057,4.057,0,0,0,1278.532,295.941Zm0,0a4.052,4.052,0,1,0,4.056,4.055A4.057,4.057,0,0,0,1278.532,295.941Zm0,0a4.052,4.052,0,1,0,4.056,4.055A4.057,4.057,0,0,0,1278.532,295.941Zm0,0a4.052,4.052,0,1,0,4.056,4.055A4.057,4.057,0,0,0,1278.532,295.941Zm0,0a4.052,4.052,0,1,0,4.056,4.055A4.057,4.057,0,0,0,1278.532,295.941Zm0,0a4.052,4.052,0,1,0,4.056,4.055A4.057,4.057,0,0,0,1278.532,295.941Zm0,0a4.052,4.052,0,1,0,4.056,4.055A4.057,4.057,0,0,0,1278.532,295.941Zm0,0a4.052,4.052,0,1,0,4.056,4.055A4.057,4.057,0,0,0,1278.532,295.941Zm0,0a4.052,4.052,0,1,0,4.056,4.055A4.057,4.057,0,0,0,1278.532,295.941Zm5.054-6.511H1273.4a5.3,5.3,0,0,0-5.3,5.3v10.191a5.3,5.3,0,0,0,5.3,5.3h10.191a5.3,5.3,0,0,0,5.3-5.3V294.732A5.3,5.3,0,0,0,1283.586,289.43Zm-5.054,16.89a6.327,6.327,0,1,1,6.331-6.323A6.335,6.335,0,0,1,1278.532,306.32Zm6.7-11.573a1.509,1.509,0,1,1,1.51-1.51A1.51,1.51,0,0,1,1285.231,294.747Zm-6.7,1.194a4.052,4.052,0,1,0,4.056,4.055A4.057,4.057,0,0,0,1278.532,295.941Zm0,0a4.052,4.052,0,1,0,4.056,4.055A4.057,4.057,0,0,0,1278.532,295.941Zm0,0a4.052,4.052,0,1,0,4.056,4.055A4.057,4.057,0,0,0,1278.532,295.941Zm0,0a4.052,4.052,0,1,0,4.056,4.055A4.057,4.057,0,0,0,1278.532,295.941Zm0,0a4.052,4.052,0,1,0,4.056,4.055A4.057,4.057,0,0,0,1278.532,295.941Zm0,0a4.052,4.052,0,1,0,4.056,4.055A4.057,4.057,0,0,0,1278.532,295.941Zm0,0a4.052,4.052,0,1,0,4.056,4.055A4.057,4.057,0,0,0,1278.532,295.941Zm0,0a4.052,4.052,0,1,0,4.056,4.055A4.057,4.057,0,0,0,1278.532,295.941Zm0,0a4.052,4.052,0,1,0,4.056,4.055A4.057,4.057,0,0,0,1278.532,295.941Zm0,0a4.052,4.052,0,1,0,4.056,4.055A4.057,4.057,0,0,0,1278.532,295.941Zm0,0a4.052,4.052,0,1,0,4.056,4.055A4.057,4.057,0,0,0,1278.532,295.941Zm0,0a4.052,4.052,0,1,0,4.056,4.055A4.057,4.057,0,0,0,1278.532,295.941Zm0,0a4.052,4.052,0,1,0,4.056,4.055A4.057,4.057,0,0,0,1278.532,295.941Zm0,0a4.052,4.052,0,1,0,4.056,4.055A4.057,4.057,0,0,0,1278.532,295.941Zm0,0a4.052,4.052,0,1,0,4.056,4.055A4.057,4.057,0,0,0,1278.532,295.941Zm0,0a4.052,4.052,0,1,0,4.056,4.055A4.057,4.057,0,0,0,1278.532,295.941Zm0,0a4.052,4.052,0,1,0,4.056,4.055A4.057,4.057,0,0,0,1278.532,295.941Zm0,0a4.052,4.052,0,1,0,4.056,4.055A4.057,4.057,0,0,0,1278.532,295.941Zm0,0a4.052,4.052,0,1,0,4.056,4.055A4.057,4.057,0,0,0,1278.532,295.941Zm0,0a4.052,4.052,0,1,0,4.056,4.055A4.057,4.057,0,0,0,1278.532,295.941Zm0,0a4.052,4.052,0,1,0,4.056,4.055A4.057,4.057,0,0,0,1278.532,295.941Zm0,0a4.052,4.052,0,1,0,4.056,4.055A4.057,4.057,0,0,0,1278.532,295.941Zm0,0a4.052,4.052,0,1,0,4.056,4.055A4.057,4.057,0,0,0,1278.532,295.941Zm5.054-6.511H1273.4a5.3,5.3,0,0,0-5.3,5.3v10.191a5.3,5.3,0,0,0,5.3,5.3h10.191a5.3,5.3,0,0,0,5.3-5.3V294.732A5.3,5.3,0,0,0,1283.586,289.43Zm-5.054,16.89a6.327,6.327,0,1,1,6.331-6.323A6.335,6.335,0,0,1,1278.532,306.32Zm6.7-11.573a1.509,1.509,0,1,1,1.51-1.51A1.51,1.51,0,0,1,1285.231,294.747Zm-6.7,1.194a4.052,4.052,0,1,0,4.056,4.055A4.057,4.057,0,0,0,1278.532,295.941Zm0,0a4.052,4.052,0,1,0,4.056,4.055A4.057,4.057,0,0,0,1278.532,295.941Zm0,0a4.052,4.052,0,1,0,4.056,4.055A4.057,4.057,0,0,0,1278.532,295.941Zm0,0a4.052,4.052,0,1,0,4.056,4.055A4.057,4.057,0,0,0,1278.532,295.941Zm0,0a4.052,4.052,0,1,0,4.056,4.055A4.057,4.057,0,0,0,1278.532,295.941Zm0,0a4.052,4.052,0,1,0,4.056,4.055A4.057,4.057,0,0,0,1278.532,295.941Zm0,0a4.052,4.052,0,1,0,4.056,4.055A4.057,4.057,0,0,0,1278.532,295.941Zm0,0a4.052,4.052,0,1,0,4.056,4.055A4.057,4.057,0,0,0,1278.532,295.941Zm0,0a4.052,4.052,0,1,0,4.056,4.055A4.057,4.057,0,0,0,1278.532,295.941Zm0,0a4.052,4.052,0,1,0,4.056,4.055A4.057,4.057,0,0,0,1278.532,295.941Zm0,0a4.052,4.052,0,1,0,4.056,4.055A4.057,4.057,0,0,0,1278.532,295.941Zm0,0a4.052,4.052,0,1,0,4.056,4.055A4.057,4.057,0,0,0,1278.532,295.941Zm0,0a4.052,4.052,0,1,0,4.056,4.055A4.057,4.057,0,0,0,1278.532,295.941Zm0,0a4.052,4.052,0,1,0,4.056,4.055A4.057,4.057,0,0,0,1278.532,295.941Zm0,0a4.052,4.052,0,1,0,4.056,4.055A4.057,4.057,0,0,0,1278.532,295.941Zm0,0a4.052,4.052,0,1,0,4.056,4.055A4.057,4.057,0,0,0,1278.532,295.941Zm0,0a4.052,4.052,0,1,0,4.056,4.055A4.057,4.057,0,0,0,1278.532,295.941Zm0,0a4.052,4.052,0,1,0,4.056,4.055A4.057,4.057,0,0,0,1278.532,295.941Zm0,0a4.052,4.052,0,1,0,4.056,4.055A4.057,4.057,0,0,0,1278.532,295.941Zm0,0a4.052,4.052,0,1,0,4.056,4.055A4.057,4.057,0,0,0,1278.532,295.941Zm0,0a4.052,4.052,0,1,0,4.056,4.055A4.057,4.057,0,0,0,1278.532,295.941Zm0,0a4.052,4.052,0,1,0,4.056,4.055A4.057,4.057,0,0,0,1278.532,295.941Zm0,0a4.052,4.052,0,1,0,4.056,4.055A4.057,4.057,0,0,0,1278.532,295.941Zm0,0a4.052,4.052,0,1,0,4.056,4.055A4.057,4.057,0,0,0,1278.532,295.941Zm0,0a4.052,4.052,0,1,0,4.056,4.055A4.057,4.057,0,0,0,1278.532,295.941Zm0,0a4.052,4.052,0,1,0,4.056,4.055A4.057,4.057,0,0,0,1278.532,295.941Zm0,0a4.052,4.052,0,1,0,4.056,4.055A4.057,4.057,0,0,0,1278.532,295.941Zm5.054-6.511H1273.4a5.3,5.3,0,0,0-5.3,5.3v10.191a5.3,5.3,0,0,0,5.3,5.3h10.191a5.3,5.3,0,0,0,5.3-5.3V294.732A5.3,5.3,0,0,0,1283.586,289.43Zm-5.054,16.89a6.327,6.327,0,1,1,6.331-6.323A6.335,6.335,0,0,1,1278.532,306.32Zm6.7-11.573a1.509,1.509,0,1,1,1.51-1.51A1.51,1.51,0,0,1,1285.231,294.747Zm-6.7,1.194a4.052,4.052,0,1,0,4.056,4.055A4.057,4.057,0,0,0,1278.532,295.941Zm0,0a4.052,4.052,0,1,0,4.056,4.055A4.057,4.057,0,0,0,1278.532,295.941Zm0,0a4.052,4.052,0,1,0,4.056,4.055A4.057,4.057,0,0,0,1278.532,295.941Zm0,0a4.052,4.052,0,1,0,4.056,4.055A4.057,4.057,0,0,0,1278.532,295.941Zm0,0a4.052,4.052,0,1,0,4.056,4.055A4.057,4.057,0,0,0,1278.532,295.941Zm0,0a4.052,4.052,0,1,0,4.056,4.055A4.057,4.057,0,0,0,1278.532,295.941Zm0,0a4.052,4.052,0,1,0,4.056,4.055A4.057,4.057,0,0,0,1278.532,295.941Zm0,0a4.052,4.052,0,1,0,4.056,4.055A4.057,4.057,0,0,0,1278.532,295.941Zm0,0a4.052,4.052,0,1,0,4.056,4.055A4.057,4.057,0,0,0,1278.532,295.941Zm0,0a4.052,4.052,0,1,0,4.056,4.055A4.057,4.057,0,0,0,1278.532,295.941Zm0,0a4.052,4.052,0,1,0,4.056,4.055A4.057,4.057,0,0,0,1278.532,295.941Zm0,0a4.052,4.052,0,1,0,4.056,4.055A4.057,4.057,0,0,0,1278.532,295.941Zm0,0a4.052,4.052,0,1,0,4.056,4.055A4.057,4.057,0,0,0,1278.532,295.941Zm0,0a4.052,4.052,0,1,0,4.056,4.055A4.057,4.057,0,0,0,1278.532,295.941Zm0,0a4.052,4.052,0,1,0,4.056,4.055A4.057,4.057,0,0,0,1278.532,295.941Zm0,0a4.052,4.052,0,1,0,4.056,4.055A4.057,4.057,0,0,0,1278.532,295.941Zm0,0a4.052,4.052,0,1,0,4.056,4.055A4.057,4.057,0,0,0,1278.532,295.941Zm0,0a4.052,4.052,0,1,0,4.056,4.055A4.057,4.057,0,0,0,1278.532,295.941Zm0,0a4.052,4.052,0,1,0,4.056,4.055A4.057,4.057,0,0,0,1278.532,295.941Zm0,0a4.052,4.052,0,1,0,4.056,4.055A4.057,4.057,0,0,0,1278.532,295.941Zm0,0a4.052,4.052,0,1,0,4.056,4.055A4.057,4.057,0,0,0,1278.532,295.941Zm0,0a4.052,4.052,0,1,0,4.056,4.055A4.057,4.057,0,0,0,1278.532,295.941Zm0,0a4.052,4.052,0,1,0,4.056,4.055A4.057,4.057,0,0,0,1278.532,295.941Zm0,0a4.052,4.052,0,1,0,4.056,4.055A4.057,4.057,0,0,0,1278.532,295.941Zm0,0a4.052,4.052,0,1,0,4.056,4.055A4.057,4.057,0,0,0,1278.532,295.941Zm0,0a4.052,4.052,0,1,0,4.056,4.055A4.057,4.057,0,0,0,1278.532,295.941Zm0,0a4.052,4.052,0,1,0,4.056,4.055A4.057,4.057,0,0,0,1278.532,295.941Zm5.054-6.511H1273.4a5.3,5.3,0,0,0-5.3,5.3v10.191a5.3,5.3,0,0,0,5.3,5.3h10.191a5.3,5.3,0,0,0,5.3-5.3V294.732A5.3,5.3,0,0,0,1283.586,289.43Zm-5.054,16.89a6.327,6.327,0,1,1,6.331-6.323A6.335,6.335,0,0,1,1278.532,306.32Zm6.7-11.573a1.509,1.509,0,1,1,1.51-1.51A1.51,1.51,0,0,1,1285.231,294.747Zm-6.7,1.194a4.052,4.052,0,1,0,4.056,4.055A4.057,4.057,0,0,0,1278.532,295.941Zm0,0a4.052,4.052,0,1,0,4.056,4.055A4.057,4.057,0,0,0,1278.532,295.941Zm0,0a4.052,4.052,0,1,0,4.056,4.055A4.057,4.057,0,0,0,1278.532,295.941Zm0,0a4.052,4.052,0,1,0,4.056,4.055A4.057,4.057,0,0,0,1278.532,295.941Zm0,0a4.052,4.052,0,1,0,4.056,4.055A4.057,4.057,0,0,0,1278.532,295.941Zm0,0a4.052,4.052,0,1,0,4.056,4.055A4.057,4.057,0,0,0,1278.532,295.941Zm0,0a4.052,4.052,0,1,0,4.056,4.055A4.057,4.057,0,0,0,1278.532,295.941Zm0,0a4.052,4.052,0,1,0,4.056,4.055A4.057,4.057,0,0,0,1278.532,295.941Zm0,0a4.052,4.052,0,1,0,4.056,4.055A4.057,4.057,0,0,0,1278.532,295.941Zm0,0a4.052,4.052,0,1,0,4.056,4.055A4.057,4.057,0,0,0,1278.532,295.941Zm0,0a4.052,4.052,0,1,0,4.056,4.055A4.057,4.057,0,0,0,1278.532,295.941Zm0,0a4.052,4.052,0,1,0,4.056,4.055A4.057,4.057,0,0,0,1278.532,295.941Zm0,0a4.052,4.052,0,1,0,4.056,4.055A4.057,4.057,0,0,0,1278.532,295.941Zm0,0a4.052,4.052,0,1,0,4.056,4.055A4.057,4.057,0,0,0,1278.532,295.941Zm0,0a4.052,4.052,0,1,0,4.056,4.055A4.057,4.057,0,0,0,1278.532,295.941Zm0,0a4.052,4.052,0,1,0,4.056,4.055A4.057,4.057,0,0,0,1278.532,295.941Zm0,0a4.052,4.052,0,1,0,4.056,4.055A4.057,4.057,0,0,0,1278.532,295.941Zm0,0a4.052,4.052,0,1,0,4.056,4.055A4.057,4.057,0,0,0,1278.532,295.941Zm0,0a4.052,4.052,0,1,0,4.056,4.055A4.057,4.057,0,0,0,1278.532,295.941Zm0,0a4.052,4.052,0,1,0,4.056,4.055A4.057,4.057,0,0,0,1278.532,295.941Zm0,0a4.052,4.052,0,1,0,4.056,4.055A4.057,4.057,0,0,0,1278.532,295.941Zm0,0a4.052,4.052,0,1,0,4.056,4.055A4.057,4.057,0,0,0,1278.532,295.941Zm0,0a4.052,4.052,0,1,0,4.056,4.055A4.057,4.057,0,0,0,1278.532,295.941Zm0,0a4.052,4.052,0,1,0,4.056,4.055A4.057,4.057,0,0,0,1278.532,295.941Zm0,0a4.052,4.052,0,1,0,4.056,4.055A4.057,4.057,0,0,0,1278.532,295.941Zm0,0a4.052,4.052,0,1,0,4.056,4.055A4.057,4.057,0,0,0,1278.532,295.941Zm0,0a4.052,4.052,0,1,0,4.056,4.055A4.057,4.057,0,0,0,1278.532,295.941Zm0,0a4.052,4.052,0,1,0,4.056,4.055A4.057,4.057,0,0,0,1278.532,295.941Zm0,0a4.052,4.052,0,1,0,4.056,4.055A4.057,4.057,0,0,0,1278.532,295.941Zm0,0a4.052,4.052,0,1,0,4.056,4.055A4.057,4.057,0,0,0,1278.532,295.941Zm0,0a4.052,4.052,0,1,0,4.056,4.055A4.057,4.057,0,0,0,1278.532,295.941Zm5.054-6.511H1273.4a5.3,5.3,0,0,0-5.3,5.3v10.191a5.3,5.3,0,0,0,5.3,5.3h10.191a5.3,5.3,0,0,0,5.3-5.3V294.732A5.3,5.3,0,0,0,1283.586,289.43Zm-5.054,16.89a6.327,6.327,0,1,1,6.331-6.323A6.335,6.335,0,0,1,1278.532,306.32Zm6.7-11.573a1.509,1.509,0,1,1,1.51-1.51A1.51,1.51,0,0,1,1285.231,294.747Zm-6.7,1.194a4.052,4.052,0,1,0,4.056,4.055A4.057,4.057,0,0,0,1278.532,295.941Zm0,0a4.052,4.052,0,1,0,4.056,4.055A4.057,4.057,0,0,0,1278.532,295.941Zm0,0a4.052,4.052,0,1,0,4.056,4.055A4.057,4.057,0,0,0,1278.532,295.941Zm0,0a4.052,4.052,0,1,0,4.056,4.055A4.057,4.057,0,0,0,1278.532,295.941Zm0,0a4.052,4.052,0,1,0,4.056,4.055A4.057,4.057,0,0,0,1278.532,295.941Zm0,0a4.052,4.052,0,1,0,4.056,4.055A4.057,4.057,0,0,0,1278.532,295.941Zm0,0a4.052,4.052,0,1,0,4.056,4.055A4.057,4.057,0,0,0,1278.532,295.941Zm0,0a4.052,4.052,0,1,0,4.056,4.055A4.057,4.057,0,0,0,1278.532,295.941Zm0,0a4.052,4.052,0,1,0,4.056,4.055A4.057,4.057,0,0,0,1278.532,295.941Zm0,0a4.052,4.052,0,1,0,4.056,4.055A4.057,4.057,0,0,0,1278.532,295.941Zm0,0a4.052,4.052,0,1,0,4.056,4.055A4.057,4.057,0,0,0,1278.532,295.941Zm0,0a4.052,4.052,0,1,0,4.056,4.055A4.057,4.057,0,0,0,1278.532,295.941Zm0,0a4.052,4.052,0,1,0,4.056,4.055A4.057,4.057,0,0,0,1278.532,295.941Zm0,0a4.052,4.052,0,1,0,4.056,4.055A4.057,4.057,0,0,0,1278.532,295.941Zm0,0a4.052,4.052,0,1,0,4.056,4.055A4.057,4.057,0,0,0,1278.532,295.941Zm0,0a4.052,4.052,0,1,0,4.056,4.055A4.057,4.057,0,0,0,1278.532,295.941Zm0,0a4.052,4.052,0,1,0,4.056,4.055A4.057,4.057,0,0,0,1278.532,295.941Zm0,0a4.052,4.052,0,1,0,4.056,4.055A4.057,4.057,0,0,0,1278.532,295.941Zm0,0a4.052,4.052,0,1,0,4.056,4.055A4.057,4.057,0,0,0,1278.532,295.941Zm0,0a4.052,4.052,0,1,0,4.056,4.055A4.057,4.057,0,0,0,1278.532,295.941Zm0,0a4.052,4.052,0,1,0,4.056,4.055A4.057,4.057,0,0,0,1278.532,295.941Zm0,0a4.052,4.052,0,1,0,4.056,4.055A4.057,4.057,0,0,0,1278.532,295.941Zm0,0a4.052,4.052,0,1,0,4.056,4.055A4.057,4.057,0,0,0,1278.532,295.941Zm0,0a4.052,4.052,0,1,0,4.056,4.055A4.057,4.057,0,0,0,1278.532,295.941Zm0,0a4.052,4.052,0,1,0,4.056,4.055A4.057,4.057,0,0,0,1278.532,295.941Zm0,0a4.052,4.052,0,1,0,4.056,4.055A4.057,4.057,0,0,0,1278.532,295.941Zm0,0a4.052,4.052,0,1,0,4.056,4.055A4.057,4.057,0,0,0,1278.532,295.941Zm0,0a4.052,4.052,0,1,0,4.056,4.055A4.057,4.057,0,0,0,1278.532,295.941Zm0,0a4.052,4.052,0,1,0,4.056,4.055A4.057,4.057,0,0,0,1278.532,295.941Zm0,0a4.052,4.052,0,1,0,4.056,4.055A4.057,4.057,0,0,0,1278.532,295.941Zm0,0a4.052,4.052,0,1,0,4.056,4.055A4.057,4.057,0,0,0,1278.532,295.941Zm5.054-6.511H1273.4a5.3,5.3,0,0,0-5.3,5.3v10.191a5.3,5.3,0,0,0,5.3,5.3h10.191a5.3,5.3,0,0,0,5.3-5.3V294.732A5.3,5.3,0,0,0,1283.586,289.43Zm-5.054,16.89a6.327,6.327,0,1,1,6.331-6.323A6.335,6.335,0,0,1,1278.532,306.32Zm6.7-11.573a1.509,1.509,0,1,1,1.51-1.51A1.51,1.51,0,0,1,1285.231,294.747Zm-6.7,1.194a4.052,4.052,0,1,0,4.056,4.055A4.057,4.057,0,0,0,1278.532,295.941Zm0,0a4.052,4.052,0,1,0,4.056,4.055A4.057,4.057,0,0,0,1278.532,295.941Zm0,0a4.052,4.052,0,1,0,4.056,4.055A4.057,4.057,0,0,0,1278.532,295.941Zm0,0a4.052,4.052,0,1,0,4.056,4.055A4.057,4.057,0,0,0,1278.532,295.941Zm0,0a4.052,4.052,0,1,0,4.056,4.055A4.057,4.057,0,0,0,1278.532,295.941Zm0,0a4.052,4.052,0,1,0,4.056,4.055A4.057,4.057,0,0,0,1278.532,295.941Zm0,0a4.052,4.052,0,1,0,4.056,4.055A4.057,4.057,0,0,0,1278.532,295.941Zm0,0a4.052,4.052,0,1,0,4.056,4.055A4.057,4.057,0,0,0,1278.532,295.941Zm0,0a4.052,4.052,0,1,0,4.056,4.055A4.057,4.057,0,0,0,1278.532,295.941Zm0,0a4.052,4.052,0,1,0,4.056,4.055A4.057,4.057,0,0,0,1278.532,295.941Zm0,0a4.052,4.052,0,1,0,4.056,4.055A4.057,4.057,0,0,0,1278.532,295.941Zm0,0a4.052,4.052,0,1,0,4.056,4.055A4.057,4.057,0,0,0,1278.532,295.941Zm0,0a4.052,4.052,0,1,0,4.056,4.055A4.057,4.057,0,0,0,1278.532,295.941Zm0,0a4.052,4.052,0,1,0,4.056,4.055A4.057,4.057,0,0,0,1278.532,295.941Zm0,0a4.052,4.052,0,1,0,4.056,4.055A4.057,4.057,0,0,0,1278.532,295.941Zm0,0a4.052,4.052,0,1,0,4.056,4.055A4.057,4.057,0,0,0,1278.532,295.941Zm0,0a4.052,4.052,0,1,0,4.056,4.055A4.057,4.057,0,0,0,1278.532,295.941Z" transform="translate(-1258 -279.63)" fill="#162b37"/>
    </g>
  </g>
</svg>
