<svg xmlns="http://www.w3.org/2000/svg" width="40.921" height="40.929" viewBox="0 0 40.921 40.929">
  <g id="Group_36" data-name="Group 36" transform="translate(0)">
    <g id="Group_35" data-name="Group 35" transform="translate(0 0)">
      <path id="Path_39" data-name="Path 39" d="M1198.47,362.2h.03v-.045C1198.492,362.166,1198.477,362.181,1198.47,362.2Zm0,0h.03v-.045C1198.492,362.166,1198.477,362.181,1198.47,362.2Zm0,0h.03v-.045C1198.492,362.166,1198.477,362.181,1198.47,362.2Zm0,0h.03v-.045C1198.492,362.166,1198.477,362.181,1198.47,362.2Zm0,0h.03v-.045C1198.492,362.166,1198.477,362.181,1198.47,362.2Zm0,0h.03v-.045C1198.492,362.166,1198.477,362.181,1198.47,362.2Zm0,0h.03v-.045C1198.492,362.166,1198.477,362.181,1198.47,362.2Zm0,0h.03v-.045C1198.492,362.166,1198.477,362.181,1198.47,362.2Zm-2.043-18.106a20.464,20.464,0,1,0,20.465,20.464A20.487,20.487,0,0,0,1196.427,344.09Zm-5.114,29.664a.343.343,0,0,1-.345.338h-3.942a.337.337,0,0,1-.338-.338v-13.24a.337.337,0,0,1,.338-.338h3.942a.343.343,0,0,1,.345.338Zm-2.456-15.35a2.478,2.478,0,1,1,2.478-2.478A2.47,2.47,0,0,1,1188.857,358.4ZM1208,373.754a.343.343,0,0,1-.345.338h-3.943a.343.343,0,0,1-.345-.338v-7.1c0-1.87-.668-3.147-2.343-3.147a2.531,2.531,0,0,0-2.373,1.69,3.22,3.22,0,0,0-.15,1.126v7.435a.343.343,0,0,1-.345.338h-3.943a.336.336,0,0,1-.338-.338c.008-1.893.045-11.077.008-13.232a.338.338,0,0,1,.338-.345h3.935a.338.338,0,0,1,.345.338v1.637a4.6,4.6,0,0,1,4.168-2.306c3.049,0,5.332,1.99,5.332,6.263Zm-9.5-11.558v-.045c-.008.015-.022.03-.03.045Zm-.03,0h.03v-.045C1198.492,362.166,1198.477,362.181,1198.47,362.2Zm0,0h.03v-.045C1198.492,362.166,1198.477,362.181,1198.47,362.2Zm0,0h.03v-.045C1198.492,362.166,1198.477,362.181,1198.47,362.2Zm0,0h.03v-.045C1198.492,362.166,1198.477,362.181,1198.47,362.2Zm0,0h.03v-.045C1198.492,362.166,1198.477,362.181,1198.47,362.2Zm0,0h.03v-.045C1198.492,362.166,1198.477,362.181,1198.47,362.2Z" transform="translate(-1175.97 -344.09)" fill="#162b37"/>
    </g>
  </g>
</svg>
