<svg id="Group_35" data-name="Group 35" xmlns="http://www.w3.org/2000/svg" width="185.947" height="56.744" viewBox="0 0 185.947 56.744">
  <g id="Group_9" data-name="Group 9" transform="translate(0)">
    <path id="Path_38" data-name="Path 38" d="M206.421,295.411a7.1,7.1,0,0,0-.048-1.091c-.423-3.465-3.351-6.365-8.246-8.167a38.921,38.921,0,0,0-12.619-2.051,13.818,13.818,0,0,0-6.126-3.909,41.253,41.253,0,0,0-13.819-2.146c-.383,0-.766,0-1.143.012a42.1,42.1,0,0,0-14.867,2.745l-15.15,6.3c-3.58,1.489-4.183,3.729-4.2,5.009h0v14.078a8.347,8.347,0,0,0,4.965,7.631l38.873,17.236a8.349,8.349,0,0,0,7.882-.6l20.662-13.216a8.346,8.346,0,0,0,3.848-6.957h0V295.4Z" transform="translate(-130.196 -278.046)" fill="#00b0bd"/>
    <path id="Path_39" data-name="Path 39" d="M186.36,287.753c-.71-1.634-2.553-2.984-5.542-4.088a44.032,44.032,0,0,0-27.732.568l-15.15,6.3c-1.653.687-2.529,1.6-2.43,2.552.107.982,1.11,1.935,2.916,2.674l36.136,14.79a16.006,16.006,0,0,0,6.3,1.01,13.229,13.229,0,0,0,5.821-1.4l14.453-8.043c3.473-1.932,5.126-4.344,4.824-6.662-.275-2.291-2.494-4.4-6.388-5.828a37.792,37.792,0,0,0-13.206-1.874" transform="translate(-132.628 -279.72)" fill="#fff"/>
    <path id="Path_40" data-name="Path 40" d="M225.182,305.445a1.514,1.514,0,0,0,.933-1.534,1.862,1.862,0,0,0-1.49-1.439,8.829,8.829,0,0,0-3.562-.141,12.325,12.325,0,0,0-3.207.79l-13.173,6.4,7.726,2.376Z" transform="translate(-164.361 -289.137)" fill="#00b0bd"/>
    <path id="Path_41" data-name="Path 41" d="M190.846,295.7a1.276,1.276,0,0,0,.807-1.355,1.737,1.737,0,0,0-1.326-1.2,7.063,7.063,0,0,0-3.189-.054,11.464,11.464,0,0,0-2.74.757l-12.637,5.492,6.507,2Z" transform="translate(-149.261 -284.876)" fill="#00b0bd"/>
    <path id="Path_42" data-name="Path 42" d="M259.3,349.066a.381.381,0,0,1-.21-.7c.652-.429.652-.429,1.242-.828a.381.381,0,1,1,.427.63c-.593.4-.593.4-1.25.835a.386.386,0,0,1-.209.062" transform="translate(-189.237 -309.891)" fill="#fff"/>
    <path id="Path_43" data-name="Path 43" d="M265.692,326.17c-.014,1.863.17,3.787.025,5.736a11.245,11.245,0,0,1-.561,2.907,6.284,6.284,0,0,1-1.621,2.544l0,0a.379.379,0,0,1-.52-.551,5.481,5.481,0,0,0,1.365-2.261,10.417,10.417,0,0,0,.454-2.7c.1-1.857-.124-3.737-.156-5.681a.508.508,0,0,1,1.015-.017v.017Z" transform="translate(-191.063 -299.883)" fill="#fff"/>
    <path id="Path_44" data-name="Path 44" d="M171.066,354.216c-4.505-1.867-8.893-3.978-13.357-5.826a.761.761,0,0,1,.582-1.407l.03.013c4.433,2.06,8.717,4.35,13.109,6.391a.453.453,0,0,1-.364.829" transform="translate(-142.6 -309.639)" fill="#fff"/>
    <path id="Path_45" data-name="Path 45" d="M186.708,361.712a.463.463,0,0,1-.184-.038l-1.617-.71a.457.457,0,1,1,.368-.837l1.617.71a.457.457,0,0,1-.184.875" transform="translate(-155.165 -315.676)" fill="#fff"/>
    <rect id="Rectangle_12" data-name="Rectangle 12" width="2.983" height="2.983" transform="translate(41.462 47.797)" fill="#fff"/>
    <rect id="Rectangle_13" data-name="Rectangle 13" width="2.982" height="2.982" transform="translate(38.48 44.814)" fill="#fff"/>
    <rect id="Rectangle_14" data-name="Rectangle 14" width="2.982" height="2.982" transform="translate(44.444 44.814)" fill="#fff"/>
    <rect id="Rectangle_15" data-name="Rectangle 15" width="2.982" height="2.982" transform="translate(44.444 50.779)" fill="#fff"/>
    <rect id="Rectangle_16" data-name="Rectangle 16" width="2.983" height="2.982" transform="translate(47.427 41.832)" fill="#fff"/>
    <rect id="Rectangle_17" data-name="Rectangle 17" width="2.983" height="2.983" transform="translate(47.427 47.797)" fill="#fff"/>
    <rect id="Rectangle_18" data-name="Rectangle 18" width="2.983" height="2.982" transform="translate(41.462 50.779)" fill="#00b0bd"/>
    <rect id="Rectangle_19" data-name="Rectangle 19" width="2.982" height="2.982" transform="translate(44.444 53.761)" fill="#00b0bd"/>
    <rect id="Rectangle_20" data-name="Rectangle 20" width="2.982" height="2.982" transform="translate(38.48 53.761)" fill="#00b0bd"/>
  </g>
  <g id="Group_10" data-name="Group 10" transform="translate(86.614 10.079)">
    <g id="Group_7" data-name="Group 7" transform="translate(0.637)">
      <path id="Path_33" data-name="Path 33" d="M127.162,415.371c0,4.356-2.817,6.941-7.522,6.941H114.7v7.812h-5.257V408.459H119.64C124.345,408.459,127.162,411.043,127.162,415.371Zm-5.576,0c0-1.539-1.1-2.44-2.933-2.44H114.7v4.908h3.95C120.482,417.839,121.586,416.939,121.586,415.371Z" transform="translate(-109.446 -408.459)" fill="#b0bec5"/>
      <path id="Path_34" data-name="Path 34" d="M157.416,408.459h5.256v21.665h-5.256Z" transform="translate(-131.449 -408.459)" fill="#b0bec5"/>
      <path id="Path_35" data-name="Path 35" d="M196.341,430.124l-4.879-7.406-4.821,7.406h-6.1l7.7-11.094-7.028-10.571h5.866l4.385,6.854,4.414-6.854h5.866l-7.057,10.571,7.725,11.094Z" transform="translate(-142.056 -408.459)" fill="#b0bec5"/>
      <path id="Path_36" data-name="Path 36" d="M232.159,441.529a2.937,2.937,0,1,1,2.933,2.788A2.615,2.615,0,0,1,232.159,441.529Z" transform="translate(-165.731 -422.362)" fill="#b0bec5"/>
      <path id="Path_37" data-name="Path 37" d="M276.757,423.938c0,3.892-2.643,6.186-7.174,6.186H259.041V408.459h9.526c4.531,0,7.174,2.178,7.174,5.808a5.147,5.147,0,0,1-2.468,4.153A5.929,5.929,0,0,1,276.757,423.938Zm-9.293-11.007H264.3v4.1h3.166c1.684,0,2.7-.784,2.7-2.062S269.148,412.931,267.463,412.931Zm3.717,10.426c0-1.452-1.017-2.295-2.73-2.295H264.3v4.589h4.182C270.164,425.651,271.181,424.809,271.181,423.357Z" transform="translate(-178.061 -408.459)" fill="#00b0bd"/>
    </g>
    <text id="creative_advertising_agency" data-name="creative advertising agency" transform="translate(0 34.894)" fill="#b0bec5" font-size="7" font-family="SegoeUI, Segoe UI"><tspan x="0" y="0">creative advertising agency</tspan></text>
  </g>
</svg>
