<svg xmlns="http://www.w3.org/2000/svg" width="106" height="139.258" viewBox="0 0 106 139.258">
  <g id="Group_500" data-name="Group 500" transform="translate(-546 -1780.234)">
    <text id="DIGITAL_MARKETING" data-name="DIGITAL
 MARKETING" transform="translate(599 1890.491)" fill="#182b37" font-size="17" font-family="SegoeUI-Bold, Segoe UI" font-weight="700"><tspan x="-32.406" y="0">DIGITAL</tspan><tspan x="-52.552" y="25" xml:space="preserve"> MARKETING</tspan></text>
    <g id="Group_6" data-name="Group 6" transform="translate(559 1780.234)">
      <g id="Group_26" data-name="Group 26" transform="translate(15.631 7.223)">
        <g id="Group_11" data-name="Group 11" transform="translate(31.552)">
          <g id="Group_10" data-name="Group 10">
            <path id="Path_28" data-name="Path 28" d="M2110.486-2618.931a1.018,1.018,0,0,0-1.018,1.018v4.682a1.018,1.018,0,0,0,1.018,1.018,1.018,1.018,0,0,0,1.018-1.018v-4.682A1.018,1.018,0,0,0,2110.486-2618.931Z" transform="translate(-2109.468 2618.931)" fill="#182b37"/>
          </g>
        </g>
        <g id="Group_13" data-name="Group 13" transform="translate(8.143 31.756)">
          <g id="Group_12" data-name="Group 12">
            <path id="Path_29" data-name="Path 29" d="M1966.551-2423.68a1.018,1.018,0,0,0-1.018,1.018c0,.562.456,1.668,1.018,1.668s1.018-1.107,1.018-1.668A1.018,1.018,0,0,0,1966.551-2423.68Z" transform="translate(-1965.533 2423.68)" fill="#182b37"/>
          </g>
        </g>
        <g id="Group_15" data-name="Group 15" transform="translate(0 10.789)">
          <g id="Group_14" data-name="Group 14">
            <path id="Path_30" data-name="Path 30" d="M1962.288-2533.665a4.076,4.076,0,0,0-4.071-4.071h-7.6a25.56,25.56,0,0,0,1.561-9.717,11.648,11.648,0,0,0-.072-1.17,4.077,4.077,0,0,0-4.069-3.973,4.076,4.076,0,0,0-4.071,4.071v1.018c0,6.437-8.266,10.054-14.5,11.6a3.058,3.058,0,0,0-2.8-1.834h-10.178a1.018,1.018,0,0,0-1.018,1.018v25.078a1.018,1.018,0,0,0,1.018,1.018h10.178a3.057,3.057,0,0,0,2.789-1.813q.775.2,1.439.374a33.011,33.011,0,0,0,10.272,1.439h10.946a4.076,4.076,0,0,0,4.071-4.071,4.046,4.046,0,0,0-.689-2.263,4.072,4.072,0,0,0,2.725-3.844,4.074,4.074,0,0,0-.681-2.266,4.073,4.073,0,0,0,2.717-3.841,4.047,4.047,0,0,0-.689-2.263C1961.136-2529.72,1962.288-2531.873,1962.288-2533.665Zm-34.606,19.989a1.019,1.019,0,0,1-1.018,1.018H1917.5V-2535.7h9.161a1.019,1.019,0,0,1,1.018,1.018Zm30.535-17.954h-5.089a1.018,1.018,0,0,0-1.018,1.018c0,.562.456,1.668,1.018,1.668h3.053a2.038,2.038,0,0,1,2.036,2.036,2.036,2.036,0,0,1-2.036,2.036h-5.089a1.018,1.018,0,0,0-1.018,1.018,1.018,1.018,0,0,0,1.018,1.018h3.053a2.029,2.029,0,0,1,2.036,2.036,2.036,2.036,0,0,1-2.036,2.036h-5.089a1.018,1.018,0,0,0-1.018,1.018,1.018,1.018,0,0,0,1.018,1.018h3.054a2.038,2.038,0,0,1,2.036,2.036,2.038,2.038,0,0,1-2.036,2.036h-10.946a31.052,31.052,0,0,1-9.758-1.373c-.513-.134-1.075-.281-1.688-.437v-19.4c7.366-1.754,16.285-6.037,16.285-13.641v-1.018a2.038,2.038,0,0,1,2.036-2.036,2.039,2.039,0,0,1,2.036,2.033v0a23.892,23.892,0,0,1-1.662,10.789h-3.427a1.018,1.018,0,0,0-1.018,1.018,1.018,1.018,0,0,0,1.018,1.018h13.232a2.038,2.038,0,0,1,2.036,2.036A2.036,2.036,0,0,1,1958.217-2531.629Z" transform="translate(-1915.468 2552.596)" fill="#182b37"/>
          </g>
        </g>
        <g id="Group_17" data-name="Group 17" transform="translate(8.143 36.478)">
          <g id="Group_16" data-name="Group 16">
            <path id="Path_31" data-name="Path 31" d="M1966.551-2394.647a1.018,1.018,0,0,0-1.018,1.018v8.143a1.018,1.018,0,0,0,1.018,1.018,1.018,1.018,0,0,0,1.018-1.018v-8.143A1.018,1.018,0,0,0,1966.551-2394.647Z" transform="translate(-1965.533 2394.647)" fill="#182b37"/>
          </g>
        </g>
        <g id="Group_19" data-name="Group 19" transform="translate(19.339 12.824)">
          <g id="Group_18" data-name="Group 18">
            <path id="Path_32" data-name="Path 32" d="M2039.461-2540.08h-4.071a1.018,1.018,0,0,0-1.018,1.018,1.018,1.018,0,0,0,1.018,1.018h4.071a1.018,1.018,0,0,0,1.018-1.018A1.018,1.018,0,0,0,2039.461-2540.08Z" transform="translate(-2034.372 2540.08)" fill="#182b37"/>
          </g>
        </g>
        <g id="Group_21" data-name="Group 21" transform="translate(39.695 12.824)">
          <g id="Group_20" data-name="Group 20">
            <path id="Path_33" data-name="Path 33" d="M2164.622-2540.08h-4.071a1.018,1.018,0,0,0-1.018,1.018,1.018,1.018,0,0,0,1.018,1.018h4.071a1.018,1.018,0,0,0,1.018-1.018A1.018,1.018,0,0,0,2164.622-2540.08Z" transform="translate(-2159.533 2540.08)" fill="#182b37"/>
          </g>
        </g>
        <g id="Group_23" data-name="Group 23" transform="translate(37.31 4.188)">
          <g id="Group_22" data-name="Group 22">
            <path id="Path_34" data-name="Path 34" d="M2149.486-2592.88a1.019,1.019,0,0,0-1.44,0l-2.878,2.878a1.018,1.018,0,0,0,0,1.439,1.018,1.018,0,0,0,1.44,0l2.878-2.878A1.018,1.018,0,0,0,2149.486-2592.88Z" transform="translate(-2144.87 2593.178)" fill="#182b37"/>
          </g>
        </g>
        <g id="Group_25" data-name="Group 25" transform="translate(22.916 4.188)">
          <g id="Group_24" data-name="Group 24">
            <path id="Path_35" data-name="Path 35" d="M2060.985-2590l-2.879-2.878a1.018,1.018,0,0,0-1.439,0,1.018,1.018,0,0,0,0,1.439l2.878,2.878a1.018,1.018,0,0,0,1.44,0A1.018,1.018,0,0,0,2060.985-2590Z" transform="translate(-2056.369 2593.178)" fill="#182b37"/>
          </g>
        </g>
      </g>
      <path id="Path_36" data-name="Path 36" d="M1889.514-2593.083h-61.406a8.756,8.756,0,0,1-8.746-8.746V-2654.6a8.756,8.756,0,0,1,8.746-8.746h61.406a8.756,8.756,0,0,1,8.745,8.746v52.768A8.755,8.755,0,0,1,1889.514-2593.083Zm-61.406-67.655a6.148,6.148,0,0,0-6.141,6.141v52.768a6.148,6.148,0,0,0,6.141,6.14h61.406a6.148,6.148,0,0,0,6.14-6.14V-2654.6a6.148,6.148,0,0,0-6.14-6.141Z" transform="translate(-1819.363 2663.342)" fill="#182b37"/>
    </g>
  </g>
</svg>
