<svg xmlns="http://www.w3.org/2000/svg" width="112" height="138.751" viewBox="0 0 112 138.751">
  <g id="Group_498" data-name="Group 498" transform="translate(-896 -1780.74)">
    <text id="MEDIA_PRODUCTION" data-name="MEDIA
PRODUCTION" transform="translate(952 1890.491)" fill="#182b37" font-size="17" font-family="SegoeUI-Bold, Segoe UI" font-weight="700"><tspan x="-27.596" y="0">MEDIA</tspan><tspan x="-55.686" y="25">PRODUCTION</tspan></text>
    <g id="Group_7" data-name="Group 7" transform="translate(912 1780.74)">
      <path id="Path_37" data-name="Path 37" d="M4063.327-2590.979h-61.084a8.71,8.71,0,0,1-8.7-8.7v-51.845a8.711,8.711,0,0,1,8.7-8.7h61.084a8.711,8.711,0,0,1,8.7,8.7v51.845A8.71,8.71,0,0,1,4063.327-2590.979Zm-61.084-66.654a6.115,6.115,0,0,0-6.108,6.108v51.845a6.115,6.115,0,0,0,6.108,6.109h61.084a6.116,6.116,0,0,0,6.109-6.109v-51.845a6.116,6.116,0,0,0-6.109-6.108Z" transform="translate(-3993.542 2660.225)" fill="#182b37"/>
      <g id="Group_27" data-name="Group 27" transform="translate(25.475 18.27)">
        <path id="Path_38" data-name="Path 38" d="M4180.425-2533.381l-24.186-13.964a4.044,4.044,0,0,0-6.066,3.5v27.928a4.044,4.044,0,0,0,6.066,3.5l24.186-13.964A4.044,4.044,0,0,0,4180.425-2533.381Z" transform="translate(-4150.173 2547.893)" fill="#182b37"/>
      </g>
    </g>
  </g>
</svg>
