<svg xmlns="http://www.w3.org/2000/svg" width="9.582" height="9.602" viewBox="0 0 9.582 9.602">
  <g id="phone" transform="translate(-0.539 0)">
    <g id="Group_482" data-name="Group 482" transform="translate(0.539 0)">
      <path id="Path_328" data-name="Path 328" d="M9.87,7.047,8.53,5.707a.891.891,0,0,0-1.484.335.912.912,0,0,1-1.053.574A4.132,4.132,0,0,1,3.5,4.128a.867.867,0,0,1,.574-1.053.891.891,0,0,0,.335-1.484L3.074.251a.956.956,0,0,0-1.292,0l-.909.909c-.909.957.1,3.494,2.345,5.743S8,10.206,8.961,9.248l.909-.909A.956.956,0,0,0,9.87,7.047Z" transform="translate(-0.539 0)" fill="#00b0bd"/>
    </g>
  </g>
</svg>
