<svg xmlns="http://www.w3.org/2000/svg" width="309.688" height="68.89" viewBox="0 0 309.688 68.89">
  <g id="Group_494" data-name="Group 494" transform="translate(-315.913 -386.79)">
    <path id="Path_36" data-name="Path 36" d="M232.159,447.428c0-5.467,3.462-8.658,9.2-8.658,5.833,0,9.2,3.19,9.2,8.658s-3.372,8.748-9.2,8.748C235.621,456.175,232.159,452.9,232.159,447.428Z" transform="translate(292.192 -0.495)" fill="#182b37"/>
    <g id="Group_493" data-name="Group 493">
      <path id="Path_33" data-name="Path 33" d="M165.035,430.146c0,13.668-8.839,21.779-23.6,21.779H125.941v24.514H109.446v-67.98h31.988C156.2,408.459,165.035,416.568,165.035,430.146Zm-17.5,0c0-4.83-3.463-7.655-9.2-7.655H125.941v15.4h12.393C144.075,437.892,147.538,435.067,147.538,430.146Z" transform="translate(206.467 -21.669)" fill="#182b37"/>
      <path id="Path_34" data-name="Path 34" d="M157.416,408.459h16.493v67.98H157.416Z" transform="translate(239.98 -21.669)" fill="#182b37"/>
      <path id="Path_35" data-name="Path 35" d="M230.115,476.439,214.806,453.2l-15.128,23.238H180.542l24.148-34.81-22.053-33.17h18.407l13.76,21.506,13.852-21.506h18.408l-22.144,33.17,24.24,34.81Z" transform="translate(256.135 -21.669)" fill="#182b37"/>
      <path id="Path_37" data-name="Path 37" d="M314.63,457.028c0,12.213-8.294,19.411-22.509,19.411h-33.08v-67.98h29.89c14.217,0,22.51,6.833,22.51,18.224,0,5.012-2.825,9.57-7.746,13.031A18.6,18.6,0,0,1,314.63,457.028Zm-29.161-34.537h-9.933v12.85h9.933c5.284,0,8.474-2.46,8.474-6.47S290.753,422.491,285.469,422.491Zm11.664,32.716c0-4.557-3.19-7.2-8.566-7.2H275.536v14.4h13.122C293.943,462.406,297.133,459.763,297.133,455.207Z" transform="translate(310.971 -21.669)" fill="#00b0bd"/>
    </g>
  </g>
</svg>
