<svg xmlns="http://www.w3.org/2000/svg" width="94" height="137.978" viewBox="0 0 94 137.978">
  <g id="Group_496" data-name="Group 496" transform="translate(-1233 -1781.513)">
    <g id="Group_4" data-name="Group 4" transform="translate(1247 1781.513)">
      <g id="Group_8" data-name="Group 8" transform="translate(0 0)">
        <path id="Path_22" data-name="Path 22" d="M6116.31-2608.1v-24.966a5.7,5.7,0,0,0-5.692-5.692h-6.853v-13.056a3.668,3.668,0,0,0-3.662-3.661h-33.034a3.667,3.667,0,0,0-3.661,3.661v13.056h-6.853a5.7,5.7,0,0,0-5.692,5.692v24.966a5.7,5.7,0,0,0,5.692,5.692h6.853v10.97a3.667,3.667,0,0,0,3.661,3.661H6100.1a3.668,3.668,0,0,0,3.662-3.661v-10.984h6.853A5.681,5.681,0,0,0,6116.31-2608.1Zm-50.167-43.715a.926.926,0,0,1,.926-.926H6100.1a.926.926,0,0,1,.926.926v13.056h-34.886Zm34.9,60.377a.926.926,0,0,1-.925.926h-33.049a.926.926,0,0,1-.926-.926v-27.771h34.886v27.771Zm12.531-16.662a2.96,2.96,0,0,1-2.957,2.957h-6.853v-15.433a1.363,1.363,0,0,0-1.368-1.368h-37.622a1.362,1.362,0,0,0-1.368,1.368v15.433h-6.853a2.96,2.96,0,0,1-2.957-2.957v-24.966a2.96,2.96,0,0,1,2.957-2.957h54.063a2.96,2.96,0,0,1,2.957,2.957v24.966Z" transform="translate(-6050.862 2655.473)" fill="#182b37"/>
        <path id="Path_23" data-name="Path 23" d="M6103.624-2501.205a1.417,1.417,0,0,0-.967.4,1.42,1.42,0,0,0-.4.967,1.42,1.42,0,0,0,.4.967,1.417,1.417,0,0,0,.967.4,1.419,1.419,0,0,0,.967-.4,1.392,1.392,0,0,0,.4-.967,1.417,1.417,0,0,0-.4-.967A1.393,1.393,0,0,0,6103.624-2501.205Z" transform="translate(-6093.897 2526.295)" fill="#182b37"/>
        <path id="Path_24" data-name="Path 24" d="M6185.515-2349.979H6204.9a1.362,1.362,0,0,0,1.367-1.368,1.362,1.362,0,0,0-1.367-1.368h-19.385a1.363,1.363,0,0,0-1.368,1.368A1.362,1.362,0,0,0,6185.515-2349.979Z" transform="translate(-6162.469 2401.955)" fill="#182b37"/>
        <path id="Path_25" data-name="Path 25" d="M6185.515-2302.323H6204.9a1.362,1.362,0,0,0,1.367-1.368,1.362,1.362,0,0,0-1.367-1.368h-19.385a1.363,1.363,0,0,0-1.368,1.368A1.362,1.362,0,0,0,6185.515-2302.323Z" transform="translate(-6162.469 2362.05)" fill="#182b37"/>
        <path id="Path_26" data-name="Path 26" d="M6185.515-2397.635H6204.9a1.362,1.362,0,0,0,1.367-1.368,1.362,1.362,0,0,0-1.367-1.368h-19.385a1.362,1.362,0,0,0-1.368,1.368A1.363,1.363,0,0,0,6185.515-2397.635Z" transform="translate(-6162.469 2441.861)" fill="#182b37"/>
      </g>
    </g>
    <text id="PRINTING_PACKING" data-name="PRINTING
&amp; PACKING" transform="translate(1280 1890.491)" fill="#182b37" font-size="17" font-family="SegoeUI-Bold, Segoe UI" font-weight="700"><tspan x="-40.612" y="0">PRINTING</tspan><tspan x="-46.406" y="25">&amp; PACKING</tspan></text>
  </g>
</svg>
