<svg xmlns="http://www.w3.org/2000/svg" width="40.997" height="40.989" viewBox="0 0 40.997 40.989">
  <g id="Group_23" data-name="Group 23" transform="translate(0 0)">
    <path id="Path_26" data-name="Path 26" d="M1110.774,309.215c-.007.008-.007.008-.015.008h.022Zm.075-.015a.1.1,0,0,0-.068.015v.008c.09,0,.135-.008.158-.008v-.008A.317.317,0,0,0,1110.849,309.2Zm0,0a.1.1,0,0,0-.068.015v.008c.09,0,.135-.008.158-.008v-.008A.317.317,0,0,0,1110.849,309.2Zm-.075.015c-.007.008-.007.008-.015.008h.022Zm0,0c-.007.008-.007.008-.015.008h.022Zm.075-.015a.1.1,0,0,0-.068.015v.008c.09,0,.135-.008.158-.008v-.008A.317.317,0,0,0,1110.849,309.2Zm0,0a.1.1,0,0,0-.068.015v.008c.09,0,.135-.008.158-.008v-.008A.317.317,0,0,0,1110.849,309.2Zm-.075.015c-.007.008-.007.008-.015.008h.022Zm0,0c-.007.008-.007.008-.015.008h.022Zm.075-.015a.1.1,0,0,0-.068.015v.008c.09,0,.135-.008.158-.008v-.008A.317.317,0,0,0,1110.849,309.2Zm0,0a.1.1,0,0,0-.068.015v.008c.09,0,.135-.008.158-.008v-.008A.317.317,0,0,0,1110.849,309.2Zm-.075.015c-.007.008-.007.008-.015.008h.022Zm0,0c-.007.008-.007.008-.015.008h.022Zm.075-.015a.1.1,0,0,0-.068.015v.008c.09,0,.135-.008.158-.008v-.008A.317.317,0,0,0,1110.849,309.2Zm0,0a.1.1,0,0,0-.068.015v.008c.09,0,.135-.008.158-.008v-.008A.317.317,0,0,0,1110.849,309.2Zm-.09.022h.022l-.008-.008C1110.767,309.222,1110.767,309.222,1110.759,309.222Zm4.123-30.272a20.494,20.494,0,1,0,20.494,20.495A20.522,20.522,0,0,0,1114.882,278.95Zm11.865,13.037a.557.557,0,0,1-.12.375,9.191,9.191,0,0,1-1.9,1.99c-.105.083-.293.165-.293.323,0,3.95-1.006,7.893-3.882,10.747a14.453,14.453,0,0,1-14.044,3.282,13,13,0,0,1-2.711-1.081c-.293-.158-.571-.323-.849-.5-.068-.06-.12-.105-.06-.143s.1-.038.323,0a9.6,9.6,0,0,0,4.063-.526c.706-.248,2.231-.743,2.674-1.412.008-.015.022-.015.03-.038-.18-.038-.353-.038-.533-.068a5.258,5.258,0,0,1-3.92-3.282c-.052-.128,0-.2.135-.173a5.748,5.748,0,0,0,1.87-.06,2.912,2.912,0,0,1-.631-.188,5.061,5.061,0,0,1-3.117-4.033,3.607,3.607,0,0,1-.03-.563c.007-.128.067-.173.18-.1a5.1,5.1,0,0,0,1.9.533c-.21-.165-.413-.353-.6-.533a5,5,0,0,1-.856-5.9c.1-.143.158-.143.278-.007a15.293,15.293,0,0,0,9.845,5.017c.105.015.113,0,.1-.12a5.423,5.423,0,0,1,.053-2.058,4.956,4.956,0,0,1,.976-1.945,5.1,5.1,0,0,1,1.63-1.337,4.862,4.862,0,0,1,1.855-.548.621.621,0,0,1,.165-.023,4.835,4.835,0,0,1,2.133.345,5.038,5.038,0,0,1,1.382.849,2.762,2.762,0,0,1,.255.255.185.185,0,0,0,.2.053,12.3,12.3,0,0,0,2.869-1.1.127.127,0,0,1,.128-.008c.038.03.022.083,0,.128a4.205,4.205,0,0,1-.8,1.457c-.225.285-.8.991-1.187,1.059a9.96,9.96,0,0,0,2.411-.691c.1-.045.09-.06.09,0Zm-15.966,17.228v.008c.09,0,.135-.008.158-.008v-.008a.317.317,0,0,0-.09-.007A.1.1,0,0,0,1110.781,309.215Zm-.022.008h.022l-.008-.008C1110.767,309.222,1110.767,309.222,1110.759,309.222Zm.015-.008c-.007.008-.007.008-.015.008h.022Zm.075-.015a.1.1,0,0,0-.068.015v.008c.09,0,.135-.008.158-.008v-.008A.317.317,0,0,0,1110.849,309.2Zm0,0a.1.1,0,0,0-.068.015v.008c.09,0,.135-.008.158-.008v-.008A.317.317,0,0,0,1110.849,309.2Zm-.075.015c-.007.008-.007.008-.015.008h.022Zm0,0c-.007.008-.007.008-.015.008h.022Zm.075-.015a.1.1,0,0,0-.068.015v.008c.09,0,.135-.008.158-.008v-.008A.317.317,0,0,0,1110.849,309.2Zm0,0a.1.1,0,0,0-.068.015v.008c.09,0,.135-.008.158-.008v-.008A.317.317,0,0,0,1110.849,309.2Zm-.075.015c-.007.008-.007.008-.015.008h.022Zm0,0c-.007.008-.007.008-.015.008h.022Zm.075-.015a.1.1,0,0,0-.068.015v.008c.09,0,.135-.008.158-.008v-.008A.317.317,0,0,0,1110.849,309.2Zm0,0a.1.1,0,0,0-.068.015v.008c.09,0,.135-.008.158-.008v-.008A.317.317,0,0,0,1110.849,309.2Zm-.075.015c-.007.008-.007.008-.015.008h.022Zm0,0c-.007.008-.007.008-.015.008h.022Zm.075-.015a.1.1,0,0,0-.068.015v.008c.09,0,.135-.008.158-.008v-.008A.317.317,0,0,0,1110.849,309.2Zm-.075.015c-.007.008-.007.008-.015.008h.022Zm.075-.015a.1.1,0,0,0-.068.015v.008c.09,0,.135-.008.158-.008v-.008A.317.317,0,0,0,1110.849,309.2Z" transform="translate(-1094.38 -278.95)" fill="#162b37"/>
  </g>
</svg>
