<svg xmlns="http://www.w3.org/2000/svg" width="88" height="138.993" viewBox="0 0 88 138.993">
  <g id="Group_499" data-name="Group 499" transform="translate(-727 -1780.498)">
    <g id="Group_2" data-name="Group 2" transform="translate(736 1780.498)">
      <path id="Path_11" data-name="Path 11" d="M3165.734-2371.983a1.362,1.362,0,0,0-1.362,1.362,1.362,1.362,0,0,0,1.362,1.362,1.362,1.362,0,0,0,1.362-1.362A1.363,1.363,0,0,0,3165.734-2371.983Z" transform="translate(-3122.697 2419.106)" fill="#182b37"/>
      <path id="Path_12" data-name="Path 12" d="M2971.054-2661.717h-56.111a6.817,6.817,0,0,0-6.81,6.81v41.675a6.817,6.817,0,0,0,6.81,6.81h21.246v6.265h-1.362a6.766,6.766,0,0,0-4.815,2,6.767,6.767,0,0,0-1.995,4.814,1.362,1.362,0,0,0,1.362,1.362h27.238a1.362,1.362,0,0,0,1.362-1.362,6.817,6.817,0,0,0-6.81-6.81h-1.362v-6.265h21.246a6.817,6.817,0,0,0,6.81-6.81v-41.675A6.817,6.817,0,0,0,2971.054-2661.717Zm-56.111,2.724h56.111a4.09,4.09,0,0,1,4.086,4.086v34.865h-6.265v-31.324a1.362,1.362,0,0,0-1.362-1.362h-10.9a1.362,1.362,0,0,0-1.362,1.362v31.324h-6.817c-.014-1.409-.051-2.8-.11-4.145a87.608,87.608,0,0,0-1.064-10.9,6.81,6.81,0,0,0,1.859-8.883l-4.72-8.176a1.363,1.363,0,0,0-1.179-.681,1.362,1.362,0,0,0-1.179.681l-4.722,8.177a6.809,6.809,0,0,0,1.5,8.594,86.38,86.38,0,0,0-1.148,11.182c-.061,1.361-.1,2.751-.115,4.147h-6.817v-20.429a1.359,1.359,0,0,0-.135-.588c0-.007-.006-.014-.009-.021l-5.448-10.9a1.362,1.362,0,0,0-1.218-.753,1.362,1.362,0,0,0-1.218.753l-5.448,10.9c0,.007-.005.015-.009.021a1.353,1.353,0,0,0-.135.588v20.429h-6.265v-34.865A4.09,4.09,0,0,1,2914.943-2658.993Zm43.037,38.951V-2650h8.172v2.724h-1.362a1.361,1.361,0,0,0-1.362,1.362,1.362,1.362,0,0,0,1.362,1.362h1.362v4.086h-1.362a1.362,1.362,0,0,0-1.362,1.362,1.361,1.361,0,0,0,1.362,1.362h1.362v4.086h-1.362a1.361,1.361,0,0,0-1.362,1.362,1.361,1.361,0,0,0,1.362,1.362h1.362v5.448h-1.362a1.361,1.361,0,0,0-1.362,1.362,1.362,1.362,0,0,0,1.362,1.362h1.362v2.724Zm-14.755-13.713a6.8,6.8,0,0,0,1.469-.164c.253,1.62.624,4.487.844,8.429h-5.069c.23-3.94.619-6.851.888-8.526A6.817,6.817,0,0,0,2943.225-2633.755Zm0-2.724a4.091,4.091,0,0,1-3.542-6.125l3.542-6.133,3.541,6.132A4.088,4.088,0,0,1,2943.225-2636.479Zm-2.881,13.713h5.314c.029.895.049,1.8.058,2.724h-5.433C2940.292-2620.955,2940.313-2621.865,2940.343-2622.766Zm-15.05,2.724v-19.067h2.724v19.067Zm-5.448,0v-19.067h2.724v19.067Zm.842-21.791,3.244-6.489,3.244,6.489Zm34.335,47.123h-24.049a4.073,4.073,0,0,1,.965-1.527,4.06,4.06,0,0,1,2.889-1.2h16.343A4.093,4.093,0,0,1,2955.022-2594.71Zm-7.938-5.448h-8.172v-6.265h8.172Zm23.97-8.989h-56.111a4.09,4.09,0,0,1-4.086-4.086v-4.086h64.283v4.086A4.09,4.09,0,0,1,2971.054-2609.147Z" transform="translate(-2908.133 2661.717)" fill="#182b37"/>
      <path id="Path_13" data-name="Path 13" d="M3090.167-2371.983H3082a1.362,1.362,0,0,0-1.362,1.362,1.361,1.361,0,0,0,1.362,1.362h8.171a1.361,1.361,0,0,0,1.362-1.362A1.362,1.362,0,0,0,3090.167-2371.983Z" transform="translate(-3052.578 2419.106)" fill="#182b37"/>
    </g>
    <text id="WEB_APP_DESIGN" data-name="WEB / APP
DESIGN" transform="translate(771 1890.491)" fill="#182b37" font-size="17" font-family="SegoeUI-Bold, Segoe UI" font-weight="700"><tspan x="-43.392" y="0">WEB / APP</tspan><tspan x="-31.008" y="25">DESIGN</tspan></text>
  </g>
</svg>
